<svg xmlns="http://www.w3.org/2000/svg" width="62" height="60" fill="none"><path fill="#fff" d="m56.819 6.489-1.206 9.205c-2.947-.198-5.225.33-6.833 1.584-1.608 1.254-2.68 3.002-3.215 5.246-.536 2.243-.637 4.784-.302 7.621H56.82V54H34.612V28.166c0-7.787 1.875-13.66 5.627-17.619 3.818-4.025 9.345-5.378 16.58-4.058zm-30.95 0-1.205 9.205c-2.948-.198-5.225.33-6.833 1.584-1.608 1.254-2.68 3.002-3.216 5.246-.536 2.243-.636 4.784-.301 7.621H25.87V54H3.663V28.166c0-7.787 1.875-13.66 5.627-17.619 3.818-4.025 9.345-5.378 16.58-4.058z"/></svg>