<svg xmlns="http://www.w3.org/2000/svg" width="120" height="40" fill="none"><g fill="#575F75" clip-path="url(#a)"><path d="M32.126 33.104c0 .133-.12.23-.254.23h-3.425a.889.889 0 0 1-.889-.89V20.877c0-.2.207-.33.383-.237 1.3.75 2.601 1.508 3.902 2.25.176.1.29.191.29.428-.007 3.26-.007 6.52-.007 9.787zm-5.088-15.07a.89.89 0 0 1-1.334.77 965.823 965.823 0 0 1-3.081-1.784.364.364 0 0 1-.146-.268c0-3.336 0-6.672.008-10.008 0-.044.053-.07.096-.07h3.568a.89.89 0 0 1 .889.89v10.47zm1.832.778a.89.89 0 0 1-1.336-.77c0-1.193 0-2.357.017-3.517 0-.138.16-.329.298-.413 2.51-1.462 5.027-2.908 7.537-4.362l.305-.176a.875.875 0 0 1 1.198.32L38.3 12.34a.89.89 0 0 1-.324 1.215c-3.029 1.752-6.05 3.492-9.107 5.257zM18.246 30.804a.15.15 0 0 1-.172-.063l-1.779-3.08a.889.889 0 0 1 .326-1.214c3.267-1.886 6.527-3.767 9.83-5.677a.406.406 0 0 1 .61.352c0 1.43.008 2.854-.008 4.285 0 .145-.091.36-.206.42-2.858 1.666-5.723 3.317-8.581 4.967-.008.005-.011.007-.02.01zm10.868-10.031a.89.89 0 0 1-.002-1.54c.595-.346 1.177-.684 1.76-1.019.329-.191.68-.352.987-.581.36-.268.65-.215 1.025 0 2.693 1.576 5.395 3.13 8.096 4.69a.359.359 0 0 1 .119.482L39.427 25.7a.89.89 0 0 1-1.214.325c-3.028-1.747-6.044-3.491-9.099-5.253zm-3.628-1.539a.89.89 0 0 1 0 1.54c-1.047.605-2.07 1.195-3.1 1.778a.421.421 0 0 1-.345-.015 1922.66 1922.66 0 0 1-8.6-4.966c-.078-.039-.078-.152-.034-.227l1.761-3.05a.89.89 0 0 1 1.216-.324c3.034 1.757 6.051 3.499 9.102 5.264z"/></g><path fill="#575F75" d="M103.014 26.356c-.694 0-1.281-.13-1.762-.392a2.773 2.773 0 0 1-1.095-1.059 2.947 2.947 0 0 1-.364-1.45 3.2 3.2 0 0 1 .231-1.246 2.45 2.45 0 0 1 .712-.962c.32-.273.736-.495 1.246-.667.386-.125.837-.237 1.353-.338a31.398 31.398 0 0 1 1.691-.276c.611-.09 1.249-.184 1.913-.285l-.765.436c.006-.664-.143-1.154-.445-1.468-.303-.315-.813-.472-1.531-.472-.433 0-.851.1-1.255.303-.403.201-.685.548-.845 1.04l-1.958-.613a3.637 3.637 0 0 1 1.352-1.958c.671-.493 1.573-.739 2.706-.739.854 0 1.605.14 2.252.418a2.8 2.8 0 0 1 1.451 1.37c.172.34.275.686.311 1.042.036.35.053.733.053 1.148v5.901h-1.878v-2.082l.312.338c-.433.694-.94 1.204-1.522 1.53-.575.32-1.296.481-2.163.481zm.428-1.709c.486 0 .901-.086 1.246-.258.344-.172.617-.383.818-.632.208-.249.347-.483.419-.703.112-.273.175-.584.187-.934.017-.356.026-.644.026-.864l.659.196c-.647.101-1.202.19-1.664.267-.463.077-.861.151-1.193.223-.332.065-.626.14-.881.222-.249.09-.46.193-.632.312a1.382 1.382 0 0 0-.401.41 1.067 1.067 0 0 0-.133.542c0 .237.059.448.178.632.119.178.291.32.516.427.232.107.516.16.855.16zM95.86 26.09v-5.84c0-.658-.163-1.172-.49-1.54-.326-.373-.768-.56-1.326-.56-.344 0-.652.08-.925.24a1.64 1.64 0 0 0-.65.694c-.16.303-.24.665-.24 1.086l-.953-.56c-.005-.665.143-1.25.446-1.754.308-.51.723-.908 1.246-1.192a3.582 3.582 0 0 1 1.744-.428c1.062 0 1.875.32 2.439.962.57.634.854 1.471.854 2.51v6.38H95.86zm-11.561 0v-9.612h1.896v2.981h.267v6.63h-2.163zm5.794 0v-5.812c0-.67-.163-1.193-.49-1.566-.326-.374-.771-.561-1.335-.561-.546 0-.985.187-1.317.56-.326.374-.49.86-.49 1.46l-.96-.64c0-.624.154-1.184.462-1.683.309-.498.724-.89 1.246-1.175a3.61 3.61 0 0 1 1.771-.436c.718 0 1.317.155 1.798.463a2.77 2.77 0 0 1 1.086 1.246c.243.522.365 1.113.365 1.771v6.373h-2.136zm-12.705 4.538a4.785 4.785 0 0 1-1.54-.249 4.314 4.314 0 0 1-1.317-.72 3.804 3.804 0 0 1-.961-1.122l1.976-.98c.184.35.442.609.774.775.338.172.697.258 1.077.258.445 0 .843-.08 1.193-.24.35-.155.62-.386.81-.695.195-.302.287-.682.275-1.139v-2.732h.267v-7.307h1.878v10.075c0 .243-.011.475-.035.694-.018.226-.05.445-.098.659-.142.623-.415 1.133-.819 1.53a3.723 3.723 0 0 1-1.504.9 6.28 6.28 0 0 1-1.976.293zm-.187-4.272c-.884 0-1.655-.222-2.314-.667a4.411 4.411 0 0 1-1.53-1.816c-.363-.765-.543-1.629-.543-2.59 0-.973.18-1.84.542-2.599.368-.765.887-1.367 1.558-1.806.67-.445 1.46-.668 2.367-.668.914 0 1.68.223 2.297.668.623.439 1.094 1.04 1.415 1.806.32.766.48 1.632.48 2.599 0 .955-.16 1.819-.48 2.59-.32.765-.798 1.37-1.433 1.816-.635.445-1.421.667-2.359.667zm.33-1.922c.575 0 1.038-.13 1.388-.392.356-.267.614-.638.774-1.112.166-.475.25-1.024.25-1.647 0-.629-.084-1.178-.25-1.646-.16-.475-.412-.843-.756-1.104-.344-.267-.79-.4-1.335-.4-.576 0-1.05.142-1.424.427-.374.279-.65.658-.828 1.139a4.482 4.482 0 0 0-.267 1.584c0 .587.086 1.121.258 1.602.178.475.448.851.81 1.13.362.28.822.419 1.38.419zm-8.994-9.416V13.05h2.145v1.967h-2.145zm0 11.072v-9.613h2.145v9.613h-2.145zm-4.673 0v-4.63c0-.302-.02-.638-.062-1.006a3.475 3.475 0 0 0-.294-1.059 2.008 2.008 0 0 0-.676-.845c-.297-.22-.7-.33-1.21-.33-.273 0-.543.045-.81.134a1.86 1.86 0 0 0-.73.463c-.214.213-.386.51-.516.89-.13.374-.196.854-.196 1.442l-1.273-.543c0-.82.157-1.56.472-2.225a3.785 3.785 0 0 1 1.406-1.585c.617-.397 1.377-.596 2.279-.596.712 0 1.299.119 1.762.356.463.238.83.54 1.103.908s.475.76.606 1.175c.13.415.213.81.249 1.183.041.368.062.668.062.9v5.366h-2.172zm-6.666 0v-9.613h1.914v2.982h.258v6.63h-2.172zm-10.394 0V13.273h8.277v2.012h-6.132v3.16h5.064v2.01h-5.064v3.623h6.132v2.012h-8.277z"/><defs><clipPath id="a"><path fill="#fff" d="M13.334 6.667h27.937v26.667H13.334z"/></clipPath></defs></svg>