<svg xmlns="http://www.w3.org/2000/svg" width="102" height="34" fill="none"><g fill-rule="evenodd" clip-path="url(#a)" clip-rule="evenodd"><path fill="#A7ADBE" d="M24.212 15.47c-.552-3.067 1.766-5.508 4.632-5.364 2.011.102 4.064 1.537 4.084 4.084.013 1.803-1.181 3.443-2.498 3.962-.826.323-1.983.127-2.011-.855-.025-.891.854-.973 1.525-1.463 2.404-1.754.544-5.806-2.805-4.935-1.709.445-3.005 2.187-2.923 4.57h-.004z"/><path fill="#6D7792" d="M19.117 20.516c-1.533-8.48 4.886-15.234 12.81-14.833 5.564.282 11.243 4.252 11.296 11.292.037 4.997-3.266 9.53-6.913 10.958-2.278.89-5.483.355-5.56-2.36-.074-2.469 2.358-2.694 4.215-4.043 6.647-4.857 1.508-16.068-7.76-13.656-4.727 1.231-8.312 6.047-8.087 12.642z"/><path fill="#575F75" d="M22.2 17.442c-.949-5.279 3.042-9.482 7.977-9.236 3.463.175 7 2.645 7.032 7.032.024 3.107-2.032 5.932-4.301 6.82-1.419.555-3.414.22-3.463-1.468-.045-1.538 1.472-1.677 2.625-2.519 4.137-3.025.94-10-4.829-8.5-2.944.765-5.176 3.761-5.037 7.87H22.2z"/></g><path fill="#575F75" d="M79.9 22.939c-.852 0-1.597-.192-2.234-.576a3.96 3.96 0 0 1-1.485-1.587c-.347-.68-.52-1.459-.52-2.338 0-.895.178-1.679.536-2.353.358-.674.855-1.2 1.492-1.579s1.374-.569 2.211-.569c.858 0 1.606.193 2.243.577a3.947 3.947 0 0 1 1.484 1.595c.353.674.53 1.45.53 2.33 0 .884-.18 1.665-.538 2.344a3.96 3.96 0 0 1-1.484 1.587c-.637.38-1.382.569-2.235.569zm0-1.785c.758 0 1.322-.252 1.69-.758.369-.505.553-1.158.553-1.958 0-.826-.187-1.484-.56-1.974-.374-.495-.935-.742-1.683-.742-.51 0-.931.116-1.263.347a2 2 0 0 0-.727.956c-.157.405-.236.876-.236 1.413 0 .827.186 1.487.56 1.982.38.49.935.734 1.666.734zm-7.753 1.548v-4.106c0-.268-.019-.566-.056-.892a3.082 3.082 0 0 0-.26-.94 1.781 1.781 0 0 0-.6-.75c-.264-.194-.621-.292-1.074-.292-.242 0-.482.04-.719.119a1.649 1.649 0 0 0-.647.41c-.19.19-.342.453-.458.79-.116.331-.174.758-.174 1.28l-1.13-.483c0-.726.14-1.384.42-1.974a3.36 3.36 0 0 1 1.247-1.405c.547-.353 1.221-.53 2.021-.53.632 0 1.153.106 1.564.317.41.21.737.479.979.805.242.326.421.674.537 1.042.116.369.19.719.22 1.05.038.327.056.593.056.798v4.761h-1.926zm-5.915 0v-11.37h1.698v5.985h.23v5.385h-1.928zm-5.365.237c-.879 0-1.629-.195-2.25-.584a3.89 3.89 0 0 1-1.43-1.611c-.325-.68-.491-1.448-.497-2.306.006-.874.177-1.647.514-2.321a3.873 3.873 0 0 1 1.453-1.595c.626-.39 1.37-.585 2.234-.585.969 0 1.787.245 2.456.735.674.484 1.113 1.147 1.318 1.99l-1.895.513c-.147-.458-.392-.813-.734-1.066a1.89 1.89 0 0 0-1.169-.387c-.494 0-.902.119-1.223.355a2.02 2.02 0 0 0-.711.964c-.153.41-.23.876-.23 1.397 0 .81.182 1.466.546 1.966.363.5.902.75 1.618.75.506 0 .903-.115 1.193-.347.294-.231.516-.566.663-1.003l1.942.435c-.263.868-.723 1.537-1.381 2.005-.658.463-1.464.695-2.416.695zm-12.94-.237v-11.37h7.343v1.784h-5.44v2.804h4.493v1.784H49.83v3.214h5.44v1.784h-7.343z"/><defs><clipPath id="a"><path fill="#fff" d="M18.889 5.666h24.335v22.667H18.889z"/></clipPath></defs></svg>