<svg xmlns="http://www.w3.org/2000/svg" width="102" height="34" fill="none"><g clip-path="url(#a)"><path fill="#575F75" d="M14.835 6.855c4.965-2.785 12.058-.502 15.846 5.103 3.787 5.605 2.834 12.404-2.128 15.189 4.22-2.366 5.029-8.149 1.81-12.911-3.22-4.763-9.252-6.705-13.469-4.34-4.22 2.37-5.029 8.15-1.812 12.915 3.22 4.762 9.248 6.705 13.468 4.336-4.965 2.787-12.058.501-15.845-5.104C8.92 16.441 9.873 9.64 14.835 6.855z"/><path fill="#A7ADBE" d="M18.526 8.656c4.067-2.283 9.88-.41 12.98 4.181C34.61 17.428 33.828 23 29.761 25.283c3.457-1.94 4.12-6.677 1.482-10.578-2.635-3.901-7.578-5.495-11.033-3.555-3.457 1.94-4.12 6.677-1.482 10.581s7.578 5.494 11.035 3.552c-4.067 2.283-9.88.413-12.98-4.18-3.103-4.592-2.322-10.166 1.745-12.447h-.002z"/><path fill="#575F75" d="M24.239 8.472c4.311.272 8.26 4.018 8.816 8.368.554 4.35-2.49 7.655-6.802 7.386 3.666.23 6.254-2.58 5.782-6.278-.473-3.699-3.826-6.882-7.491-7.112-3.666-.23-6.256 2.58-5.783 6.278.474 3.699 3.83 6.882 7.492 7.112-4.311-.271-8.256-4.017-8.813-8.367-.557-4.35 2.488-7.655 6.802-7.387h-.003z"/><path fill="#6D7792" d="M28.763 10.233c3.411 2.047 5.02 6.212 3.6 9.298-1.425 3.087-5.342 3.929-8.753 1.881 2.9 1.74 6.231 1.025 7.44-1.598 1.21-2.624-.162-6.162-3.06-7.905-2.9-1.74-6.23-1.025-7.439 1.599-1.21 2.623.158 6.162 3.059 7.902-3.41-2.048-5.02-6.212-3.596-9.299 1.424-3.086 5.341-3.929 8.752-1.881l-.003.003z"/></g><path fill="#575F75" d="M87.145 23.807c-.614 0-1.134-.116-1.559-.347a2.45 2.45 0 0 1-.968-.937 2.603 2.603 0 0 1-.323-1.283c0-.41.068-.776.205-1.102.136-.33.346-.614.63-.85.283-.242.65-.438 1.102-.59.34-.11.74-.21 1.196-.3.462-.089.96-.17 1.496-.244.54-.078 1.105-.163 1.692-.252l-.677.386c.006-.588-.125-1.02-.393-1.299-.268-.278-.72-.417-1.354-.417-.383 0-.753.09-1.11.268-.357.178-.606.485-.748.92l-1.732-.543a3.22 3.22 0 0 1 1.197-1.732c.593-.435 1.39-.653 2.393-.653.756 0 1.42.123 1.992.37.577.247 1.005.65 1.283 1.212.152.3.244.607.275.921.032.31.047.649.047 1.016v5.22h-1.66v-1.843l.275.3c-.383.614-.832 1.065-1.346 1.354-.51.283-1.147.425-1.913.425zm.378-1.512c.43 0 .797-.076 1.102-.228.304-.152.546-.339.724-.56.184-.22.307-.427.37-.621.1-.241.155-.517.165-.827.016-.315.024-.57.024-.763l.583.173c-.573.09-1.063.168-1.473.236-.409.068-.76.134-1.055.197a6.711 6.711 0 0 0-.779.197 2.41 2.41 0 0 0-.559.275 1.22 1.22 0 0 0-.354.362.944.944 0 0 0-.118.48c0 .21.052.397.157.56.105.157.257.283.457.377.205.095.457.142.756.142zm-6.731 1.275v-4.093c0-.268-.018-.564-.055-.89a3.08 3.08 0 0 0-.26-.937 1.776 1.776 0 0 0-.598-.747c-.263-.195-.62-.292-1.07-.292-.242 0-.481.04-.717.118a1.644 1.644 0 0 0-.646.41c-.189.189-.341.451-.456.787-.116.33-.174.756-.174 1.275l-1.125-.48c0-.724.139-1.38.417-1.968a3.35 3.35 0 0 1 1.244-1.401c.545-.352 1.217-.528 2.015-.528.63 0 1.15.105 1.559.315.41.21.735.478.976.803.241.325.42.672.535 1.04.116.367.19.716.22 1.046.038.326.056.59.056.795v4.747h-1.921zm-5.897 0v-8.502h1.693v2.638h.228v5.864h-1.92zm-4.24-9.793v-1.74h1.897v1.74h-1.897zm0 9.793v-8.502h1.897v8.502h-1.897zm-4.107 0v-5.164c0-.583-.145-1.037-.433-1.362-.289-.33-.68-.496-1.173-.496-.305 0-.578.07-.82.213a1.45 1.45 0 0 0-.574.614c-.142.267-.212.587-.212.96l-.843-.496c-.005-.588.126-1.105.394-1.55.273-.452.64-.804 1.102-1.056a3.169 3.169 0 0 1 1.543-.378c.94 0 1.659.284 2.157.85.504.562.756 1.302.756 2.22v5.645h-1.897zm-10.227 0v-8.502h1.677v2.637h.236v5.865h-1.913zm5.125 0v-5.14c0-.593-.144-1.055-.433-1.386-.288-.33-.682-.496-1.18-.496-.483 0-.872.165-1.166.496-.288.33-.433.761-.433 1.291l-.85-.567c0-.55.136-1.047.41-1.488.272-.44.64-.787 1.102-1.039a3.194 3.194 0 0 1 1.566-.386c.635 0 1.165.137 1.59.41.43.268.751.635.96 1.102.216.462.324.984.324 1.567v5.636h-1.89zm-11.777.245c-.63 0-1.15-.105-1.559-.315a2.753 2.753 0 0 1-.976-.803 3.495 3.495 0 0 1-.535-1.04 5.556 5.556 0 0 1-.228-1.038 8.853 8.853 0 0 1-.048-.803v-4.748h1.921v4.094c0 .262.019.559.055.89.037.325.12.64.252.944.137.3.336.546.599.74.267.194.627.292 1.078.292.241 0 .48-.04.716-.118a1.62 1.62 0 0 0 .638-.402c.194-.194.35-.46.465-.795.115-.336.173-.761.173-1.275l1.126.48c0 .724-.142 1.38-.426 1.968a3.348 3.348 0 0 1-1.236 1.41c-.545.346-1.217.519-2.015.519zm2.779-.244v-2.638h-.228v-5.865h1.905v8.503h-1.677zm-14.205-.001V12.235h1.897v9.558h5.007v1.779h-6.904z"/><defs><clipPath id="a"><path fill="#fff" d="M10.389 5.666h23.018v22.667H10.389z"/></clipPath></defs></svg>