<svg xmlns="http://www.w3.org/2000/svg" width="120" height="40" fill="none"><g clip-path="url(#a)"><path fill="#6D7792" d="M28.9 20.008s-5.708 6.634-13.344.23c0 0 6.017-6.556 13.344-.23z"/><path fill="#575F75" d="M28.9 20.008s-8.721.711-9.657-9.211c0 0 8.887-.44 9.657 9.211z"/><path fill="#6D7792" d="M28.9 20.008s-6.706-5.624-.402-13.341c0 0 6.631 5.933.402 13.341z"/><path fill="#575F75" d="M28.9 20.008s-.82-8.712 9.086-9.776c0 0 .552 8.881-9.086 9.776z"/><path fill="#A7ADBE" d="M28.413 19.846s5.537-6.778 13.335-.57c0 0-5.849 6.706-13.335.57z"/><path fill="#6D7792" d="M28.9 20.008s8.703-.933 9.891 8.962c0 0-8.874.664-9.891-8.962z"/><path fill="#575F75" d="M28.9 20.008s6.847 5.45.74 13.325c0 0-6.782-5.761-.74-13.325z"/><path fill="#A7ADBE" d="M28.9 20.008s1.042 8.69-8.837 10.003c0 0-.777-8.865 8.837-10.003z"/></g><path fill="#575F75" d="M102.251 26.911v-4.82c0-.314-.022-.663-.065-1.046a3.603 3.603 0 0 0-.306-1.103 2.087 2.087 0 0 0-.704-.88c-.309-.23-.729-.344-1.26-.344a2.65 2.65 0 0 0-.844.14 1.935 1.935 0 0 0-.76.481c-.222.223-.402.532-.538.927-.136.39-.204.89-.204 1.502l-1.325-.566c0-.852.164-1.625.491-2.317a3.943 3.943 0 0 1 1.465-1.65c.642-.413 1.433-.62 2.372-.62.742 0 1.353.123 1.835.37a3.25 3.25 0 0 1 1.15.946c.284.383.494.79.63 1.223.136.433.222.843.259 1.233.044.383.065.695.065.936v5.588h-2.261zm-6.942 0V13.565h1.993v7.025h.268v6.321h-2.26zm-2.134.001a9.125 9.125 0 0 1-1.946.157c-.63-.012-1.195-.126-1.696-.342-.5-.223-.88-.572-1.14-1.048a2.986 2.986 0 0 1-.361-1.325c-.013-.451-.019-.96-.019-1.53v-8.702h2.225v8.573c0 .401.003.754.009 1.056.012.303.077.55.195.742.222.37.577.578 1.065.62a7.154 7.154 0 0 0 1.668-.073v1.872zm-6.978-8.258v-1.752h6.978v1.752h-6.978zM82.3 15.382v-2.048h2.233v2.048h-2.234zm0 11.53v-10.01h2.233v10.01h-2.234zm-4.866 0v-4.82c0-.314-.022-.664-.065-1.047a3.623 3.623 0 0 0-.306-1.103 2.092 2.092 0 0 0-.704-.88c-.31-.229-.73-.343-1.26-.343a2.65 2.65 0 0 0-.844.14 1.936 1.936 0 0 0-.76.481c-.222.222-.402.531-.538.927-.135.39-.203.89-.203 1.501l-1.326-.565c0-.853.164-1.625.492-2.317a3.943 3.943 0 0 1 1.464-1.65c.642-.414 1.433-.62 2.372-.62.742 0 1.353.123 1.835.37a3.24 3.24 0 0 1 1.15.945c.284.383.494.791.63 1.224.136.432.222.843.26 1.232.043.383.064.695.064.936v5.589h-2.261zm-6.942 0v-10.01h1.993v3.105h.269v6.905h-2.262zm-6.31.278c-1.013 0-1.903-.22-2.669-.659a4.685 4.685 0 0 1-1.798-1.825c-.426-.779-.64-1.675-.64-2.688 0-1.094.21-2.042.63-2.845a4.604 4.604 0 0 1 1.753-1.882c.747-.445 1.612-.667 2.595-.667 1.038 0 1.918.244 2.64.732.73.482 1.27 1.165 1.623 2.048.352.884.485 1.925.398 3.124H66.5v-.816c-.006-1.087-.197-1.881-.574-2.382-.377-.5-.97-.75-1.78-.75-.914 0-1.594.284-2.039.852-.445.563-.667 1.387-.667 2.475 0 1.013.222 1.798.667 2.354.445.556 1.094.834 1.947.834.55 0 1.022-.12 1.418-.361a2.42 2.42 0 0 0 .926-1.066l2.206.667a4.47 4.47 0 0 1-1.78 2.104c-.796.5-1.677.75-2.64.75zm-3.447-4.662V20.84h6.886v1.687h-6.886zM46.97 26.911v-.306l6.58-10.945h-6.116v-2.095h9.981v.316l-6.543 10.926h6.386v2.104H46.97z"/><defs><clipPath id="a"><path fill="#fff" d="M15.556 6.667h26.192v26.667H15.556z"/></clipPath></defs></svg>