<svg xmlns="http://www.w3.org/2000/svg" width="26" height="26" fill="none"><path fill="#3363FF" d="M4.165 4.165a3.124 3.124 0 0 0 0 4.417l1.72 1.72a.849.849 0 0 1 .04-.043l4.334-4.334a.844.844 0 0 1 .043-.04l-1.72-1.72a3.124 3.124 0 0 0-4.417 0zm7.283 2.865a.849.849 0 0 1-.04.044l-4.333 4.334a.807.807 0 0 1-.044.04l10.386 10.387a3.124 3.124 0 0 0 4.418-4.418L11.448 7.031zm5.994-4.53a.523.523 0 0 1 .974 0l.466 1.186c.054.135.16.243.295.296l1.183.468a.526.526 0 0 1 0 .978l-1.183.468a.525.525 0 0 0-.295.296l-.466 1.187a.523.523 0 0 1-.974 0l-.466-1.187a.525.525 0 0 0-.296-.296l-1.182-.468a.526.526 0 0 1 0-.978l1.182-.468a.525.525 0 0 0 .296-.296l.466-1.187zm4.189 7.39a.523.523 0 0 1 .974 0l.17.433c.054.135.16.242.296.296l.43.17a.526.526 0 0 1 0 .978l-.43.171a.524.524 0 0 0-.296.296l-.17.433a.523.523 0 0 1-.974 0l-.17-.433a.524.524 0 0 0-.295-.296l-.431-.17a.526.526 0 0 1 0-.979l.431-.17a.524.524 0 0 0 .295-.296l.17-.433zm-16.07 6.693a.523.523 0 0 1 .974 0l.17.432c.054.136.16.243.295.296l.431.171a.526.526 0 0 1 0 .978l-.43.17a.525.525 0 0 0-.296.297l-.17.432a.523.523 0 0 1-.974 0l-.17-.432a.525.525 0 0 0-.295-.296l-.431-.171a.526.526 0 0 1 0-.978l.43-.17a.525.525 0 0 0 .296-.297l.17-.432z"/></svg>