<svg xmlns="http://www.w3.org/2000/svg" width="120" height="40" fill="none"><g clip-path="url(#a)"><path fill="#575F75" d="M22.15 33.008 44.914 9.711l-6.475 23.623h-16.29"/><path fill="#6D7792" d="M38.32 33.008 15.556 9.711l6.475 23.623H38.32"/><path fill="#A7ADBE" d="M33.65 10.33a3.157 3.157 0 1 0-6.234-1.01 3.157 3.157 0 0 0 6.234 1.01z"/></g><path fill="#575F75" d="M100.394 26.992c-1.239 0-2.245-.279-3.02-.836-.774-.558-1.244-1.341-1.412-2.35l2.286-.354c.118.496.378.886.78 1.17.403.286.91.428 1.524.428.539 0 .954-.105 1.245-.316.297-.217.446-.51.446-.882 0-.23-.056-.412-.167-.549-.106-.142-.341-.278-.706-.408a22.4 22.4 0 0 0-1.682-.493c-.842-.223-1.511-.461-2.007-.715-.495-.26-.852-.567-1.068-.92-.217-.353-.325-.78-.325-1.282 0-.626.164-1.17.492-1.635.328-.465.787-.82 1.375-1.069.588-.254 1.282-.38 2.081-.38.781 0 1.471.12 2.072.362.607.241 1.096.585 1.468 1.031.372.446.601.97.687 1.57l-2.285.409a1.441 1.441 0 0 0-.585-1.013c-.329-.248-.768-.387-1.32-.418-.526-.03-.95.05-1.272.242-.323.186-.484.449-.484.79 0 .191.065.356.196.492.13.136.39.272.78.409.396.136.985.303 1.765.501.799.205 1.437.44 1.914.706.483.26.83.573 1.041.939.216.365.325.808.325 1.328 0 1.01-.369 1.803-1.106 2.379-.731.576-1.743.864-3.038.864zM88.651 27c-.743 0-1.356-.123-1.84-.37a3.25 3.25 0 0 1-1.151-.949 4.127 4.127 0 0 1-.632-1.226 6.558 6.558 0 0 1-.27-1.226c-.037-.39-.055-.706-.055-.948v-5.602h2.267v4.83c0 .31.021.66.065 1.05.043.385.142.756.297 1.116.161.353.396.644.706.873.316.23.74.344 1.273.344.285 0 .567-.047.845-.14.279-.093.53-.25.753-.473.229-.23.412-.542.548-.939.136-.396.204-.898.204-1.505l1.329.567c0 .854-.167 1.629-.502 2.322a3.95 3.95 0 0 1-1.458 1.663c-.645.41-1.437.614-2.379.614zm3.28-.287V23.6h-.27v-6.92h2.249v10.034h-1.98zm-18.446 0 3.67-5.073-3.596-4.961h2.639l2.257 3.205 2.22-3.205h2.64l-3.596 4.961 3.688 5.073H80.77l-2.314-3.317-2.332 3.317h-2.638zm-5.139.279c-1.016 0-1.907-.22-2.675-.66a4.698 4.698 0 0 1-1.803-1.83c-.427-.78-.64-1.679-.64-2.694 0-1.097.21-2.047.63-2.853a4.616 4.616 0 0 1 1.757-1.886c.75-.446 1.616-.669 2.601-.669 1.04 0 1.923.245 2.648.734.73.483 1.273 1.168 1.626 2.054.353.885.486 1.929.4 3.13h-2.221v-.817c-.006-1.09-.198-1.886-.576-2.388-.378-.501-.972-.752-1.784-.752-.917 0-1.598.285-2.044.854-.446.564-.669 1.391-.669 2.481 0 1.016.223 1.802.67 2.36.445.557 1.095.836 1.95.836.551 0 1.025-.12 1.422-.362.402-.248.712-.604.929-1.069l2.21.67a4.471 4.471 0 0 1-1.783 2.108 4.88 4.88 0 0 1-2.648.753zm-3.456-4.673v-1.691h6.903v1.69H64.89zm-14.443 4.394V13.334h2.267l6.206 9.43v-9.43h2.267v13.379H58.92l-6.206-9.43v9.43h-2.267z"/><defs><clipPath id="a"><path fill="#fff" d="M15.556 6.667h29.358v26.667H15.556z"/></clipPath></defs></svg>