<svg xmlns="http://www.w3.org/2000/svg" width="120" height="40" fill="none"><g fill="#575F75" clip-path="url(#a)"><path d="M23.063 33.26c-.051.039-.126-.008-.127-.07-.174-8.93-7.047-16.782-17.037-17.198-.13-.006-.209-.167-.116-.26 2.958-2.958 5.916-5.916 8.867-8.882.168-.168.314-.22.541-.16 7.784 2.006 13.348 6.538 16.211 14.153.36.952.571 1.962.835 2.95.03.11-.015.3-.095.381a4861.95 4861.95 0 0 1-9.08 9.087z"/><path d="M5.688 20c.724-.76 1.45-1.544 2.21-2.299.11-.11.389-.102.572-.065 1.64.307 3.192.893 4.657 1.691 4.451 2.453 7.124 6.209 8.171 11.159.059.278.007.468-.198.68-.703.689-1.384 1.406-2.08 2.117-.014.014-.036.022-.087.05-.154-3.623-1.281-6.845-3.91-9.408-2.614-2.548-5.806-3.741-9.335-3.924z"/><path d="M14.891 33.319c-.19-6.026-5.023-9.211-9.335-9.3.117-.124.19-.219.278-.307.6-.585 1.215-1.164 1.801-1.772.242-.256.469-.315.798-.22 4.342 1.224 7.242 3.94 8.648 8.253.22.688.175 1.164-.41 1.64-.63.505-1.18 1.12-1.78 1.706z"/><path d="M10.879 33.26c-.183-3.067-2.446-5.044-5.309-5.235.08-.095.147-.175.213-.249.63-.615 1.259-1.222 1.881-1.845.161-.168.3-.19.513-.11 2.446.886 4.042 2.607 4.942 5.009.037.088.022.256-.036.315-.74.717-1.48 1.42-2.204 2.116z"/></g><path fill="#575F75" d="M113.914 26.396v-5.478c0-.618-.153-1.1-.459-1.444-.306-.351-.721-.526-1.244-.526-.323 0-.613.075-.869.225a1.536 1.536 0 0 0-.609.652c-.151.283-.226.623-.226 1.018l-.893-.526c-.006-.623.133-1.172.417-1.645.29-.479.679-.852 1.169-1.119s1.036-.4 1.637-.4c.996 0 1.759.3 2.288.901.534.596.801 1.38.801 2.355v5.987h-2.012zm-10.847 0v-9.018h1.779v2.797h.25v6.221h-2.029zm5.436 0v-5.453c0-.629-.153-1.119-.459-1.47-.306-.35-.724-.525-1.253-.525-.512 0-.924.175-1.236.526-.306.35-.459.807-.459 1.37l-.902-.602c0-.585.145-1.11.434-1.578a3.1 3.1 0 0 1 1.169-1.103 3.39 3.39 0 0 1 1.662-.409c.674 0 1.236.145 1.687.435.456.284.796.673 1.019 1.169.228.49.342 1.043.342 1.661v5.98h-2.004zm-12.492.259c-.668 0-1.219-.111-1.653-.334a2.92 2.92 0 0 1-1.035-.852 3.704 3.704 0 0 1-.568-1.102 5.9 5.9 0 0 1-.242-1.102 9.386 9.386 0 0 1-.05-.852v-5.035H94.5v4.342c0 .279.02.593.058.944.04.345.128.679.268 1.002.144.317.356.579.634.785.284.206.665.309 1.144.309.256 0 .51-.042.76-.126.25-.083.476-.225.676-.425.206-.206.37-.488.493-.844s.184-.807.184-1.353l1.194.51c0 .768-.15 1.464-.451 2.087a3.55 3.55 0 0 1-1.311 1.495c-.579.367-1.291.551-2.138.551zm2.948-.259V23.6h-.242v-6.221h2.021v9.018h-1.779zm-13 0v-9.018h1.778v2.196l-.217-.284c.111-.3.259-.574.443-.819a2.45 2.45 0 0 1 .676-.617 2.8 2.8 0 0 1 .735-.351c.273-.09.55-.142.835-.159.284-.022.56-.011.826.034v1.878a2.581 2.581 0 0 0-.926-.075 2.124 2.124 0 0 0-.936.293 2.1 2.1 0 0 0-.684.576 2.42 2.42 0 0 0-.385.801 3.515 3.515 0 0 0-.125.96v4.585h-2.02zm-1.939 0a8.218 8.218 0 0 1-1.754.142 4.017 4.017 0 0 1-1.528-.308 2.118 2.118 0 0 1-1.028-.944 2.69 2.69 0 0 1-.325-1.194 50.942 50.942 0 0 1-.017-1.378v-7.841h2.004v7.724c0 .362.003.68.009.952.01.273.07.495.175.668.2.334.52.52.96.56.44.038.941.016 1.503-.067v1.686zm-6.289-7.44v-1.578h6.288v1.578h-6.288zm-4.687 7.69c-.93 0-1.723-.206-2.38-.618a4.115 4.115 0 0 1-1.511-1.703c-.346-.718-.521-1.53-.527-2.438.006-.925.187-1.743.543-2.455a4.096 4.096 0 0 1 1.537-1.687c.662-.412 1.45-.618 2.363-.618 1.024 0 1.89.259 2.597.777.712.512 1.177 1.213 1.394 2.104l-2.004.543c-.156-.485-.415-.86-.776-1.128a2 2 0 0 0-1.236-.409c-.523 0-.955.125-1.294.376-.34.245-.59.584-.752 1.019a4.22 4.22 0 0 0-.242 1.478c0 .857.192 1.55.576 2.079.384.529.955.793 1.712.793.534 0 .955-.122 1.26-.367.313-.245.546-.599.702-1.06l2.054.459c-.278.918-.765 1.625-1.461 2.12-.696.49-1.548.735-2.555.735zm-9.863 0c-.913 0-1.714-.197-2.405-.593a4.222 4.222 0 0 1-1.62-1.645c-.384-.701-.576-1.508-.576-2.421 0-.985.19-1.84.568-2.564a4.148 4.148 0 0 1 1.578-1.695c.674-.4 1.453-.601 2.338-.601.935 0 1.729.22 2.38.66.657.434 1.144 1.049 1.461 1.845.318.796.437 1.734.36 2.814h-1.996v-.735c-.006-.98-.178-1.695-.518-2.146-.34-.45-.874-.676-1.603-.676-.824 0-1.437.256-1.837.768-.401.507-.602 1.25-.602 2.23 0 .913.2 1.62.602 2.12.4.502.985.752 1.753.752.496 0 .922-.108 1.278-.326.362-.222.64-.542.835-.96l1.987.601a4.028 4.028 0 0 1-1.603 1.896 4.386 4.386 0 0 1-2.38.676zm-3.106-4.2v-1.52h6.204v1.52h-6.204zm-6.952 4.2c-.88 0-1.617-.208-2.212-.626-.596-.417-1.044-.985-1.345-1.703-.3-.724-.45-1.534-.45-2.43 0-.908.15-1.72.45-2.439.3-.718.74-1.283 1.32-1.695.584-.417 1.305-.626 2.162-.626.852 0 1.59.209 2.213.626a4.101 4.101 0 0 1 1.461 1.695c.346.713.518 1.526.518 2.439 0 .901-.17 1.712-.51 2.43a4.145 4.145 0 0 1-1.435 1.703c-.618.418-1.342.626-2.172.626zm-4.35 3.758V17.378h1.779v6.329h.25v6.697h-2.03zm4.041-5.561c.524 0 .955-.131 1.295-.393.34-.261.59-.615.751-1.06a4.3 4.3 0 0 0 .25-1.503 4.21 4.21 0 0 0-.25-1.487 2.287 2.287 0 0 0-.776-1.069c-.35-.267-.796-.4-1.336-.4-.512 0-.93.125-1.253.375-.323.245-.562.59-.718 1.036-.15.44-.225.955-.225 1.545 0 .584.075 1.1.225 1.544.156.446.398.794.727 1.044.334.245.77.368 1.31.368zm-10.55 1.804c-.88 0-1.672-.153-2.38-.46a4.493 4.493 0 0 1-1.736-1.31c-.451-.574-.738-1.253-.86-2.038l2.087-.317c.178.712.543 1.263 1.094 1.653.557.39 1.197.584 1.92.584.43 0 .833-.066 1.211-.2.379-.134.685-.328.919-.584.24-.257.36-.571.36-.944 0-.167-.029-.32-.084-.46a1.094 1.094 0 0 0-.25-.383 1.552 1.552 0 0 0-.419-.301 2.84 2.84 0 0 0-.584-.242l-3.106-.919a8.743 8.743 0 0 1-.869-.309 3.744 3.744 0 0 1-.877-.542 2.791 2.791 0 0 1-.676-.886c-.172-.361-.259-.807-.259-1.336 0-.773.195-1.422.585-1.945.395-.53.924-.924 1.586-1.186.668-.262 1.409-.39 2.221-.384.824.005 1.56.147 2.205.426a4.17 4.17 0 0 1 1.62 1.194c.434.523.74 1.155.919 1.895l-2.163.376a2.35 2.35 0 0 0-.518-1.077c-.25-.3-.56-.529-.927-.685a3.118 3.118 0 0 0-2.28-.067c-.34.123-.615.301-.826.535a1.2 1.2 0 0 0-.31.818c0 .295.09.537.268.727.178.183.398.33.66.442.267.106.537.195.81.267l2.154.602c.295.078.626.183.994.317.367.134.72.32 1.06.56.34.239.618.553.835.943.223.39.334.885.334 1.486 0 .624-.13 1.172-.392 1.645a3.445 3.445 0 0 1-1.044 1.17c-.44.311-.944.545-1.511.7a6.596 6.596 0 0 1-1.77.235z"/><defs><clipPath id="a"><path fill="#fff" d="M5.556 6.667h26.689v26.667H5.556z"/></clipPath></defs></svg>