<svg xmlns="http://www.w3.org/2000/svg" width="346" height="403" fill="none"><g clip-path="url(#a)" opacity=".6"><path fill="url(#b)" fill-opacity=".1" fill-rule="evenodd" d="m-28 402.707-402-402 .707-.707 402 402-.707.707zm6 0-402-402 .707-.707 402 402-.707.707zm-396-402 402 402 .707-.707-402-402-.707.707zm408 402-402-402 .707-.707 402 402-.707.707zm-396-402 402 402 .707-.707-402-402-.707.707zm408 402-402-402 .707-.707 402 402-.707.707zm-396-402 402 402 .707-.707-402-402-.707.707zm408 402-402-402 .707-.707 402 402-.707.707zm-396-402 402 402 .707-.707-402-402-.707.707zm408 402-402-402 .707-.707 402 402-.707.707zm-396-402 402 402 .707-.707-402-402-.707.707zm408 402-402-402 .707-.707 402 402-.707.707zm-396-402 402 402 .707-.707-402-402-.707.707zm408 402-402-402 .707-.707 402 402-.707.707zm-396-402 402 402 .707-.707-402-402-.707.707zm408 402-402-402 .707-.707 402 402-.707.707zm-396-402 402 402 .707-.707-402-402-.707.707zm408 402-402-402 .707-.707 402 402-.707.707zm-396-402 402 402 .707-.707-402-402-.707.707zm408 402-402-402 .707-.707 402 402-.707.707zm-396-402 402 402 .707-.707-402-402-.707.707zm408 402-402-402 .707-.707 402 402-.707.707zm-396-402 402 402 .707-.707-402-402-.707.707zm408 402-402-402 .707-.707 402 402-.707.707zm-396-402 402 402 .707-.707-402-402-.707.707zm408 402-402-402 .707-.707 402 402-.707.707zm-396-402 402 402 .707-.707-402-402-.707.707zm408 402-402-402 .707-.707 402 402-.707.707zm-396-402 402 402 .707-.707-402-402-.707.707zm408 402-402-402 .707-.707 402 402-.707.707zm-396-402 402 402 .707-.707-402-402-.707.707zm408 402-402-402 .707-.707 402 402-.707.707zm-396-402 402 402 .707-.707-402-402-.707.707zm408 402-402-402 .707-.707 402 402-.707.707zm-396-402 402 402 .707-.707-402-402-.707.707zm408 402-402-402 .707-.707 402 402-.707.707zm-396-402 402 402 .707-.707-402-402-.707.707zm408 402-402-402 .707-.707 402 402-.707.707zm-396-402 402 402 .707-.707-402-402-.707.707zm408 402-402-402 .707-.707 402 402-.707.707zm-396-402 402 402 .707-.707-402-402-.707.707zm408 402-402-402 .707-.707 402 402-.707.707zm-396-402 402 402 .707-.707-402-402-.707.707zm408 402-402-402 .707-.707 402 402-.707.707zm-396-402 402 402 .707-.707-402-402-.707.707zm408 402-402-402 .707-.707 402 402-.707.707zm-396-402 402 402 .707-.707-402-402-.707.707zm408 402-402-402 .707-.707 402 402-.707.707zm-396-402 402 402 .707-.707-402-402-.707.707zm408 402-402-402 .707-.707 402 402-.707.707zm-396-402 402 402 .707-.707-402-402-.707.707zm408 402-402-402 .707-.707 402 402-.707.707zm-396-402 402 402 .707-.707-402-402-.707.707zm408 402-402-402 .707-.707 402 402-.707.707zm-396-402 402 402 .707-.707-402-402-.707.707zm408 402-402-402 .707-.707 402 402-.707.707zm-396-402 402 402 .707-.707-402-402-.707.707zm408 402-402-402 .707-.707 402 402-.707.707zm-396-402 402 402 .707-.707-402-402-.707.707zm408 402-402-402 .707-.707 402 402-.707.707zm-396-402 402 402 .707-.707-402-402-.707.707zm408 402-402-402 .707-.707 402 402-.707.707zm-396-402 402 402 .707-.707-402-402-.707.707zm408 402-402-402 .707-.707 402 402-.707.707zm-396-402 402 402 .707-.707-402-402-.707.707zm408 402-402-402 .707-.707 402 402-.707.707zm-396-402 402 402 .707-.707-402-402-.707.707zm408 402-402-402 .707-.707 402 402-.707.707zm-396-402 402 402 .707-.707-402-402-.707.707zm408 402-402-402 .707-.707 402 402-.707.707zm-396-402 402 402 .707-.707-402-402-.707.707zm408 402L-4 .707-3.293 0l402 402-.707.707zM2 .707l402 402 .707-.707-402-402L2 .707zm408 402L8 .707 8.707 0l402 402-.707.707zM14 .707l402 402 .707-.707-402-402L14 .707zm408 402L20 .707 20.707 0l402 402-.707.707zM26 .707l402 402 .707-.707-402-402L26 .707zm408 402L32 .707 32.707 0l402 402-.707.707zM38 .707l402 402 .707-.707-402-402L38 .707zm408 402L44 .707 44.707 0l402 402-.707.707zM50 .707l402 402 .707-.707-402-402L50 .707zm408 402L56 .707 56.707 0l402 402-.707.707zM62 .707l402 402 .707-.707-402-402L62 .707zm408 402L68 .707 68.707 0l402 402-.707.707zM74 .707l402 402 .707-.707-402-402L74 .707zm408 402L80 .707 80.707 0l402 402-.707.707zM86 .707l402 402 .707-.707-402-402L86 .707zm408 402L92 .707 92.707 0l402 402-.707.707zM98 .707l402 402 .707-.707-402-402L98 .707zm408 402-402-402 .707-.707 402 402-.707.707zm-396-402 402 402 .707-.707-402-402-.707.707zm408 402-402-402 .707-.707 402 402-.707.707zm-396-402 402 402 .707-.707-402-402-.707.707zm408 402-402-402 .707-.707 402 402-.707.707zm-396-402 402 402 .707-.707-402-402-.707.707zm408 402-402-402 .707-.707 402 402-.707.707zm-396-402 402 402 .707-.707-402-402-.707.707zm408 402-402-402 .707-.707 402 402-.707.707zm-396-402 402 402 .707-.707-402-402-.707.707zm408 402-402-402 .707-.707 402 402-.707.707zm-396-402 402 402 .707-.707-402-402-.707.707zm408 402-402-402 .707-.707 402 402-.707.707zm-396-402 402 402 .707-.707-402-402-.707.707zm408 402-402-402 .707-.707 402 402-.707.707zm-396-402 402 402 .707-.707-402-402-.707.707zm408 402-402-402 .707-.707 402 402-.707.707zm-396-402 402 402 .707-.707-402-402-.707.707zm408 402-402-402 .707-.707 402 402-.707.707zm-396-402 402 402 .707-.707-402-402-.707.707zm408 402-402-402 .707-.707 402 402-.707.707zm-396-402 402 402 .707-.707-402-402-.707.707zm408 402-402-402 .707-.707 402 402-.707.707zm-396-402 402 402 .707-.707-402-402-.707.707zm408 402-402-402 .707-.707 402 402-.707.707zm-396-402 402 402 .707-.707-402-402-.707.707zm408 402-402-402 .707-.707 402 402-.707.707zm-396-402 402 402 .707-.707-402-402-.707.707zm408 402-402-402 .707-.707 402 402-.707.707zm-396-402 402 402 .707-.707-402-402-.707.707zm408 402-402-402 .707-.707 402 402-.707.707zm-396-402 402 402 .707-.707-402-402-.707.707zm408 402-402-402 .707-.707 402 402-.707.707zm-396-402 402 402 .707-.707-402-402-.707.707zm408 402-402-402 .707-.707 402 402-.707.707zm-396-402 402 402 .707-.707-402-402-.707.707zm408 402-402-402 .707-.707 402 402-.707.707zm-396-402 402 402 .707-.707-402-402-.707.707zm408 402-402-402 .707-.707 402 402-.707.707zm-396-402 402 402 .707-.707-402-402-.707.707zm408 402-402-402 .707-.707 402 402-.707.707zm-396-402 402 402 .707-.707-402-402-.707.707zm408 402-402-402 .707-.707 402 402-.707.707zm-396-402 402 402 .707-.707-402-402-.707.707zm408 402-402-402 .707-.707 402 402-.707.707zm-396-402 402 402 .707-.707-402-402-.707.707z" clip-rule="evenodd"/></g><defs><linearGradient id="b" x1="173.354" x2="173.354" y1="0" y2="402.707" gradientUnits="userSpaceOnUse"><stop stop-color="#fff"/><stop offset=".706" stop-color="#fff" stop-opacity="0"/></linearGradient><clipPath id="a"><path fill="#fff" d="M0 0h346v403H0z"/></clipPath></defs></svg>