<svg xmlns="http://www.w3.org/2000/svg" width="102" height="34" fill="none"><g fill="#575F75" clip-path="url(#a)"><path d="m22.413 22.43-.105-.022.001.002c.035.008.07.014.104.02zm11.939-5.432a11.381 11.381 0 0 0-5.156-4.644c-.757-.34-1.56-.6-2.397-.766l.004.003h.002c.075.05.148.1.22.153a9.125 9.125 0 0 1 .48.357l.02.015.16.127.026.022.008.007a11.142 11.142 0 0 1 1.399 1.368c.057.065.111.132.166.197l.023.027a4.391 4.391 0 0 1 .188.238 3.853 3.853 0 0 1 .152.2c.048.064.093.127.138.192.012.02.026.036.038.054.002.002.004.008.008.01l.126.188a.03.03 0 0 1 .004.007l.027.137a3.83 3.83 0 0 0-.025-.134 14.876 14.876 0 0 1 .337.54c.044.074.087.148.127.224l.013.022c.03.052.056.103.083.155.042.077.08.155.12.233.045.088.089.175.129.263.01.02.019.037.027.057.032.07.064.139.094.21a11.363 11.363 0 0 1 .583 7.465 11.256 11.256 0 0 1-2.252 4.36 11.313 11.313 0 0 0 5.665-.943 11.291 11.291 0 0 0 .947-5.667A11.238 11.238 0 0 0 34.346 17l.006-.002zm-19.593.001a11.381 11.381 0 0 0 5.463 4.775l.016.008.203.082c.004.001.01.002.013.004.09.034.18.07.27.101h.002c.048.019.099.036.148.052.067.024.134.045.2.068.01.003.019.007.027.008.082.027.168.053.252.077l.061.019h.002c.09.025.178.052.27.075l.152.038.156.036c.103.024.207.046.31.067a11.373 11.373 0 0 1-3.163-3.164 11.142 11.142 0 0 1-1.153-2.244 11.367 11.367 0 0 1-.362-6.929 11.21 11.21 0 0 1 2.252-4.36 11.255 11.255 0 0 0-5.664.945 11.257 11.257 0 0 0-.945 5.669A11.287 11.287 0 0 0 14.757 17l.002-.001z"/><path d="M20.573 13.016a11.347 11.347 0 0 1 1.737-1.426c.712-.475 1.464-.86 2.244-1.155a11.375 11.375 0 0 1 6.93-.363 11.24 11.24 0 0 1 4.359 2.254 11.27 11.27 0 0 0-.947-5.67 11.312 11.312 0 0 0-5.665-.943 11.179 11.179 0 0 0-4.675 1.49 11.363 11.363 0 0 0-4.644 5.155 11.18 11.18 0 0 0-.77 2.402c.41-.616.887-1.201 1.43-1.744h.001zm8.884 7.995.088-.234a.08.08 0 0 1 .008-.023l.012-.037c.026-.072.052-.144.074-.218a5.33 5.33 0 0 0 .082-.262c.014-.047.029-.094.04-.14a8.62 8.62 0 0 0 .135-.521l.01-.038a6.06 6.06 0 0 0 .061-.292l-.002.004c0 .001-.002.001-.002.003l-.016.024c-.044.066-.09.132-.136.196-.052.076-.105.15-.158.222l-.01.011-.134.18c-.054.067-.104.132-.158.197a3.642 3.642 0 0 1-.112.135l-.006.008-.014.015a11.138 11.138 0 0 1-1.305 1.323c-.032.026-.061.054-.095.08a2.468 2.468 0 0 0-.094.08c-.003 0-.004.003-.008.006l-.027.023-.159.126-.02.015-.146.113a7.935 7.935 0 0 1-.333.244 6.29 6.29 0 0 1-.197.136c-.008.007-.015.01-.024.016 0 0 0 .002-.002.002s-.003 0-.004.002a.03.03 0 0 0-.008.007l-.226.145c-.026.019-.056.035-.084.054-.011.008-.022.013-.034.02-.048.032-.099.06-.148.089-.021.015-.044.027-.066.039-.084.049-.168.098-.252.143-.074.043-.149.082-.225.122a2.653 2.653 0 0 1-.196.097 3.738 3.738 0 0 1-.199.097c-.077.037-.152.071-.229.106a4.83 4.83 0 0 1-.197.084l-.177.075h-.007l-.2.08a11.387 11.387 0 0 1-6.926.362 11.258 11.258 0 0 1-4.359-2.254c-.032.338-.046.68-.046 1.026 0 1.655.353 3.227.991 4.643a11.284 11.284 0 0 0 5.667.945 11.253 11.253 0 0 0 4.676-1.49 11.375 11.375 0 0 0 4.9-5.786h-.003z"/></g><path fill="#575F75" d="M84.593 23.138c-.86 0-1.616-.186-2.266-.559a3.979 3.979 0 0 1-1.527-1.55c-.362-.661-.543-1.422-.543-2.282 0-.93.178-1.735.535-2.417a3.91 3.91 0 0 1 1.487-1.597c.635-.378 1.37-.567 2.204-.567.882 0 1.63.207 2.243.622.62.409 1.079.989 1.378 1.74.299.75.412 1.634.338 2.651h-1.881v-.692c-.005-.924-.168-1.598-.488-2.023-.32-.425-.824-.637-1.511-.637-.777 0-1.354.241-1.732.724-.377.477-.566 1.178-.566 2.101 0 .86.189 1.527.566 2 .378.471.93.707 1.653.707.467 0 .869-.102 1.204-.306.341-.21.604-.512.787-.905l1.874.566a3.797 3.797 0 0 1-1.511 1.787 4.134 4.134 0 0 1-2.244.637zm-2.927-3.959v-1.432h5.847v1.432h-5.847zm-7.032 3.723-3.085-8.5h1.897l2.14 6.163 2.133-6.163h1.905l-3.085 8.5h-1.905zm-6.553-.001V11.332h1.897v11.57H68.08zm-6.133.237c-.85 0-1.592-.191-2.227-.574a3.946 3.946 0 0 1-1.48-1.582c-.346-.677-.52-1.454-.52-2.33 0-.892.18-1.674.536-2.345a3.946 3.946 0 0 1 1.487-1.574c.635-.378 1.37-.567 2.204-.567.855 0 1.6.191 2.235.575a3.934 3.934 0 0 1 1.48 1.59c.351.671.527 1.445.527 2.321 0 .882-.178 1.66-.535 2.338a3.946 3.946 0 0 1-1.48 1.582c-.634.377-1.377.566-2.227.566zm0-1.779c.756 0 1.317-.251 1.684-.755.368-.504.551-1.154.551-1.952 0-.824-.186-1.48-.559-1.968-.372-.493-.93-.74-1.676-.74-.509 0-.929.116-1.26.347a1.993 1.993 0 0 0-.723.952c-.158.404-.236.874-.236 1.41 0 .823.186 1.481.558 1.975.378.488.932.732 1.661.732zm-9.849 1.543-3.085-8.5h1.896l2.141 6.163 2.133-6.163h1.905l-3.085 8.5h-1.905zm-11.506 0V11.568h7.32v1.78H42.49v2.793h4.478v1.779h-4.479v3.203h5.423v1.779h-7.32z"/><defs><clipPath id="a"><path fill="#fff" d="M13.223 5.666H35.89v22.667H13.223z"/></clipPath></defs></svg>