<svg xmlns="http://www.w3.org/2000/svg" width="120" height="40" fill="none"><g fill="#575F75" clip-path="url(#a)"><path d="M22.961 20.097c.444-.122.965-.152 1.428.04a5.334 5.334 0 0 1 1.004.538c.326.215.618.468.904.763a5.832 5.832 0 0 1 1.296 2.2 6.99 6.99 0 0 1 .287 2.915 8.362 8.362 0 0 1-1.03 3.154 3.154 3.154 0 0 1-1.51 1.33 2.94 2.94 0 0 1-.451.137 1.964 1.964 0 0 1-.439.05 1.65 1.65 0 0 1-.778-.172c-.453-.24-.66-.662-.684-1.117-.024-.459.125-.955.43-1.407.376-.567.635-1.19.769-1.817a4.838 4.838 0 0 0 .042-1.834 4.825 4.825 0 0 0-.234-.84 4.925 4.925 0 0 0-.169-.387 4.617 4.617 0 0 0-1.288-1.563c-.347-.277-.573-.569-.653-.824-.088-.26-.03-.49.197-.707a1.53 1.53 0 0 1 .382-.263 2.49 2.49 0 0 1 .497-.195v-.001zm-3.037 5.065c.325.321.612.755.681 1.256.027.189.04.372.047.562a5.435 5.435 0 0 1-.22 1.735 5.782 5.782 0 0 1-1.26 2.223 6.993 6.993 0 0 1-2.374 1.701c-.955.425-2.07.68-3.247.692a3.158 3.158 0 0 1-1.915-.646c-.512-.4-.827-.928-.846-1.44-.018-.51.245-.9.628-1.15a2.12 2.12 0 0 1 .657-.271 2.69 2.69 0 0 1 .777-.057 5.27 5.27 0 0 0 1.96-.24c.304-.096.593-.229.862-.371.135-.078.265-.158.389-.242.124-.082.243-.18.357-.273.227-.185.43-.404.61-.619a4.589 4.589 0 0 0 .466-.7c.263-.49.423-1.011.499-1.536.031-.223.085-.417.152-.579a1.45 1.45 0 0 1 .171-.318c.022-.03.042-.058.066-.084.183-.197.406-.272.709-.18a1.783 1.783 0 0 1 .416.2c.14.09.284.207.415.336v.001zm-5.897-.096c-.115.44-.349.905-.748 1.216a5.503 5.503 0 0 1-2.079.996 5.843 5.843 0 0 1-2.553.023 6.983 6.983 0 0 1-2.667-1.204c-.852-.617-1.62-1.46-2.221-2.475a3.12 3.12 0 0 1-.355-2.215 2.378 2.378 0 0 1 .24-.629c.14-.247.33-.447.543-.584.429-.27.898-.238 1.308-.033.207.103.395.251.562.432.087.091.168.19.241.298.072.107.137.223.201.346.299.61.707 1.15 1.183 1.578a4.87 4.87 0 0 0 1.568.952c.284.098.559.174.844.216.279.046.564.06.838.052a4.685 4.685 0 0 0 1.58-.339c.204-.081.405-.136.58-.157.085-.01.172-.02.25-.018.078 0 .147.012.215.024.268.06.445.22.517.529.066.276.047.624-.05.99l.003.002zm-2.867-5.164c-.445.122-.965.152-1.428-.04a5.326 5.326 0 0 1-1.004-.538 5.413 5.413 0 0 1-.904-.763 5.83 5.83 0 0 1-1.296-2.2 6.987 6.987 0 0 1-.287-2.915 8.36 8.36 0 0 1 1.03-3.154 3.154 3.154 0 0 1 1.51-1.33c.15-.06.303-.105.45-.137a1.96 1.96 0 0 1 .44-.05c.288 0 .55.052.778.172.453.24.659.662.684 1.117.024.46-.125.955-.43 1.407a5.29 5.29 0 0 0-.769 1.817 4.837 4.837 0 0 0-.042 1.834 4.804 4.804 0 0 0 .234.84c.051.133.107.262.168.387a4.62 4.62 0 0 0 1.288 1.563c.348.277.574.569.654.824.088.26.03.49-.197.707a1.55 1.55 0 0 1-.382.263 2.502 2.502 0 0 1-.497.195v.001zm3.036-5.064c-.325-.32-.611-.754-.68-1.255a5.227 5.227 0 0 1-.048-.563 5.382 5.382 0 0 1 .22-1.735 5.782 5.782 0 0 1 1.26-2.222 6.994 6.994 0 0 1 2.374-1.701 8.19 8.19 0 0 1 3.248-.695 3.158 3.158 0 0 1 1.914.646c.512.4.827.928.846 1.44.018.51-.244.9-.627 1.15-.19.121-.416.215-.658.271a2.69 2.69 0 0 1-.777.057 5.27 5.27 0 0 0-1.96.24 5.115 5.115 0 0 0-.862.371 6.074 6.074 0 0 0-.389.242c-.123.082-.243.18-.357.273a4.59 4.59 0 0 0-.61.619 4.618 4.618 0 0 0-.466.7 4.654 4.654 0 0 0-.499 1.536 2.401 2.401 0 0 1-.152.579 1.45 1.45 0 0 1-.171.318c-.022.03-.042.058-.065.084-.184.197-.408.273-.71.18a1.783 1.783 0 0 1-.416-.2 2.752 2.752 0 0 1-.415-.336v.001zm5.897.097c.115-.44.349-.905.748-1.216a5.502 5.502 0 0 1 2.08-.996 5.843 5.843 0 0 1 2.552-.023 6.982 6.982 0 0 1 2.667 1.204c.852.617 1.621 1.46 2.222 2.475a3.12 3.12 0 0 1 .354 2.215 2.52 2.52 0 0 1-.065.224 2.385 2.385 0 0 1-.177.405c-.14.247-.328.447-.542.584-.43.27-.898.238-1.308.033a1.977 1.977 0 0 1-.563-.432 2.332 2.332 0 0 1-.24-.298 3.503 3.503 0 0 1-.201-.346 5.195 5.195 0 0 0-1.184-1.578 4.857 4.857 0 0 0-1.567-.952 4.666 4.666 0 0 0-.844-.216 4.36 4.36 0 0 0-.839-.052 4.685 4.685 0 0 0-1.578.339 2.44 2.44 0 0 1-.58.157 1.85 1.85 0 0 1-.25.018c-.08 0-.149-.012-.216-.025-.268-.06-.445-.22-.517-.528-.066-.276-.047-.624.05-.99l-.002-.002z"/></g><path fill="#575F75" d="M115.787 26.947v-6.075c0-.686-.17-1.22-.509-1.602-.34-.39-.8-.584-1.38-.584-.358 0-.679.084-.963.25-.284.16-.509.402-.676.723-.167.315-.25.691-.25 1.13l-.991-.584c-.006-.691.148-1.3.463-1.824a3.38 3.38 0 0 1 1.297-1.241 3.726 3.726 0 0 1 1.815-.445c1.105 0 1.95.334 2.537 1 .593.661.889 1.532.889 2.612v6.64h-2.232zm-12.029 0V16.945h1.972v3.103h.278v6.899h-2.25zm6.028 0V20.9c0-.698-.169-1.241-.509-1.63-.339-.39-.803-.584-1.389-.584-.568 0-1.025.195-1.371.584-.339.389-.509.895-.509 1.518l-1-.666c0-.648.16-1.232.482-1.75a3.428 3.428 0 0 1 1.296-1.223 3.756 3.756 0 0 1 1.843-.454c.747 0 1.37.16 1.87.482.507.315.883.747 1.13 1.296.253.544.38 1.158.38 1.843v6.63h-2.223zm-13.853.287c-.741 0-1.352-.124-1.834-.37a3.238 3.238 0 0 1-1.148-.945 4.11 4.11 0 0 1-.63-1.223 6.543 6.543 0 0 1-.268-1.222 10.423 10.423 0 0 1-.056-.945v-5.584h2.26v4.816c0 .309.021.657.064 1.046.044.383.142.753.297 1.112.16.351.395.642.704.87.314.228.737.343 1.268.343.284 0 .565-.047.843-.14.278-.092.528-.25.75-.472.228-.228.41-.54.546-.935.136-.395.204-.895.204-1.5l1.324.565c0 .852-.166 1.623-.5 2.315a3.938 3.938 0 0 1-1.454 1.657c-.642.408-1.432.612-2.37.612zm3.269-.287v-3.103h-.269v-6.899h2.241v10.002h-1.972zm-9.17 0a9.123 9.123 0 0 1-1.945.157 4.452 4.452 0 0 1-1.695-.343c-.5-.222-.88-.57-1.139-1.046a2.982 2.982 0 0 1-.36-1.324c-.013-.451-.02-.96-.02-1.528v-8.696h2.223v8.566c0 .401.003.753.01 1.056.012.302.077.55.194.74.222.37.577.578 1.065.62a7.147 7.147 0 0 0 1.667-.073v1.87zm-6.973-8.252v-1.75h6.973v1.75h-6.973zm-3.565 8.252V22.13c0-.315-.022-.663-.065-1.046a3.618 3.618 0 0 0-.306-1.102 2.088 2.088 0 0 0-.704-.88c-.308-.229-.728-.343-1.259-.343a2.65 2.65 0 0 0-.843.14 1.935 1.935 0 0 0-.759.48c-.222.223-.401.532-.537.927-.136.389-.204.889-.204 1.5l-1.324-.565c0-.852.163-1.623.49-2.315a3.94 3.94 0 0 1 1.464-1.648c.642-.414 1.432-.62 2.37-.62.741 0 1.353.123 1.834.37a3.24 3.24 0 0 1 1.148.944c.284.383.494.79.63 1.223.136.432.222.842.26 1.231.043.383.064.695.064.936v5.584h-2.26zm-6.936 0V16.945h1.99v3.102h.27v6.9h-2.26zm-7.857.278c-.722 0-1.333-.136-1.833-.408-.5-.277-.88-.645-1.14-1.102a3.063 3.063 0 0 1-.379-1.509c0-.482.08-.914.24-1.296.161-.39.408-.723.742-1 .333-.285.765-.516 1.296-.695.401-.13.87-.247 1.408-.352.543-.105 1.13-.2 1.76-.287.635-.093 1.299-.192 1.99-.296l-.796.453c.006-.691-.148-1.2-.463-1.528-.315-.327-.846-.49-1.593-.49a2.9 2.9 0 0 0-1.306.314c-.42.21-.713.572-.88 1.084l-2.037-.64a3.785 3.785 0 0 1 1.408-2.036c.697-.513 1.636-.769 2.815-.769.89 0 1.67.145 2.343.435a2.91 2.91 0 0 1 1.51 1.426c.178.352.287.713.323 1.084.038.364.056.762.056 1.194v6.14h-1.954V24.78l.324.352c-.45.722-.978 1.253-1.583 1.593-.6.333-1.35.5-2.25.5zm.445-1.778c.506 0 .938-.09 1.296-.269a2.53 2.53 0 0 0 .852-.657c.216-.26.362-.503.436-.732a2.78 2.78 0 0 0 .194-.972c.019-.37.028-.67.028-.898l.685.203c-.673.105-1.25.198-1.732.278-.481.08-.895.158-1.24.232a7.913 7.913 0 0 0-.917.231c-.26.093-.479.2-.658.324a1.435 1.435 0 0 0-.417.426c-.092.16-.138.35-.138.565 0 .247.061.466.185.658.123.185.302.333.537.444.24.111.537.167.889.167zm-11.084 1.787c-.741 0-1.352-.124-1.834-.37a3.238 3.238 0 0 1-1.148-.945 4.11 4.11 0 0 1-.63-1.223 6.55 6.55 0 0 1-.269-1.222 10.423 10.423 0 0 1-.055-.945v-5.584h2.26v4.816c0 .309.021.657.064 1.046.044.383.142.753.297 1.112.16.351.395.642.703.87.315.228.738.343 1.27.343.283 0 .564-.047.842-.14.278-.092.528-.25.75-.472.228-.228.41-.54.546-.935.136-.395.204-.895.204-1.5l1.324.565c0 .852-.166 1.623-.5 2.315a3.938 3.938 0 0 1-1.454 1.657c-.642.408-1.432.612-2.37.612zm3.269-.287v-3.103h-.269v-6.899h2.241v10.002h-1.972zm-10.456.278-3.806-3.788 1.398-1.398 3.788 3.787-1.38 1.399zm-4.797 0c-1.333 0-2.475-.29-3.426-.87-.95-.587-1.683-1.402-2.195-2.445-.506-1.044-.76-2.254-.76-3.63 0-1.377.254-2.587.76-3.63.512-1.044 1.244-1.856 2.195-2.436.95-.587 2.093-.88 3.426-.88 1.334 0 2.476.293 3.427.88.956.58 1.688 1.392 2.194 2.435.513 1.044.769 2.254.769 3.63 0 1.377-.256 2.587-.769 3.63-.506 1.044-1.237 1.859-2.194 2.445-.951.58-2.093.87-3.427.87zm0-2.102c.895.006 1.64-.192 2.232-.593.599-.401 1.046-.966 1.343-1.695.302-.728.453-1.58.453-2.556 0-.975-.15-1.82-.453-2.537-.297-.722-.744-1.284-1.343-1.685-.593-.402-1.337-.608-2.232-.62-.895-.007-1.639.19-2.232.592-.592.401-1.04.966-1.342 1.695-.297.728-.445 1.58-.445 2.555 0 .976.148 1.825.445 2.547.296.716.74 1.275 1.333 1.676.599.401 1.346.608 2.241.62z"/><defs><clipPath id="a"><path fill="#fff" d="M3.333 6.667h27.453v26.667H3.333z"/></clipPath></defs></svg>