<svg xmlns="http://www.w3.org/2000/svg" width="120" height="40" fill="none"><g fill-rule="evenodd" clip-path="url(#a)" clip-rule="evenodd"><path fill="#A7ADBE" d="M28.485 18.202c-.65-3.608 2.078-6.48 5.45-6.311 2.366.12 4.78 1.808 4.805 4.805.014 2.121-1.39 4.05-2.94 4.66-.97.38-2.332.15-2.366-1.004-.028-1.049 1.006-1.145 1.794-1.722 2.829-2.064.64-6.83-3.3-5.806-2.01.524-3.535 2.573-3.438 5.378h-.005z"/><path fill="#6D7792" d="M22.491 24.138c-1.804-9.976 5.748-17.922 15.07-17.451 6.546.332 13.227 5.002 13.29 13.285.043 5.878-3.843 11.212-8.134 12.891-2.679 1.049-6.45.419-6.541-2.775-.087-2.906 2.775-3.17 4.959-4.758 7.82-5.714 1.775-18.903-9.13-16.065-5.56 1.448-9.778 7.114-9.514 14.873z"/><path fill="#575F75" d="M26.118 20.52c-1.116-6.21 3.579-11.155 9.385-10.866 4.074.206 8.234 3.112 8.273 8.273.029 3.655-2.39 6.98-5.06 8.023-1.67.654-4.017.26-4.074-1.727-.053-1.808 1.731-1.972 3.088-2.963 4.867-3.56 1.106-11.765-5.681-10-3.463.9-6.09 4.425-5.926 9.26h-.005z"/></g><path fill="#575F75" d="M94 26.99c-1.003 0-1.88-.227-2.629-.679a4.659 4.659 0 0 1-1.746-1.867c-.409-.799-.613-1.715-.613-2.75 0-1.052.21-1.975.631-2.768a4.658 4.658 0 0 1 1.756-1.858c.75-.446 1.617-.669 2.601-.669 1.01 0 1.889.226 2.638.678a4.643 4.643 0 0 1 1.747 1.877c.415.793.622 1.706.622 2.74 0 1.04-.21 1.96-.632 2.76a4.657 4.657 0 0 1-1.746 1.867c-.75.445-1.626.668-2.629.668zm0-2.1c.892 0 1.555-.297 1.988-.892.434-.594.65-1.362.65-2.304 0-.972-.22-1.746-.66-2.322C95.54 18.79 94.88 18.5 94 18.5c-.6 0-1.096.136-1.486.409-.384.266-.669.64-.855 1.124-.186.477-.279 1.03-.279 1.662 0 .973.22 1.75.66 2.332.446.576 1.1.864 1.96.864zm-9.121 1.82v-4.83c0-.316-.022-.665-.065-1.05a3.627 3.627 0 0 0-.307-1.105 2.096 2.096 0 0 0-.706-.882c-.31-.23-.73-.344-1.263-.344-.285 0-.567.046-.846.14a1.94 1.94 0 0 0-.761.482c-.223.223-.403.533-.54.93-.135.39-.204.891-.204 1.504l-1.328-.567c0-.854.164-1.628.493-2.322a3.952 3.952 0 0 1 1.467-1.653c.644-.415 1.437-.623 2.378-.623.743 0 1.357.124 1.84.372.483.247.867.563 1.151.947.285.384.496.793.632 1.227.137.433.223.845.26 1.235.044.384.065.697.065.938v5.602H84.88zm-6.958 0V13.335h1.997v7.041h.27v6.336H77.92zm-6.311.28c-1.035 0-1.917-.23-2.648-.688a4.577 4.577 0 0 1-1.681-1.895c-.384-.799-.58-1.703-.586-2.713.007-1.028.208-1.938.604-2.73a4.557 4.557 0 0 1 1.71-1.877c.736-.458 1.613-.688 2.628-.688 1.14 0 2.103.288 2.89.864.792.57 1.31 1.35 1.55 2.341l-2.229.604c-.173-.539-.461-.957-.864-1.254a2.224 2.224 0 0 0-1.374-.455c-.583 0-1.063.14-1.44.418-.378.272-.657.65-.837 1.133-.18.483-.269 1.031-.269 1.644 0 .954.214 1.725.641 2.314.427.588 1.062.882 1.904.882.595 0 1.063-.136 1.403-.409.347-.272.607-.666.78-1.18l2.286.511c-.31 1.022-.852 1.809-1.626 2.36-.774.545-1.722.817-2.843.817zm-15.225-.28V13.335h8.639v2.1h-6.4v3.297h5.285v2.1h-5.285v3.78h6.4v2.1h-8.64z"/><defs><clipPath id="a"><path fill="#fff" d="M22.222 6.667h28.629v26.667H22.222z"/></clipPath></defs></svg>