<svg xmlns="http://www.w3.org/2000/svg" width="380" height="367" fill="none"><g clip-path="url(#a)"><rect width="380" height="367" fill="url(#b)" rx="20"/><g clip-path="url(#c)"><path stroke="url(#d)" stroke-dasharray="0.99 0.99" stroke-opacity=".15" d="M26 208.862V-29.837m25 238.699V-29.837m25 238.699V-29.837m25 238.699V-29.837m25 238.699V-29.837m25 238.699V-29.837m25 238.699V-29.837m25 238.699V-29.837m-25 250.634V-17.902m75 226.764V-29.837m25 238.699V-29.837m25 238.699V-29.837m25 238.699V-29.837m25 238.699V-29.837m27 200.905H0m378-24.864H0m378-24.865H0m378-24.864H0M378 71.61H0m378-24.864H0M378 21.88H0M378-2.983H0m378-24.865H0"/><path fill="url(#e)" fill-opacity=".2" fill-rule="evenodd" d="m392 402.707 402-402-.707-.707-402 402 .707.707zm-6 0 402-402-.707-.707-402 402 .707.707zm396-402-402 402-.707-.707 402-402 .707.707zm-408 402 402-402-.707-.707-402 402 .707.707zm396-402-402 402-.707-.707 402-402 .707.707zm-408 402 402-402-.707-.707-402 402 .707.707zm396-402-402 402-.707-.707 402-402 .707.707zm-408 402 402-402-.707-.707-402 402 .707.707zm396-402-402 402-.707-.707 402-402 .707.707zm-408 402 402-402-.707-.707-402 402 .707.707zm396-402-402 402-.707-.707 402-402 .707.707zm-408 402 402-402-.707-.707-402 402 .707.707zm396-402-402 402-.707-.707 402-402 .707.707zm-408 402 402-402-.707-.707-402 402 .707.707zm396-402-402 402-.707-.707 402-402 .707.707zm-408 402 402-402-.707-.707-402 402 .707.707zm396-402-402 402-.707-.707 402-402 .707.707zm-408 402 402-402-.707-.707-402 402 .707.707zm396-402-402 402-.707-.707 402-402 .707.707zm-408 402 402-402-.707-.707-402 402 .707.707zm396-402-402 402-.707-.707 402-402 .707.707zm-408 402 402-402-.707-.707-402 402 .707.707zm396-402-402 402-.707-.707 402-402 .707.707zm-408 402 402-402-.707-.707-402 402 .707.707zm396-402-402 402-.707-.707 402-402 .707.707zm-408 402 402-402-.707-.707-402 402 .707.707zm396-402-402 402-.707-.707 402-402 .707.707zm-408 402 402-402-.707-.707-402 402 .707.707zm396-402-402 402-.707-.707 402-402 .707.707zm-408 402 402-402-.707-.707-402 402 .707.707zm396-402-402 402-.707-.707 402-402 .707.707zm-408 402 402-402-.707-.707-402 402 .707.707zm396-402-402 402-.707-.707 402-402 .707.707zm-408 402 402-402-.707-.707-402 402 .707.707zm396-402-402 402-.707-.707 402-402 .707.707zm-408 402 402-402-.707-.707-402 402 .707.707zm396-402-402 402-.707-.707 402-402 .707.707zm-408 402 402-402-.707-.707-402 402 .707.707zm396-402-402 402-.707-.707 402-402 .707.707zm-408 402 402-402-.707-.707-402 402 .707.707zm396-402-402 402-.707-.707 402-402 .707.707zm-408 402 402-402-.707-.707-402 402 .707.707zm396-402-402 402-.707-.707 402-402 .707.707zm-408 402 402-402-.707-.707-402 402 .707.707zm396-402-402 402-.707-.707 402-402 .707.707zm-408 402 402-402-.707-.707-402 402 .707.707zm396-402-402 402-.707-.707 402-402 .707.707zm-408 402 402-402-.707-.707-402 402 .707.707zm396-402-402 402-.707-.707 402-402 .707.707zm-408 402 402-402-.707-.707-402 402 .707.707zm396-402-402 402-.707-.707 402-402 .707.707zm-408 402 402-402-.707-.707-402 402 .707.707zm396-402-402 402-.707-.707 402-402 .707.707zm-408 402 402-402-.707-.707-402 402 .707.707zm396-402-402 402-.707-.707 402-402 .707.707zm-408 402 402-402-.707-.707-402 402 .707.707zm396-402-402 402-.707-.707 402-402 .707.707zm-408 402 402-402-.707-.707-402 402 .707.707zm396-402-402 402-.707-.707 402-402 .707.707zm-408 402 402-402-.707-.707-402 402 .707.707zm396-402-402 402-.707-.707 402-402 .707.707zm-408 402 402-402-.707-.707-402 402 .707.707zm396-402-402 402-.707-.707 402-402 .707.707zm-408 402 402-402-.707-.707-402 402 .707.707zm396-402-402 402-.707-.707 402-402 .707.707zm-408 402 402-402-.707-.707-402 402 .707.707zm396-402-402 402-.707-.707 402-402 .707.707zm-408 402 402-402-.707-.707-402 402 .707.707zm396-402-402 402-.707-.707 402-402 .707.707zm-408 402 402-402-.707-.707-402 402 .707.707zm396-402-402 402-.707-.707 402-402 .707.707zm-408 402 402-402-.707-.707-402 402 .707.707zm396-402-402 402-.707-.707 402-402 .707.707zm-408 402 402-402-.707-.707-402 402 .707.707zm396-402-402 402-.707-.707 402-402 .707.707zm-408 402 402-402-.707-.707-402 402 .707.707zm396-402-402 402-.707-.707 402-402 .707.707zm-408 402 402-402-.707-.707-402 402 .707.707zm396-402-402 402-.707-.707 402-402 .707.707zm-408 402 402-402-.707-.707-402 402 .707.707zm396-402-402 402-.707-.707 402-402 .707.707zm-408 402 402-402-.707-.707-402 402 .707.707zm396-402-402 402-.707-.707 402-402 .707.707zm-408 402 402-402-.707-.707-402 402 .707.707zm396-402-402 402-.707-.707 402-402 .707.707zm-408 402 402-402-.707-.707-402 402 .707.707zm396-402-402 402-.707-.707 402-402 .707.707zm-408 402 402-402-.707-.707-402 402 .707.707zm396-402-402 402-.707-.707 402-402 .707.707zm-408 402 402-402-.707-.707-402 402 .707.707zm396-402-402 402-.707-.707 402-402 .707.707zm-408 402 402-402-.707-.707-402 402 .707.707zm396-402-402 402-.707-.707 402-402 .707.707zm-408 402 402-402-.707-.707-402 402 .707.707zm396-402-402 402-.707-.707 402-402 .707.707zm-408 402 402-402-.707-.707-402 402 .707.707zm396-402-402 402-.707-.707 402-402 .707.707zm-408 402 402-402-.707-.707-402 402 .707.707zm396-402-402 402-.707-.707 402-402 .707.707zm-408 402 402-402-.707-.707-402 402 .707.707zm396-402-402 402-.707-.707 402-402 .707.707zm-408 402 402-402-.707-.707-402 402 .707.707zm396-402-402 402-.707-.707 402-402 .707.707zm-408 402 402-402-.707-.707-402 402 .707.707zm396-402-402 402-.707-.707 402-402 .707.707zm-408 402 402-402-.707-.707-402 402 .707.707zm396-402-402 402-.707-.707 402-402 .707.707zm-408 402 402-402-.707-.707-402 402 .707.707zm396-402-402 402-.707-.707 402-402 .707.707zm-408 402 402-402-.707-.707-402 402 .707.707zm396-402-402 402-.707-.707 402-402 .707.707zm-408 402 402-402-.707-.707-402 402 .707.707zm396-402-402 402-.707-.707 402-402 .707.707zm-408 402 402-402-.707-.707-402 402 .707.707zm396-402-402 402-.707-.707 402-402 .707.707zm-408 402 402-402-.707-.707-402 402 .707.707zm396-402-402 402-.707-.707 402-402L98 .707zm-408 402 402-402L91.293 0l-402 402 .707.707zm396-402-402 402-.707-.707 402-402L86 .707zm-408 402 402-402L79.293 0l-402 402 .707.707zm396-402-402 402-.707-.707 402-402L74 .707zm-408 402 402-402L67.293 0l-402 402 .707.707zm396-402-402 402-.707-.707 402-402L62 .707zm-408 402 402-402L55.293 0l-402 402 .707.707zm396-402-402 402-.707-.707 402-402L50 .707zm-408 402 402-402L43.293 0l-402 402 .707.707zm396-402-402 402-.707-.707 402-402L38 .707zm-408 402 402-402L31.293 0l-402 402 .707.707zm396-402-402 402-.707-.707 402-402L26 .707zm-408 402 402-402L19.293 0l-402 402 .707.707zm396-402-402 402-.707-.707 402-402L14 .707zm-408 402L8 .707 7.293 0l-402 402 .707.707zM2 .707l-402 402-.707-.707 402-402L2 .707zm-408 402 402-402L-4.707 0l-402 402 .707.707zm396-402-402 402-.707-.707 402-402 .707.707z" clip-rule="evenodd"/><g filter="url(#f)"><path fill="url(#g)" fill-opacity=".1" d="M23 33c0-6.627 5.373-12 12-12h310c6.627 0 12 5.373 12 12v111H23V33z"/><path stroke="url(#h)" stroke-opacity=".09" d="M23.5 33c0-6.351 5.149-11.5 11.5-11.5h310c6.351 0 11.5 5.149 11.5 11.5v110.5h-333V33z"/><mask id="i" fill="#fff"><path d="M23 21h334v41H23V21z"/></mask><path fill="#fff" fill-opacity=".02" d="M23 21h334v41H23V21z"/><path fill="#9AAFFE" fill-opacity=".07" d="M357 61H23v2h334v-2z" mask="url(#i)"/><path fill="#CCD8FF" d="M39.966 46v-9.8h3.542c.97 0 1.722.224 2.254.672.541.448.812 1.031.812 1.75 0 .541-.14.994-.42 1.358-.27.355-.611.607-1.022.756.383.121.714.303.994.546.28.243.5.527.658.854.159.327.238.69.238 1.092 0 .523-.121.994-.364 1.414a2.46 2.46 0 0 1-1.05.994c-.467.243-1.05.364-1.75.364h-3.892zm1.484-1.26h2.142c.625 0 1.101-.135 1.428-.406.336-.27.504-.681.504-1.232 0-.56-.177-.975-.532-1.246-.355-.27-.83-.406-1.428-.406H41.45v3.29zm0-4.522h1.946c.55 0 .966-.121 1.246-.364s.42-.583.42-1.022c0-.439-.14-.78-.42-1.022-.27-.243-.7-.364-1.288-.364H41.45v2.772zm10.086 5.95c-.682 0-1.284-.154-1.806-.462a3.273 3.273 0 0 1-1.232-1.288c-.29-.55-.434-1.18-.434-1.89 0-.737.144-1.377.434-1.918a3.106 3.106 0 0 1 1.218-1.26c.532-.308 1.143-.462 1.834-.462.672 0 1.26.15 1.764.448.504.29.896.686 1.176 1.19.289.504.434 1.078.434 1.722 0 .13-.005.243-.014.336 0 .093-.01.205-.028.336h-5.334c.028.392.126.742.294 1.05.168.299.396.537.686.714.289.168.62.252.994.252.4 0 .742-.089 1.022-.266.289-.187.504-.448.644-.784h1.54c-.122.42-.327.803-.616 1.148-.28.345-.635.62-1.064.826-.43.205-.934.308-1.512.308zm-1.974-4.298h3.85c-.02-.541-.21-.966-.574-1.274-.364-.317-.808-.476-1.33-.476-.467 0-.892.145-1.274.434-.383.29-.607.728-.672 1.316zM61.608 46v-8.554H58.71V36.2h7.28v1.246h-2.898V46h-1.484zm5.534 0v-9.8h1.484v3.85c.233-.373.56-.658.98-.854a2.96 2.96 0 0 1 1.316-.308c.802 0 1.451.257 1.946.77.504.504.756 1.26.756 2.268V46h-1.47v-3.892c0-.625-.14-1.106-.42-1.442-.28-.345-.696-.518-1.246-.518-.56 0-1.013.191-1.358.574-.336.373-.504.891-.504 1.554V46h-1.484zm11.163.168c-.681 0-1.283-.154-1.806-.462a3.274 3.274 0 0 1-1.232-1.288c-.29-.55-.434-1.18-.434-1.89 0-.737.145-1.377.434-1.918.29-.541.695-.961 1.218-1.26.532-.308 1.143-.462 1.834-.462.672 0 1.26.15 1.764.448.504.29.896.686 1.176 1.19.29.504.434 1.078.434 1.722 0 .13-.005.243-.014.336 0 .093-.01.205-.028.336h-5.334c.028.392.126.742.294 1.05.168.299.397.537.686.714.29.168.62.252.994.252.401 0 .742-.089 1.022-.266a1.67 1.67 0 0 0 .644-.784h1.54a3.12 3.12 0 0 1-.616 1.148c-.28.345-.635.62-1.064.826-.43.205-.933.308-1.512.308zm-1.974-4.298h3.85c-.019-.541-.21-.966-.574-1.274-.364-.317-.807-.476-1.33-.476-.467 0-.891.145-1.274.434-.383.29-.607.728-.672 1.316zM86.573 46v-9.8h6.076v1.246h-4.592v2.87h3.962v1.246h-3.962V46h-1.484zm8.137-8.162a.98.98 0 0 1-.7-.28.997.997 0 0 1-.28-.714c0-.27.094-.5.28-.686a.98.98 0 0 1 .7-.28.95.95 0 0 1 .7.28.91.91 0 0 1 .294.686c0 .28-.098.518-.294.714a.95.95 0 0 1-.7.28zM93.968 46v-6.944h1.484V46h-1.484zm3.17 0v-6.944h1.428l.042 1.176c.233-.42.55-.747.952-.98.41-.243.891-.364 1.442-.364v1.554h-.406c-.663 0-1.157.173-1.484.518-.327.336-.49.854-.49 1.554V46h-1.484zm7.693.168a3.822 3.822 0 0 1-1.484-.28 2.783 2.783 0 0 1-1.092-.826 2.336 2.336 0 0 1-.49-1.246h1.498c.066.336.238.611.518.826.28.215.63.322 1.05.322.374 0 .677-.08.91-.238a.774.774 0 0 0 .35-.658c0-.233-.079-.415-.238-.546a1.586 1.586 0 0 0-.588-.308 7.077 7.077 0 0 0-.77-.196 9.333 9.333 0 0 1-1.218-.378 2.388 2.388 0 0 1-.91-.616c-.233-.261-.35-.611-.35-1.05 0-.43.112-.798.336-1.106.234-.317.551-.56.952-.728a3.49 3.49 0 0 1 1.358-.252c.756 0 1.386.191 1.89.574.504.373.784.924.84 1.652h-1.428c-.037-.327-.177-.579-.42-.756-.233-.177-.536-.266-.91-.266-.345 0-.625.07-.84.21-.214.13-.322.331-.322.602 0 .187.075.345.224.476.15.121.341.224.574.308.243.075.495.145.756.21.476.103.901.229 1.274.378.374.15.672.36.896.63.224.27.341.644.35 1.12 0 .43-.121.807-.364 1.134a2.292 2.292 0 0 1-.966.742c-.401.177-.863.266-1.386.266zm6.631-.168c-.691 0-1.223-.168-1.596-.504-.373-.336-.56-.887-.56-1.652v-3.542h-1.05v-1.246h1.05v-1.68h1.484v1.68h1.764v1.246h-1.764v3.542c0 .355.079.593.238.714.159.121.406.182.742.182h.784V46h-1.092zm223.545-9.784a5.864 5.864 0 0 0-8.292.004 5.86 5.86 0 0 0 .004 8.29 5.864 5.864 0 0 0 8.288 0 5.825 5.825 0 0 0 .056-8.239l-.056-.055zm-1.287 7.008a4.046 4.046 0 1 1-5.723-5.723 4.046 4.046 0 0 1 5.724 5.723h-.001zm5.28 3.954a1.324 1.324 0 0 1-2.259.936l-2.436-2.436.144-.1a6.101 6.101 0 0 0 1.626-1.627l.1-.144 2.437 2.436a1.31 1.31 0 0 1 .388.935z"/></g><g clip-path="url(#j)"><rect width="37.135" height="123.18" x="59.121" y="181.819" fill="url(#k)" rx="6.34"/><path fill="url(#l)" fill-opacity=".3" fill-rule="evenodd" d="m261.1 518.488 364.107-364.106-.64-.641L260.46 517.848l.64.64zm-5.434 0 364.107-364.106-.641-.641-364.106 364.107.64.64zm358.672-364.106L250.232 518.488l-.641-.64 364.107-364.107.64.641zM244.797 518.488l364.107-364.106-.641-.641-364.106 364.107.64.64zm358.672-364.106L239.363 518.488l-.641-.64 364.107-364.107.64.641zM233.928 518.488l364.107-364.106-.641-.641-364.106 364.107.64.64zM592.6 154.382 228.494 518.488l-.641-.64L591.96 153.741l.64.641zM223.059 518.488l364.107-364.106-.64-.641-364.107 364.107.64.64zm358.673-364.106L217.625 518.488l-.64-.64 364.106-364.107.641.641zM212.191 518.488l364.106-364.106-.64-.641L211.55 517.848l.641.64zm358.672-364.106L206.756 518.488l-.64-.64 364.106-364.107.641.641zM201.322 518.488l364.106-364.106-.64-.641-364.107 364.107.641.64zm358.672-364.106L195.887 518.488l-.64-.64 364.106-364.107.641.641zM190.453 518.488l364.106-364.106-.64-.641-364.107 364.107.641.64zm358.672-364.106L185.018 518.488l-.64-.64 364.107-364.107.64.641zM179.584 518.488l364.107-364.106-.641-.641-364.106 364.107.64.64zm358.672-364.106L174.15 518.488l-.641-.64 364.107-364.107.64.641zM168.715 518.488l364.107-364.106-.641-.641-364.106 364.107.64.64zm358.672-364.106L163.281 518.488l-.641-.64 364.107-364.107.64.641zM157.846 518.488l364.107-364.106-.641-.641-364.106 364.107.64.64zm358.673-364.106L152.412 518.488l-.641-.64 364.107-364.107.641.641zM146.978 518.488l364.106-364.106-.64-.641-364.107 364.107.641.64zM505.65 154.382 141.543 518.488l-.64-.64 364.106-364.107.641.641zM136.109 518.488l364.106-364.106-.64-.641-364.107 364.107.641.64zm358.672-364.106L130.674 518.488l-.64-.64L494.14 153.741l.641.641zM125.24 518.488l364.106-364.106-.64-.641-364.107 364.107.641.64zm358.672-364.106L119.805 518.488l-.64-.64 364.106-364.107.641.641zM114.371 518.488l364.107-364.106-.641-.641L113.73 517.848l.641.64zm358.672-364.106L108.937 518.488l-.641-.64 364.107-364.107.64.641zM103.502 518.488l364.107-364.106-.641-.641-364.106 364.107.64.64zm358.672-364.106L98.068 518.488l-.64-.64 364.106-364.107.64.641zM92.634 518.488 456.74 154.382l-.641-.641L91.993 517.848l.64.64zm358.671-364.106L87.199 518.488l-.64-.64 364.106-364.107.64.641zM81.765 518.488 445.87 154.382l-.64-.641L81.124 517.848l.64.64zm358.672-364.106L76.33 518.488l-.64-.64 364.106-364.107.641.641zM70.895 518.488l364.107-364.106-.64-.641L70.255 517.848l.64.64zm358.673-364.106L65.461 518.488l-.64-.64 364.106-364.107.641.641zM60.027 518.488l364.106-364.106-.64-.641L59.386 517.848l.64.64zm358.672-364.106L54.592 518.488l-.64-.64 364.106-364.107.641.641zM49.158 518.488l364.106-364.106-.64-.641L48.517 517.848l.64.64zM407.83 154.382 43.723 518.488l-.64-.64L407.19 153.741l.64.641zM38.289 518.488l364.107-364.106-.641-.641L37.649 517.848l.64.64zM396.96 154.382 32.855 518.488l-.64-.64L396.32 153.741l.64.641zM27.421 518.488l364.106-364.106-.641-.641L26.78 517.848l.64.64zm358.671-364.106L21.986 518.488l-.64-.64 364.106-364.107.64.641zM16.552 518.488l364.106-364.106-.641-.641L15.911 517.848l.64.64zm358.671-364.106L11.117 518.488l-.64-.64 364.106-364.107.64.641zM5.683 518.488l364.106-364.106-.64-.641L5.042 517.848l.64.64zm358.672-364.106L.248 518.488l-.64-.64 364.106-364.107.641.641zM-5.186 518.488 358.92 154.382l-.64-.641L-5.827 517.848l.64.64zm358.672-364.106L-10.621 518.488l-.64-.64 364.106-364.107.641.641zM-16.055 518.488 348.05 154.382l-.64-.641-364.107 364.107.64.64zm358.672-364.106L-21.49 518.488l-.64-.64 364.106-364.107.641.641zM-26.924 518.488l364.106-364.106-.64-.641-364.107 364.107.64.64zm358.672-364.106L-32.359 518.488l-.64-.64 364.107-364.107.64.641zM-37.793 518.488l364.107-364.106-.641-.641-364.106 364.107.64.64zm358.672-364.106L-43.227 518.488l-.64-.64 364.106-364.107.64.641zm-369.54 364.106 364.106-364.106-.641-.641-364.106 364.107.64.64zM310.01 154.382-54.096 518.488l-.64-.64L309.37 153.741l.64.641zM-59.53 518.488l364.106-364.106-.641-.641-364.106 364.107.64.64zm358.67-364.106L-64.965 518.488l-.64-.64L298.5 153.741l.64.641zM-70.4 518.488l364.106-364.106-.64-.641L-71.04 517.848l.64.64zm358.672-364.106L-75.834 518.488l-.64-.64 364.106-364.107.641.641zm-369.54 364.106 364.106-364.106-.64-.641-364.107 364.107.64.64zm358.672-364.106L-86.703 518.488l-.64-.64 364.106-364.107.641.641zM-92.137 518.488l364.106-364.106-.64-.641-364.107 364.107.64.64zm358.672-364.106L-97.572 518.488l-.64-.64 364.106-364.107.641.641zm-369.541 364.106L261.1 154.382l-.64-.641-364.107 364.107.641.64zm358.672-364.106-364.107 364.106-.64-.64 364.107-364.107.64.641zm-369.541 364.106 364.107-364.106-.641-.641-364.106 364.107.64.64zm358.672-364.106-364.106 364.106-.641-.64 364.107-364.107.64.641zm-369.541 364.106 364.107-364.106-.641-.641-364.106 364.107.64.64zm358.672-364.106-364.106 364.106-.641-.64 364.107-364.107.64.641zm-369.541 364.106 364.107-364.106-.641-.641-364.106 364.107.64.64zm358.672-364.106-364.106 364.106-.641-.64 364.107-364.107.64.641zm-369.541 364.106 364.107-364.106-.64-.641-364.107 364.107.64.64zm358.673-364.106-364.107 364.106-.64-.64L211.55 153.741l.641.641zM-157.35 518.488l364.106-364.106-.64-.641-364.107 364.107.641.64zm358.672-364.106-364.107 364.106-.64-.64 364.106-364.107.641.641zm-369.541 364.106 364.106-364.106-.64-.641-364.107 364.107.641.64zm358.672-364.106-364.107 364.106-.64-.64 364.106-364.107.641.641zm-369.541 364.106 364.106-364.106-.64-.641-364.107 364.107.641.64zm358.672-364.106-364.107 364.106-.64-.64 364.107-364.107.64.641zm-369.541 364.106L174.15 154.382l-.641-.641-364.106 364.107.64.64zm358.672-364.106-364.106 364.106-.641-.64 364.107-364.107.64.641zm-369.541 364.106 364.107-364.106-.641-.641-364.106 364.107.64.64zm358.672-364.106L-206.26 518.488l-.641-.64 364.107-364.107.64.641zm-369.541 364.106 364.107-364.106-.64-.641-364.107 364.107.64.64zm358.673-364.106-364.107 364.106-.641-.64 364.107-364.107.641.641zm-369.541 364.106 364.106-364.106-.64-.641-364.107 364.107.641.64zm358.672-364.106-364.107 364.106-.64-.64 364.106-364.107.641.641zm-369.541 364.106 364.106-364.106-.64-.641-364.107 364.107.641.64zM125.24 154.382l-364.107 364.106-.64-.64 364.106-364.107.641.641zm-369.541 364.106 364.106-364.106-.64-.641-364.107 364.107.641.64zm358.672-364.106-364.107 364.106-.64-.64 364.107-364.107.64.641zM-255.17 518.488l364.107-364.106-.641-.641-364.107 364.107.641.64zm358.672-364.106-364.106 364.106-.641-.64 364.107-364.107.64.641zm-369.541 364.106L98.068 154.382l-.64-.641-364.107 364.107.64.64zM92.633 154.382l-364.106 364.106-.641-.64L91.993 153.741l.64.641zm-369.541 364.106L87.199 154.382l-.64-.641-364.107 364.107.64.64zM81.764 154.382l-364.106 364.106-.641-.64L81.124 153.741l.64.641zm-369.541 364.106L76.33 154.382l-.64-.641-364.107 364.107.64.64zM70.896 154.382l-364.107 364.106-.641-.64L70.255 153.741l.64.641zm-369.542 364.106L65.461 154.382l-.64-.641-364.107 364.107.64.64zM60.027 154.382-304.08 518.488l-.64-.64L59.386 153.741l.64.641zm-369.541 364.106L54.592 154.382l-.64-.641-364.107 364.107.641.64zM49.158 154.382-314.95 518.488l-.64-.64L48.517 153.741l.64.641zm-369.541 364.106L43.723 154.382l-.64-.641-364.107 364.107.641.64zM38.289 154.382l-364.107 364.106-.64-.64L37.649 153.741l.64.641zm-369.541 364.106L32.855 154.382l-.64-.641-364.108 364.107.641.64zM27.42 154.382l-364.106 364.106-.641-.64L26.78 153.741l.64.641zm-369.54 364.106L21.986 154.382l-.64-.641-364.107 364.107.64.64zM16.551 154.382l-364.106 364.106-.641-.64L15.911 153.741l.64.641zM-352.99 518.488 11.117 154.382l-.64-.641-364.107 364.107.64.64zM5.682 154.382l-364.106 364.106-.641-.64L5.042 153.741l.64.641zm-369.541 364.106L.248 154.382l-.64-.641L-364.5 517.848l.64.64zM-5.186 154.382l-364.107 364.106-.64-.64L-5.827 153.741l.64.641zm-369.541 364.106 364.106-364.106-.64-.641-364.107 364.107.641.64zm358.672-364.106-364.107 364.106-.64-.64 364.106-364.107.64.641zm-369.541 364.106L-21.49 154.382l-.64-.641-364.107 364.107.641.64zm358.672-364.106-364.107 364.106-.64-.64 364.106-364.107.64.641zm-369.541 364.106 364.106-364.106-.64-.641-364.107 364.107.641.64zm358.672-364.106L-401.9 518.488l-.64-.64 364.107-364.107.64.641zm-369.541 364.106 364.107-364.106-.64-.641-364.107 364.107.64.64zm358.672-364.106-364.106 364.106-.641-.64 364.107-364.107.64.641zm-369.541 364.106 364.107-364.106-.64-.641-364.107 364.107.64.64zm358.672-364.106-364.106 364.106-.641-.64 364.107-364.107.64.641zm-369.541 364.106 364.107-364.106-.64-.641-364.107 364.107.64.64zm358.673-364.106-364.107 364.106-.641-.64L-71.04 153.741l.64.641zm-369.542 364.106 364.107-364.106-.64-.641-364.107 364.107.64.64zm358.673-364.106-364.107 364.106-.64-.64 364.106-364.107.64.641zM-450.81 518.488l364.106-364.106-.64-.641-364.107 364.107.641.64zm358.672-364.106-364.107 364.106-.64-.64 364.106-364.107.64.641zm-369.541 364.106 364.106-364.106-.64-.641-364.107 364.107.641.64zm358.672-364.106-364.107 364.106-.64-.64 364.106-364.107.641.641z" clip-rule="evenodd"/></g><rect width="36.135" height="122.18" x="59.621" y="182.319" stroke="url(#m)" stroke-opacity=".2" rx="5.84"/><g clip-path="url(#n)"><rect width="37.135" height="178.43" x="114.371" y="126.569" fill="url(#o)" rx="6.34"/><path fill="url(#p)" fill-opacity=".3" fill-rule="evenodd" d="M316.35 491.316 680.457 127.21l-.64-.641L315.71 490.676l.64.64zm-5.434 0L675.023 127.21l-.641-.641-364.106 364.107.64.64zM669.588 127.21 305.482 491.316l-.641-.64 364.107-364.107.64.641zM300.047 491.316 664.154 127.21l-.641-.641-364.106 364.107.64.64zM658.719 127.21 294.613 491.316l-.641-.64 364.107-364.107.64.641zM289.178 491.316 653.285 127.21l-.641-.641-364.106 364.107.64.64zM647.85 127.21 283.744 491.316l-.641-.64L647.21 126.569l.64.641zM278.309 491.316 642.416 127.21l-.64-.641-364.107 364.107.64.64zM636.982 127.21 272.875 491.316l-.64-.64 364.106-364.107.641.641zM267.441 491.316 631.547 127.21l-.64-.641L266.8 490.676l.641.64zM626.113 127.21 262.006 491.316l-.64-.64 364.106-364.107.641.641zM256.572 491.316 620.678 127.21l-.64-.641-364.107 364.107.641.64zM615.244 127.21 251.137 491.316l-.64-.64 364.106-364.107.641.641zM245.703 491.316 609.809 127.21l-.64-.641-364.107 364.107.641.64zM604.375 127.21 240.268 491.316l-.64-.64 364.107-364.107.64.641zM234.834 491.316 598.941 127.21l-.641-.641-364.106 364.107.64.64zM593.506 127.21 229.4 491.316l-.641-.64 364.107-364.107.64.641zM223.965 491.316 588.072 127.21l-.641-.641-364.106 364.107.64.64zM582.637 127.21 218.531 491.316l-.641-.64 364.107-364.107.64.641zM213.096 491.316 577.203 127.21l-.641-.641-364.106 364.107.64.64zM571.769 127.21 207.662 491.316l-.641-.64 364.107-364.107.641.641zM202.228 491.316 566.334 127.21l-.64-.641-364.107 364.107.641.64zM560.9 127.21 196.793 491.316l-.64-.64 364.106-364.107.641.641zM191.359 491.316 555.465 127.21l-.64-.641-364.107 364.107.641.64zM550.031 127.21 185.924 491.316l-.64-.64L549.39 126.569l.641.641zM180.49 491.316 544.596 127.21l-.64-.641-364.107 364.107.641.64zM539.162 127.21 175.055 491.316l-.64-.64 364.106-364.107.641.641zM169.621 491.316 533.728 127.21l-.641-.641L168.98 490.676l.641.64zM528.293 127.21 164.187 491.316l-.641-.64 364.107-364.107.64.641zM158.752 491.316 522.859 127.21l-.641-.641-364.106 364.107.64.64zM517.424 127.21 153.318 491.316l-.641-.64 364.107-364.107.64.641zM147.883 491.316 511.99 127.21l-.641-.641-364.106 364.107.64.64zM506.555 127.21 142.449 491.316l-.641-.64 364.107-364.107.64.641zM137.014 491.316 501.121 127.21l-.64-.641-364.107 364.107.64.64zM495.687 127.21 131.58 491.316l-.641-.64 364.107-364.107.641.641zM126.146 491.316 490.252 127.21l-.64-.641-364.107 364.107.641.64zM484.818 127.21 120.711 491.316l-.64-.64 364.106-364.107.641.641zM115.277 491.316 479.383 127.21l-.64-.641-364.107 364.107.641.64zM473.949 127.21 109.842 491.316l-.64-.64 364.106-364.107.641.641zM104.408 491.316 468.514 127.21l-.64-.641-364.107 364.107.641.64zM463.08 127.21 98.973 491.316l-.64-.64L462.44 126.569l.64.641zM93.539 491.316 457.646 127.21l-.641-.641L92.899 490.676l.64.64zM452.21 127.21 88.105 491.316l-.64-.64L451.57 126.569l.64.641zM82.671 491.316 446.776 127.21l-.641-.641L82.03 490.676l.64.64zm358.67-364.106L77.236 491.316l-.64-.64 364.106-364.107.64.641zM71.802 491.316 435.907 127.21l-.641-.641L71.161 490.676l.64.64zm358.67-364.106L66.367 491.316l-.64-.64 364.106-364.107.64.641zM60.933 491.316 425.038 127.21l-.64-.641L60.292 490.676l.64.64zM419.604 127.21 55.498 491.316l-.64-.64 364.106-364.107.641.641zM50.063 491.316 414.17 127.21l-.64-.641L49.423 490.676l.64.64zM408.736 127.21 44.629 491.316l-.64-.64 364.106-364.107.641.641zM39.195 491.316 403.3 127.21l-.64-.641L38.554 490.676l.64.64zM397.867 127.21 33.76 491.316l-.64-.64 364.106-364.107.641.641zM28.326 491.316 392.432 127.21l-.64-.641L27.685 490.676l.64.64zM386.998 127.21 22.891 491.316l-.64-.64 364.107-364.107.64.641zM17.457 491.316 381.564 127.21l-.641-.641L16.817 490.676l.64.64zM376.129 127.21 12.023 491.316l-.64-.64 364.106-364.107.64.641zM6.589 491.316 370.694 127.21l-.641-.641L5.948 490.676l.64.64zM365.26 127.21 1.154 491.316l-.64-.64L364.62 126.569l.64.641zM-4.28 491.316 359.825 127.21l-.641-.641L-4.921 490.676l.64.64zM354.39 127.21-9.715 491.316l-.64-.64L353.75 126.569l.64.641zM-15.15 491.316 348.957 127.21l-.64-.641L-15.79 490.676l.64.64zM343.523 127.21-20.584 491.316l-.64-.64 364.106-364.107.641.641zM-26.018 491.316 338.088 127.21l-.64-.641-364.107 364.107.64.64zM332.654 127.21-31.453 491.316l-.64-.64 364.106-364.107.641.641zM-36.887 491.316 327.219 127.21l-.64-.641-364.107 364.107.64.64zM321.785 127.21-42.322 491.316l-.64-.64 364.106-364.107.641.641zM-47.756 491.316 316.35 127.21l-.64-.641-364.107 364.107.64.64zM310.916 127.21-53.191 491.316l-.64-.64 364.107-364.107.64.641zM-58.625 491.316 305.482 127.21l-.641-.641-364.106 364.107.64.64zM300.047 127.21-64.059 491.316l-.64-.64 364.106-364.107.64.641zm-369.54 364.106L294.612 127.21l-.641-.641-364.106 364.107.64.64zm358.67-364.106L-74.928 491.316l-.64-.64 364.106-364.107.64.641zm-369.54 364.106L283.743 127.21l-.641-.641-364.106 364.107.64.64zM278.308 127.21-85.797 491.316l-.64-.64 364.106-364.107.64.641zm-369.54 364.106L272.874 127.21l-.64-.641-364.107 364.107.64.64zM267.44 127.21-96.666 491.316l-.64-.64L266.8 126.569l.641.641zM-102.1 491.316 262.006 127.21l-.64-.641-364.107 364.107.641.64zM256.572 127.21l-364.107 364.106-.64-.64 364.106-364.107.641.641zm-369.541 364.106L251.137 127.21l-.64-.641-364.107 364.107.641.64zM245.703 127.21l-364.107 364.106-.64-.64 364.106-364.107.641.641zm-369.541 364.106L240.268 127.21l-.64-.641-364.107 364.107.641.64zM234.834 127.21l-364.107 364.106-.64-.64 364.107-364.107.64.641zm-369.541 364.106L229.4 127.21l-.641-.641-364.106 364.107.64.64zM223.965 127.21l-364.106 364.106-.641-.64 364.107-364.107.64.641zm-369.541 364.106L218.531 127.21l-.641-.641-364.106 364.107.64.64zM213.096 127.21-151.01 491.316l-.641-.64 364.107-364.107.64.641zm-369.541 364.106L207.662 127.21l-.64-.641-364.107 364.107.64.64zM202.228 127.21l-364.107 364.106-.641-.64 364.107-364.107.641.641zm-369.541 364.106L196.793 127.21l-.64-.641-364.107 364.107.641.64zM191.359 127.21l-364.107 364.106-.64-.64 364.106-364.107.641.641zm-369.541 364.106L185.924 127.21l-.64-.641-364.107 364.107.641.64zM180.49 127.21l-364.107 364.106-.64-.64 364.106-364.107.641.641zm-369.541 364.106L175.055 127.21l-.64-.641-364.107 364.107.641.64zM169.621 127.21l-364.107 364.106-.64-.64 364.107-364.107.64.641zM-199.92 491.316 164.187 127.21l-.641-.641-364.107 364.107.641.64zM158.752 127.21l-364.106 364.106-.641-.64 364.107-364.107.64.641zm-369.541 364.106L153.318 127.21l-.641-.641-364.106 364.107.64.64zM147.883 127.21l-364.106 364.106-.641-.64 364.107-364.107.64.641zm-369.541 364.106L142.449 127.21l-.641-.641-364.106 364.107.64.64zM137.014 127.21l-364.106 364.106-.641-.64 364.107-364.107.64.641zm-369.541 364.106L131.58 127.21l-.641-.641-364.106 364.107.64.64zM126.146 127.21l-364.107 364.106-.641-.64 364.107-364.107.641.641zm-369.542 364.106L120.711 127.21l-.64-.641-364.107 364.107.64.64zM115.277 127.21-248.83 491.316l-.64-.64 364.106-364.107.641.641zm-369.541 364.106L109.842 127.21l-.64-.641-364.107 364.107.641.64zM104.408 127.21l-364.107 364.106-.64-.64 364.106-364.107.641.641zm-369.541 364.106L98.973 127.21l-.64-.641-364.107 364.107.641.64zM93.539 127.21l-364.107 364.106-.64-.64L92.899 126.569l.64.641zm-369.541 364.106L88.105 127.21l-.64-.641-364.108 364.107.641.64zM82.67 127.21l-364.106 364.106-.641-.64L82.03 126.569l.64.641zm-369.54 364.106L77.236 127.21l-.64-.641-364.107 364.107.64.64zM71.801 127.21l-364.106 364.106-.641-.64L71.161 126.569l.64.641zM-297.74 491.316 66.367 127.21l-.64-.641-364.107 364.107.64.64zM60.932 127.21l-364.106 364.106-.641-.64L60.292 126.569l.64.641zm-369.541 364.106L55.498 127.21l-.64-.641-364.107 364.107.64.64zM50.064 127.21l-364.107 364.106-.64-.64L49.423 126.569l.64.641zm-369.541 364.106L44.629 127.21l-.64-.641-364.107 364.107.641.64zM39.195 127.21l-364.107 364.106-.64-.64L38.554 126.569l.64.641zm-369.541 364.106L33.76 127.21l-.64-.641-364.107 364.107.641.64zM28.326 127.21l-364.107 364.106-.64-.64L27.685 126.569l.64.641zm-369.541 364.106L22.891 127.21l-.64-.641-364.107 364.107.641.64zM17.457 127.21-346.65 491.316l-.64-.64L16.817 126.569l.64.641zm-369.541 364.106L12.023 127.21l-.64-.641-364.107 364.107.64.64zM6.588 127.21l-364.106 364.106-.641-.64L5.948 126.569l.64.641zm-369.541 364.106L1.154 127.21l-.64-.641-364.107 364.107.64.64zM-4.281 127.21l-364.106 364.106-.641-.64L-4.921 126.569l.64.641zm-369.541 364.106L-9.715 127.21l-.64-.641-364.107 364.107.64.64zM-15.149 127.21l-364.107 364.106-.641-.64L-15.79 126.569l.64.641zm-369.542 364.106L-20.584 127.21l-.64-.641-364.107 364.107.64.64zM-26.018 127.21l-364.107 364.106-.64-.64 364.106-364.107.64.641zM-395.56 491.316-31.453 127.21l-.64-.641L-396.2 490.676l.641.64zM-36.887 127.21l-364.107 364.106-.64-.64 364.106-364.107.64.641zm-369.541 364.106L-42.322 127.21l-.64-.641-364.107 364.107.641.64zM-47.756 127.21l-364.107 364.106-.64-.64 364.106-364.107.64.641z" clip-rule="evenodd"/></g><rect width="36.135" height="177.43" x="114.871" y="127.069" stroke="url(#q)" stroke-opacity=".2" rx="5.84"/><g clip-path="url(#r)"><rect width="40.758" height="221" x="169.621" y="84" fill="url(#s)" rx="7.246"/><path fill="url(#t)" fill-opacity=".7" fill-rule="evenodd" d="M373.412 447.842 737.519 83.735l-.641-.64L372.772 447.2l.64.641zm-5.434 0L732.084 83.735l-.64-.64L367.337 447.2l.641.641zM726.65 83.735 362.543 447.842l-.64-.641L726.009 83.095l.641.64zM357.109 447.842 721.215 83.735l-.64-.64L356.468 447.2l.641.641zM715.781 83.735 351.674 447.842l-.64-.641L715.14 83.095l.641.64zM346.24 447.842 710.346 83.735l-.64-.64L345.599 447.2l.641.641zM704.912 83.735 340.805 447.842l-.64-.641L704.272 83.095l.64.64zM335.371 447.842 699.478 83.735l-.641-.64L334.731 447.2l.64.641zM694.043 83.735 329.937 447.842l-.641-.641L693.403 83.095l.64.64zM324.502 447.842 688.609 83.735l-.641-.64L323.862 447.2l.64.641zM683.174 83.735 319.068 447.842l-.641-.641L682.534 83.095l.64.64zM313.633 447.842 677.74 83.735l-.641-.64L312.993 447.2l.64.641zM672.305 83.735 308.199 447.842l-.641-.641L671.665 83.095l.64.64zM302.764 447.842 666.871 83.735l-.64-.64L302.124 447.2l.64.641zM661.437 83.735 297.33 447.842l-.64-.641L660.796 83.095l.641.64zM291.896 447.842 656.002 83.735l-.64-.64L291.255 447.2l.641.641zM650.568 83.735 286.461 447.842l-.64-.641L649.927 83.095l.641.64zM281.027 447.842 645.133 83.735l-.64-.64L280.386 447.2l.641.641zM639.699 83.735 275.592 447.842l-.64-.641L639.058 83.095l.641.64zM270.158 447.842 634.264 83.735l-.64-.64L269.517 447.2l.641.641zM628.83 83.735 264.723 447.842l-.64-.641L628.19 83.095l.64.64zM259.289 447.842 623.396 83.735l-.641-.64L258.649 447.2l.64.641zM617.961 83.735 253.855 447.842l-.641-.641L617.321 83.095l.64.64zM248.42 447.842 612.527 83.735l-.641-.64L247.78 447.2l.64.641zM607.092 83.735 242.986 447.842l-.641-.641L606.452 83.095l.64.64zM237.551 447.842 601.658 83.735l-.641-.64L236.911 447.2l.64.641zM596.223 83.735 232.117 447.842l-.641-.641L595.583 83.095l.64.64zM226.682 447.842 590.789 83.735l-.64-.64L226.042 447.2l.64.641zM585.355 83.735 221.248 447.842l-.64-.641L584.714 83.095l.641.64zM215.814 447.842 579.92 83.735l-.64-.64L215.173 447.2l.641.641zM574.486 83.735 210.379 447.842l-.64-.641L573.845 83.095l.641.64zM204.945 447.842 569.051 83.735l-.64-.64L204.304 447.2l.641.641zM563.617 83.735 199.51 447.842l-.64-.641L562.976 83.095l.641.64zM194.076 447.842 558.182 83.735l-.64-.64L193.435 447.2l.641.641zM552.748 83.735 188.641 447.842l-.64-.641L552.108 83.095l.64.64zM183.207 447.842 547.314 83.735l-.641-.64L182.567 447.2l.64.641zM541.879 83.735 177.773 447.842l-.641-.641L541.239 83.095l.64.64zM172.338 447.842 536.445 83.735l-.641-.64L171.698 447.2l.64.641zM531.01 83.735 166.904 447.842l-.641-.641L530.37 83.095l.64.64zM161.469 447.842 525.576 83.735l-.641-.64L160.829 447.2l.64.641zM520.141 83.735 156.035 447.842l-.641-.641L519.501 83.095l.64.64zm-369.54 364.107L514.707 83.735l-.64-.64L149.96 447.2l.641.641zM509.273 83.735 145.166 447.842l-.64-.641L508.632 83.095l.641.64zM139.732 447.842 503.838 83.735l-.64-.64L139.091 447.2l.641.641zM498.404 83.735 134.297 447.842l-.64-.641L497.763 83.095l.641.64zM128.863 447.842 492.969 83.735l-.64-.64L128.222 447.2l.641.641zM487.535 83.735 123.428 447.842l-.64-.641L486.895 83.095l.64.64zM117.994 447.842 482.101 83.735l-.641-.64L117.353 447.2l.641.641zM476.666 83.735 112.56 447.842l-.641-.641L476.026 83.095l.64.64zM107.125 447.842 471.232 83.735l-.641-.64L106.485 447.2l.64.641zM465.797 83.735 101.691 447.842l-.641-.641L465.157 83.095l.64.64zM96.257 447.842 460.362 83.735l-.641-.64L95.616 447.2l.64.641zm358.67-364.107L90.822 447.842l-.64-.641L454.287 83.095l.64.64zM85.388 447.842 449.493 83.735l-.64-.64L84.747 447.2l.64.641zM444.06 83.735 79.953 447.842l-.64-.641L443.418 83.095l.641.64zM74.519 447.842 438.625 83.735l-.64-.64L73.878 447.2l.64.641zM433.19 83.735 69.084 447.842l-.64-.641L432.55 83.095l.641.64zM63.65 447.842 427.756 83.735l-.64-.64L63.009 447.2l.64.641zM422.322 83.735 58.215 447.842l-.64-.641L421.68 83.095l.641.64zM52.781 447.842 416.887 83.735l-.64-.64L52.14 447.2l.64.641zM411.453 83.735 47.346 447.842l-.64-.641L410.813 83.095l.64.64zM41.912 447.842 406.019 83.735l-.641-.64L41.272 447.2l.64.641zM400.584 83.735 36.478 447.842l-.64-.641L399.943 83.095l.64.64zM31.044 447.842 395.15 83.735l-.641-.64L30.403 447.2l.64.641zm358.67-364.107L25.609 447.842l-.64-.641L389.074 83.095l.64.64zM20.175 447.842 384.28 83.735l-.641-.64L19.534 447.2l.64.641zm358.67-364.107L14.74 447.842l-.64-.641L378.205 83.095l.64.64zM9.306 447.842 373.411 83.735l-.64-.64L8.665 447.2l.64.641zM367.977 83.735 3.871 447.842l-.64-.641L367.337 83.095l.641.64zM-1.563 447.842 362.543 83.735l-.64-.64L-2.204 447.2l.64.641zM357.109 83.735-6.998 447.842l-.64-.641L356.468 83.095l.641.64zM-12.432 447.842 351.674 83.735l-.64-.64L-13.073 447.2l.64.641zM346.24 83.735-17.867 447.842l-.64-.641L345.599 83.095l.641.64zM-23.301 447.842 340.805 83.735l-.64-.64L-23.942 447.2l.64.641zM335.37 83.735-28.735 447.842l-.641-.641L334.731 83.095l.64.64zM-34.17 447.842 329.937 83.735l-.641-.64L-34.81 447.2l.64.641zM324.502 83.735-39.604 447.842l-.64-.641L323.861 83.095l.64.64zm-369.54 364.107L319.067 83.735l-.641-.64L-45.679 447.2l.64.641zm358.67-364.107L-50.473 447.842l-.64-.641L312.992 83.095l.64.64zm-369.54 364.107L308.198 83.735l-.641-.64L-56.548 447.2l.64.641zM302.763 83.735-61.342 447.842l-.64-.641L302.123 83.095l.64.64zm-369.54 364.107L297.33 83.735l-.64-.64L-67.417 447.2l.64.641zM291.895 83.735-72.211 447.842l-.64-.641L291.255 83.095l.641.64zm-369.54 364.107L286.46 83.735l-.64-.64L-78.286 447.2l.64.641zM281.027 83.735-83.08 447.842l-.64-.641L280.386 83.095l.641.64zM-88.514 447.842 275.592 83.735l-.64-.64L-89.155 447.2l.64.641zM270.158 83.735-93.949 447.842l-.64-.641L269.517 83.095l.641.64zM-99.383 447.842 264.723 83.735l-.64-.64L-100.024 447.2l.64.641zM259.289 83.735l-364.107 364.107-.64-.641L258.649 83.095l.64.64zm-369.541 364.107L253.855 83.735l-.641-.64L-110.892 447.2l.64.641zM248.42 83.735l-364.106 364.107-.641-.641L247.78 83.095l.64.64zm-369.541 364.107L242.986 83.735l-.641-.64L-121.761 447.2l.64.641zM237.551 83.735l-364.106 364.107-.641-.641L236.911 83.095l.64.64zM-131.99 447.842 232.117 83.735l-.641-.64L-132.63 447.2l.64.641zM226.682 83.735l-364.106 364.107-.641-.641L226.042 83.095l.64.64zm-369.541 364.107L221.248 83.735l-.64-.64L-143.499 447.2l.64.641zM215.814 83.735l-364.107 364.107-.64-.641L215.173 83.095l.641.64zm-369.541 364.107L210.379 83.735l-.64-.64L-154.368 447.2l.641.641zM204.945 83.735l-364.107 364.107-.64-.641L204.304 83.095l.641.64zm-369.541 364.107L199.51 83.735l-.64-.64L-165.237 447.2l.641.641zM194.076 83.735l-364.107 364.107-.64-.641L193.435 83.095l.641.64zm-369.541 364.107L188.642 83.735l-.641-.64L-176.106 447.2l.641.641zM183.207 83.735l-364.106 364.107-.641-.641L182.567 83.095l.64.64zm-369.541 364.107L177.773 83.735l-.641-.64L-186.974 447.2l.64.641zM172.338 83.735l-364.106 364.107-.641-.641L171.698 83.095l.64.64zm-369.541 364.107L166.904 83.735l-.641-.64L-197.843 447.2l.64.641zM161.469 83.735l-364.106 364.107-.641-.641L160.829 83.095l.64.64zm-369.541 364.107L156.035 83.735l-.641-.64L-208.712 447.2l.64.641zM150.601 83.735l-364.107 364.107-.641-.641L149.96 83.095l.641.64zM-218.94 447.842 145.166 83.735l-.64-.64L-219.581 447.2l.641.641zM139.732 83.735l-364.107 364.107-.64-.641L139.091 83.095l.641.64zm-369.541 364.107L134.297 83.735l-.64-.64L-230.45 447.2l.641.641zM128.863 83.735l-364.107 364.107-.64-.641L128.222 83.095l.641.64zm-369.541 364.107L123.428 83.735l-.64-.64L-241.319 447.2l.641.641zM117.994 83.735l-364.107 364.107-.64-.641L117.353 83.095l.641.64zm-369.541 364.107L112.56 83.735l-.641-.64L-252.188 447.2l.641.641zM107.125 83.735l-364.107 364.107-.64-.641L106.485 83.095l.64.64zm-369.541 364.107L101.691 83.735l-.641-.64L-263.056 447.2l.64.641zM96.256 83.735-267.85 447.842l-.641-.641L95.616 83.095l.64.64zm-369.541 364.107L90.822 83.735l-.64-.64L-273.926 447.2l.64.641zM85.387 83.735l-364.106 364.107-.641-.641L84.747 83.095l.64.64zm-369.541 364.107L79.953 83.735l-.64-.64L-284.795 447.2l.64.641zM74.519 83.735l-364.107 364.107-.64-.641L73.878 83.095l.64.64zm-369.541 364.107L69.084 83.735l-.64-.64L-295.663 447.2l.641.641zM63.65 83.735l-364.107 364.107-.64-.641L63.009 83.095l.64.64zm-369.541 364.107L58.215 83.735l-.64-.64L-306.532 447.2l.641.641zM52.781 83.735l-364.107 364.107-.64-.641L52.14 83.095l.64.64zM-316.76 447.842 47.346 83.735l-.64-.64L-317.401 447.2l.641.641zM41.912 83.735l-364.107 364.107-.64-.641L41.271 83.095l.641.64zm-369.541 364.107L36.478 83.735l-.64-.64L-328.27 447.2l.64.641zM31.043 83.735l-364.106 364.107-.641-.641L30.403 83.095l.64.64zm-369.541 364.107L25.609 83.735l-.64-.64L-339.139 447.2l.64.641zM20.174 83.735l-364.106 364.107-.641-.641L19.534 83.095l.64.64zm-369.541 364.107L14.74 83.735l-.64-.64L-350.008 447.2l.64.641zM9.305 83.735-354.8 447.842l-.641-.641L8.665 83.095l.64.64z" clip-rule="evenodd"/></g><rect width="39.758" height="220" x="170.121" y="84.5" stroke="url(#u)" stroke-opacity=".2" rx="6.746"/><g clip-path="url(#v)"><rect width="37.135" height="178.43" x="228.494" y="126.569" fill="url(#w)" rx="6.34"/><path fill="url(#x)" fill-opacity=".3" fill-rule="evenodd" d="M430.473 491.316 794.58 127.21l-.641-.641-364.106 364.107.64.64zm-5.434 0L789.145 127.21l-.64-.641-364.107 364.107.641.64zM783.711 127.21 419.604 491.316l-.64-.64 364.107-364.107.64.641zM414.17 491.316 778.277 127.21l-.641-.641L413.53 490.676l.64.64zM772.842 127.21 408.736 491.316l-.641-.64 364.107-364.107.64.641zM403.301 491.316 767.408 127.21l-.641-.641-364.106 364.107.64.64zM761.973 127.21 397.867 491.316l-.641-.64 364.107-364.107.64.641zM392.432 491.316 756.539 127.21l-.641-.641-364.106 364.107.64.64zM751.104 127.21 386.998 491.316l-.641-.64 364.107-364.107.64.641zM381.563 491.316 745.67 127.21l-.64-.641-364.107 364.107.64.64zM740.236 127.21 376.129 491.316l-.64-.64 364.106-364.107.641.641zM370.695 491.316 734.801 127.21l-.64-.641-364.107 364.107.641.64zM729.367 127.21 365.26 491.316l-.64-.64 364.106-364.107.641.641zM359.826 491.316 723.932 127.21l-.64-.641-364.107 364.107.641.64zM718.498 127.21 354.391 491.316l-.64-.64 364.106-364.107.641.641zM348.957 491.316 713.063 127.21l-.64-.641-364.107 364.107.641.64zM707.629 127.21 343.522 491.316l-.64-.64 364.107-364.107.64.641zM338.088 491.316 702.195 127.21l-.641-.641-364.106 364.107.64.64zM696.76 127.21 332.654 491.316l-.641-.64L696.12 126.569l.64.641zM327.219 491.316 691.326 127.21l-.641-.641-364.106 364.107.64.64zM685.891 127.21 321.785 491.316l-.641-.64 364.107-364.107.64.641zM316.35 491.316 680.457 127.21l-.641-.641L315.71 490.676l.64.64zM675.022 127.21 310.916 491.316l-.641-.64 364.107-364.107.64.641zM305.481 491.316 669.588 127.21l-.64-.641-364.107 364.107.64.64zM664.154 127.21 300.047 491.316l-.64-.64 364.106-364.107.641.641zM294.613 491.316 658.719 127.21l-.64-.641-364.107 364.107.641.64zM653.285 127.21 289.178 491.316l-.64-.64 364.106-364.107.641.641zM283.744 491.316 647.85 127.21l-.64-.641-364.107 364.107.641.64zM642.416 127.21 278.309 491.316l-.64-.64 364.106-364.107.641.641zM272.875 491.316 636.981 127.21l-.64-.641-364.107 364.107.641.64zM631.547 127.21 267.44 491.316l-.64-.64 364.107-364.107.64.641zM262.006 491.316 626.113 127.21l-.641-.641-364.106 364.107.64.64zM620.678 127.21 256.572 491.316l-.641-.64 364.107-364.107.64.641zM251.137 491.316 615.244 127.21l-.641-.641-364.106 364.107.64.64zM609.809 127.21 245.703 491.316l-.641-.64 364.107-364.107.64.641zM240.268 491.316 604.375 127.21l-.641-.641-364.106 364.107.64.64zM598.94 127.21 234.834 491.316l-.641-.64L598.3 126.569l.64.641zM229.399 491.316 593.506 127.21l-.64-.641-364.107 364.107.64.64zM588.072 127.21 223.965 491.316l-.64-.64 364.106-364.107.641.641zM218.531 491.316 582.637 127.21l-.64-.641L217.89 490.676l.641.64zM577.203 127.21 213.096 491.316l-.64-.64 364.106-364.107.641.641zM207.662 491.316 571.768 127.21l-.64-.641-364.107 364.107.641.64zM566.334 127.21 202.227 491.316l-.64-.64 364.106-364.107.641.641zM196.793 491.316 560.899 127.21l-.64-.641-364.107 364.107.641.64zM555.465 127.21 191.359 491.316l-.641-.64 364.107-364.107.64.641zM185.924 491.316 550.031 127.21l-.641-.641-364.106 364.107.64.64zM544.596 127.21 180.49 491.316l-.641-.64 364.107-364.107.64.641zM175.055 491.316 539.162 127.21l-.641-.641-364.106 364.107.64.64zM533.727 127.21 169.621 491.316l-.641-.64 364.107-364.107.64.641zM164.186 491.316 528.293 127.21l-.641-.641-364.106 364.107.64.64zM522.859 127.21 158.752 491.316l-.641-.64 364.107-364.107.641.641zM153.318 491.316 517.424 127.21l-.64-.641-364.107 364.107.641.64zM511.99 127.21 147.883 491.316l-.64-.64 364.106-364.107.641.641zM142.449 491.316 506.555 127.21l-.64-.641-364.107 364.107.641.64zM501.121 127.21 137.014 491.316l-.64-.64L500.48 126.569l.641.641zM131.58 491.316 495.686 127.21l-.64-.641-364.107 364.107.641.64zM490.252 127.21 126.145 491.316l-.64-.64 364.107-364.107.64.641zM120.711 491.316 484.818 127.21l-.641-.641L120.07 490.676l.641.64zM479.383 127.21 115.277 491.316l-.641-.64 364.107-364.107.64.641zM109.842 491.316 473.949 127.21l-.641-.641-364.106 364.107.64.64zM468.514 127.21 104.408 491.316l-.641-.64 364.107-364.107.64.641zM98.974 491.316 463.08 127.21l-.641-.641L98.333 490.676l.64.64zm358.67-364.106L93.539 491.316l-.64-.64 364.106-364.107.64.641zM88.105 491.316 452.21 127.21l-.64-.641L87.464 490.676l.64.64zM446.776 127.21 82.67 491.316l-.64-.64 364.106-364.107.641.641zM77.236 491.316 441.342 127.21l-.64-.641L76.595 490.676l.64.64zM435.908 127.21 71.801 491.316l-.64-.64 364.106-364.107.641.641zM66.367 491.316 430.473 127.21l-.64-.641L65.726 490.676l.64.64zM425.039 127.21 60.932 491.316l-.64-.64 364.106-364.107.641.641zM55.498 491.316 419.604 127.21l-.64-.641L54.857 490.676l.64.64zM414.17 127.21 50.063 491.316l-.64-.64L413.53 126.569l.64.641zM44.629 491.316 408.736 127.21l-.641-.641L43.988 490.676l.641.64zM403.301 127.21 39.195 491.316l-.64-.64L402.66 126.569l.64.641zM33.761 491.316 397.866 127.21l-.641-.641L33.12 490.676l.64.64zm358.67-364.106L28.326 491.316l-.64-.64 364.106-364.107.64.641zM22.892 491.316 386.997 127.21l-.641-.641L22.251 490.676l.64.64zm358.67-364.106L17.457 491.316l-.64-.64 364.106-364.107.64.641zM12.023 491.316 376.128 127.21l-.64-.641L11.382 490.676l.64.64zM370.695 127.21 6.588 491.316l-.64-.64 364.106-364.107.641.641zM1.154 491.316 365.26 127.21l-.64-.641L.513 490.676l.64.64zM359.826 127.21-4.281 491.316l-.64-.64 364.106-364.107.641.641zM-9.715 491.316 354.39 127.21l-.64-.641-364.107 364.107.64.64zM348.957 127.21-15.15 491.316l-.64-.64 364.106-364.107.641.641zM-20.584 491.316 343.522 127.21l-.64-.641-364.107 364.107.64.64zM338.088 127.21-26.019 491.316l-.64-.64 364.107-364.107.64.641zM-31.453 491.316 332.654 127.21l-.641-.641-364.106 364.107.64.64zM327.219 127.21-36.887 491.316l-.64-.64 364.106-364.107.64.641zm-369.54 364.106L321.784 127.21l-.641-.641-364.106 364.107.64.64zM316.35 127.21-47.756 491.316l-.64-.64L315.71 126.569l.64.641zM-53.19 491.316 310.915 127.21l-.641-.641-364.106 364.107.64.64zM305.48 127.21-58.625 491.316l-.64-.64L304.84 126.569l.64.641zM-64.06 491.316 300.046 127.21l-.64-.641L-64.7 490.676l.64.64zM294.612 127.21-69.494 491.316l-.64-.64 364.106-364.107.641.641zm-369.54 364.106L289.178 127.21l-.64-.641-364.107 364.107.64.64zM283.744 127.21-80.363 491.316l-.64-.64 364.106-364.107.641.641zM-85.797 491.316 278.309 127.21l-.64-.641-364.107 364.107.64.64zM272.875 127.21-91.232 491.316l-.64-.64 364.106-364.107.641.641zM-96.666 491.316 267.44 127.21l-.64-.641-364.107 364.107.64.64zM262.006 127.21-102.1 491.316l-.641-.64 364.107-364.107.64.641zm-369.541 364.106L256.572 127.21l-.641-.641-364.106 364.107.64.64zM251.137 127.21l-364.106 364.106-.641-.64 364.107-364.107.64.641zm-369.541 364.106L245.703 127.21l-.641-.641-364.106 364.107.64.64zM240.268 127.21l-364.106 364.106-.641-.64 364.107-364.107.64.641zm-369.541 364.106L234.834 127.21l-.641-.641-364.106 364.107.64.64zM229.4 127.21l-364.107 364.106-.641-.64 364.107-364.107.641.641zm-369.541 364.106L223.965 127.21l-.64-.641-364.107 364.107.641.64zM218.531 127.21l-364.107 364.106-.64-.64L217.89 126.569l.641.641zM-151.01 491.316 213.096 127.21l-.64-.641-364.107 364.107.641.64zM207.662 127.21l-364.107 364.106-.64-.64 364.106-364.107.641.641zm-369.541 364.106L202.227 127.21l-.64-.641-364.107 364.107.641.64zM196.793 127.21l-364.107 364.106-.64-.64 364.106-364.107.641.641zm-369.541 364.106L191.359 127.21l-.641-.641-364.107 364.107.641.64zM185.924 127.21l-364.106 364.106-.641-.64 364.107-364.107.64.641zm-369.541 364.106L180.49 127.21l-.641-.641-364.106 364.107.64.64zM175.055 127.21l-364.106 364.106-.641-.64 364.107-364.107.64.641zm-369.541 364.106L169.621 127.21l-.641-.641-364.106 364.107.64.64zM164.186 127.21-199.92 491.316l-.641-.64 364.107-364.107.64.641zm-369.541 364.106L158.752 127.21l-.64-.641-364.107 364.107.64.64zM153.318 127.21l-364.107 364.106-.641-.64 364.107-364.107.641.641zm-369.542 364.106L147.883 127.21l-.64-.641-364.107 364.107.64.64zM142.449 127.21l-364.107 364.106-.64-.64 364.106-364.107.641.641zm-369.541 364.106L137.014 127.21l-.64-.641-364.107 364.107.641.64zM131.58 127.21l-364.107 364.106-.64-.64 364.106-364.107.641.641zm-369.541 364.106L126.145 127.21l-.64-.641-364.107 364.107.641.64zM120.711 127.21l-364.107 364.106-.64-.64L120.07 126.569l.641.641zM-248.83 491.316 115.277 127.21l-.641-.641-364.107 364.107.641.64zM109.842 127.21l-364.106 364.106-.641-.64 364.107-364.107.64.641zm-369.541 364.106L104.408 127.21l-.641-.641-364.106 364.107.64.64zM98.973 127.21l-364.106 364.106-.641-.64L98.333 126.569l.64.641zm-369.541 364.106L93.539 127.21l-.64-.641-364.107 364.107.64.64zM88.104 127.21l-364.106 364.106-.641-.64L87.464 126.569l.64.641zm-369.541 364.106L82.67 127.21l-.64-.641-364.107 364.107.64.64zM77.236 127.21l-364.107 364.106-.64-.64L76.595 126.569l.64.641zm-369.541 364.106L71.801 127.21l-.64-.641-364.107 364.107.641.64zM66.367 127.21-297.74 491.316l-.64-.64L65.726 126.569l.64.641z" clip-rule="evenodd"/></g><rect width="36.135" height="177.43" x="228.994" y="127.069" stroke="url(#y)" stroke-opacity=".2" rx="5.84"/><g clip-path="url(#z)"><rect width="37.135" height="123.18" x="283.744" y="181.819" fill="url(#A)" rx="6.34"/><path fill="url(#B)" fill-opacity=".3" fill-rule="evenodd" d="M485.723 518.488 849.83 154.382l-.641-.641-364.106 364.107.64.64zm-5.434 0 364.106-364.106-.64-.641-364.107 364.107.641.64zm358.672-364.106L474.854 518.488l-.64-.64 364.107-364.107.64.641zM469.42 518.488l364.107-364.106-.641-.641L468.78 517.848l.64.64zm358.672-364.106L463.986 518.488l-.641-.64 364.107-364.107.64.641zM458.551 518.488l364.107-364.106-.641-.641-364.106 364.107.64.64zm358.672-364.106L453.117 518.488l-.641-.64 364.107-364.107.64.641zM447.682 518.488l364.107-364.106-.641-.641-364.106 364.107.64.64zm358.672-364.106L442.248 518.488l-.641-.64 364.107-364.107.64.641zM436.813 518.488 800.92 154.382l-.64-.641-364.107 364.107.64.64zm358.673-364.106L431.379 518.488l-.64-.64 364.106-364.107.641.641zM425.945 518.488l364.106-364.106-.64-.641-364.107 364.107.641.64zm358.672-364.106L420.51 518.488l-.64-.64 364.106-364.107.641.641zM415.076 518.488l364.106-364.106-.64-.641-364.107 364.107.641.64zm358.672-364.106L409.641 518.488l-.64-.64 364.106-364.107.641.641zM404.207 518.488l364.106-364.106-.64-.641-364.107 364.107.641.64zm358.672-364.106L398.772 518.488l-.64-.64 364.107-364.107.64.641zM393.338 518.488l364.107-364.106-.641-.641-364.106 364.107.64.64zM752.01 154.382 387.904 518.488l-.641-.64L751.37 153.741l.64.641zM382.469 518.488l364.107-364.106-.641-.641-364.106 364.107.64.64zm358.672-364.106L377.035 518.488l-.641-.64 364.107-364.107.64.641zM371.6 518.488l364.107-364.106-.641-.641L370.96 517.848l.64.64zm358.672-364.106L366.166 518.488l-.641-.64 364.107-364.107.64.641zM360.731 518.488l364.107-364.106-.64-.641-364.107 364.107.64.64zm358.673-364.106L355.297 518.488l-.64-.64 364.106-364.107.641.641zM349.863 518.488l364.106-364.106-.64-.641-364.107 364.107.641.64zm358.672-364.106L344.428 518.488l-.64-.64 364.106-364.107.641.641zM338.994 518.488 703.1 154.382l-.64-.641-364.107 364.107.641.64zm358.672-364.106L333.559 518.488l-.64-.64 364.106-364.107.641.641zM328.125 518.488l364.106-364.106-.64-.641-364.107 364.107.641.64zm358.672-364.106L322.69 518.488l-.64-.64 364.107-364.107.64.641zM317.256 518.488l364.107-364.106-.641-.641-364.106 364.107.64.64zm358.672-364.106L311.822 518.488l-.641-.64 364.107-364.107.64.641zM306.387 518.488l364.107-364.106-.641-.641-364.106 364.107.64.64zm358.672-364.106L300.953 518.488l-.641-.64 364.107-364.107.64.641zM295.518 518.488l364.107-364.106-.641-.641-364.106 364.107.64.64zM654.19 154.382 290.084 518.488l-.641-.64L653.55 153.741l.64.641zM284.649 518.488l364.107-364.106-.64-.641-364.107 364.107.64.64zm358.673-364.106L279.215 518.488l-.64-.64 364.106-364.107.641.641zM273.781 518.488l364.106-364.106-.64-.641L273.14 517.848l.641.64zm358.672-364.106L268.346 518.488l-.64-.64 364.106-364.107.641.641zM262.912 518.488l364.106-364.106-.64-.641-364.107 364.107.641.64zm358.672-364.106L257.477 518.488l-.64-.64 364.106-364.107.641.641zM252.043 518.488l364.106-364.106-.64-.641-364.107 364.107.641.64zm358.672-364.106L246.609 518.488l-.641-.64 364.107-364.107.64.641zM241.174 518.488l364.107-364.106-.641-.641-364.106 364.107.64.64zm358.672-364.106L235.74 518.488l-.641-.64 364.107-364.107.64.641zM230.305 518.488l364.107-364.106-.641-.641-364.106 364.107.64.64zm358.672-364.106L224.871 518.488l-.641-.64 364.107-364.107.64.641zM219.436 518.488l364.107-364.106-.641-.641-364.106 364.107.64.64zm358.673-364.106L214.002 518.488l-.641-.64 364.107-364.107.641.641zM208.568 518.488l364.106-364.106-.64-.641-364.107 364.107.641.64zM567.24 154.382 203.133 518.488l-.64-.64 364.106-364.107.641.641zM197.699 518.488l364.106-364.106-.64-.641-364.107 364.107.641.64zm358.672-364.106L192.264 518.488l-.64-.64L555.73 153.741l.641.641zM186.83 518.488l364.106-364.106-.64-.641-364.107 364.107.641.64zm358.672-364.106L181.395 518.488l-.64-.64 364.107-364.107.64.641zM175.961 518.488l364.107-364.106-.641-.641L175.32 517.848l.641.64zm358.672-364.106L170.527 518.488l-.641-.64 364.107-364.107.64.641zM165.092 518.488l364.107-364.106-.641-.641-364.106 364.107.64.64zm358.672-364.106L159.658 518.488l-.641-.64 364.107-364.107.64.641zM154.223 518.488 518.33 154.382l-.641-.641-364.106 364.107.64.64zm358.672-364.106L148.789 518.488l-.641-.64 364.107-364.107.64.641zM143.354 518.488l364.107-364.106-.64-.641-364.107 364.107.64.64zm358.673-364.106L137.92 518.488l-.64-.64 364.106-364.107.641.641zM132.486 518.488l364.106-364.106-.64-.641-364.107 364.107.641.64zm358.672-364.106L127.051 518.488l-.64-.64 364.106-364.107.641.641zM121.617 518.488l364.106-364.106-.64-.641-364.107 364.107.641.64zm358.672-364.106L116.182 518.488l-.64-.64 364.106-364.107.641.641zM110.748 518.488l364.106-364.106-.64-.641-364.107 364.107.641.64zM469.42 154.382 105.313 518.488l-.64-.64L468.78 153.741l.64.641zM99.879 518.488l364.107-364.106-.641-.641L99.238 517.848l.641.64zm358.672-364.106L94.445 518.488l-.64-.64L457.91 153.741l.64.641zM89.011 518.488l364.106-364.106-.641-.641L88.37 517.848l.64.64zm358.671-364.106L83.576 518.488l-.64-.64 364.106-364.107.64.641zM78.142 518.488l364.106-364.106-.641-.641L77.501 517.848l.64.64zm358.671-364.106L72.707 518.488l-.64-.64 364.106-364.107.64.641zM67.273 518.488l364.106-364.106-.64-.641L66.632 517.848l.64.64zm358.672-364.106L61.838 518.488l-.64-.64 364.106-364.107.641.641zM56.404 518.488 420.51 154.382l-.64-.641L55.763 517.848l.64.64zm358.672-364.106L50.969 518.488l-.64-.64 364.106-364.107.641.641zM45.535 518.488 409.64 154.382l-.64-.641L44.894 517.848l.64.64zm358.672-364.106L40.1 518.488l-.64-.64 364.106-364.107.641.641zM34.666 518.488l364.106-364.106-.64-.641L34.025 517.848l.64.64zm358.672-364.106L29.231 518.488l-.64-.64 364.107-364.107.64.641zM23.797 518.488l364.107-364.106-.641-.641L23.157 517.848l.64.64zm358.672-364.106L18.363 518.488l-.64-.64 364.106-364.107.64.641zM12.929 518.488l364.106-364.106-.641-.641L12.288 517.848l.64.64zM371.6 154.382 7.494 518.488l-.64-.64L370.96 153.741l.64.641zM2.06 518.488l364.106-364.106-.641-.641L1.419 517.848l.64.64zm358.67-364.106L-3.375 518.488l-.64-.64L360.09 153.741l.64.641zM-8.809 518.488l364.106-364.106-.64-.641L-9.45 517.848l.64.64zm358.672-364.106L-14.244 518.488l-.64-.64 364.106-364.107.641.641zM-19.678 518.488l364.106-364.106-.64-.641-364.107 364.107.64.64zm358.672-364.106L-25.113 518.488l-.64-.64 364.106-364.107.641.641zM-30.547 518.488l364.106-364.106-.64-.641-364.107 364.107.64.64zm358.672-364.106L-35.982 518.488l-.64-.64 364.106-364.107.641.641zM-41.416 518.488 322.69 154.382l-.64-.641-364.107 364.107.64.64zm358.672-364.106L-46.85 518.488l-.641-.64 364.107-364.107.64.641zm-369.54 364.106 364.106-364.106-.641-.641-364.106 364.107.64.64zm358.671-364.106L-57.719 518.488l-.64-.64 364.106-364.107.64.641zm-369.54 364.106 364.106-364.106-.641-.641-364.106 364.107.64.64zm358.671-364.106L-68.588 518.488l-.64-.64 364.106-364.107.64.641zm-369.54 364.106 364.106-364.106-.641-.641-364.106 364.107.64.64zM284.65 154.382-79.457 518.488l-.64-.64 364.106-364.107.641.641zM-84.891 518.488l364.106-364.106-.64-.641-364.107 364.107.64.64zM273.78 154.382-90.326 518.488l-.64-.64L273.14 153.741l.641.641zM-95.76 518.488l364.106-364.106-.64-.641-364.107 364.107.64.64zm358.672-364.106-364.107 364.106-.64-.64 364.106-364.107.641.641zm-369.541 364.106 364.106-364.106-.64-.641-364.107 364.107.641.64zm358.672-364.106-364.107 364.106-.64-.64 364.106-364.107.641.641zm-369.541 364.106 364.107-364.106-.641-.641-364.107 364.107.641.64zm358.672-364.106-364.106 364.106-.641-.64 364.107-364.107.64.641zm-369.541 364.106L235.74 154.382l-.641-.641-364.106 364.107.64.64zm358.672-364.106-364.106 364.106-.641-.64 364.107-364.107.64.641zm-369.541 364.106 364.107-364.106-.641-.641-364.106 364.107.64.64zm358.672-364.106L-144.67 518.488l-.641-.64 364.107-364.107.64.641zm-369.541 364.106 364.107-364.106-.64-.641-364.107 364.107.64.64zm358.673-364.106-364.107 364.106-.641-.64 364.107-364.107.641.641zm-369.542 364.106 364.107-364.106-.64-.641-364.107 364.107.64.64zm358.673-364.106-364.107 364.106-.64-.64 364.106-364.107.641.641zm-369.541 364.106 364.106-364.106-.64-.641-364.107 364.107.641.64zM186.83 154.382l-364.107 364.106-.64-.64 364.106-364.107.641.641zm-369.541 364.106 364.106-364.106-.64-.641-364.107 364.107.641.64zm358.672-364.106-364.107 364.106-.64-.64L175.32 153.741l.641.641zM-193.58 518.488l364.107-364.106-.641-.641-364.107 364.107.641.64zm358.672-364.106-364.106 364.106-.641-.64 364.107-364.107.64.641zm-369.541 364.106 364.107-364.106-.641-.641-364.106 364.107.64.64zm358.672-364.106-364.106 364.106-.641-.64 364.107-364.107.64.641zm-369.541 364.106 364.107-364.106-.641-.641-364.106 364.107.64.64zm358.672-364.106-364.106 364.106-.641-.64 364.107-364.107.64.641zm-369.541 364.106L137.92 154.382l-.64-.641-364.107 364.107.64.64zm358.673-364.106-364.107 364.106-.64-.64 364.106-364.107.641.641zm-369.541 364.106 364.106-364.106-.64-.641-364.107 364.107.641.64zm358.672-364.106L-242.49 518.488l-.64-.64 364.106-364.107.641.641z" clip-rule="evenodd"/></g><rect width="36.135" height="122.18" x="284.244" y="182.319" stroke="url(#C)" stroke-opacity=".2" rx="5.84"/><path fill="#668AFF" d="M190 94c5.523 0 10-4.477 10-10s-4.477-10-10-10-10 4.477-10 10 4.477 10 10 10z" opacity=".5"/><path fill="#fff" d="M190 88a4 4 0 1 0 0-8 4 4 0 0 0 0 8z"/><g filter="url(#D)"><path fill="url(#E)" fill-opacity=".5" d="m319.665 210.349-437.903-336.92 77.292-81.267L334.17 193.74l-14.505 16.609z"/></g><path fill="url(#F)" d="M0 216h380v151H0z"/></g></g><defs><linearGradient id="b" x1="190" x2="190" y1="0" y2="367" gradientUnits="userSpaceOnUse"><stop stop-color="#00041F"/><stop offset="1" stop-color="#00041F" stop-opacity="0"/></linearGradient><linearGradient id="d" x1="-72.5" x2="187.132" y1="-140.235" y2="222.136" gradientUnits="userSpaceOnUse"><stop stop-color="#B5D3FD" stop-opacity="0"/><stop offset=".457" stop-color="#B5D3FD"/><stop offset=".758" stop-color="#B5D3FD" stop-opacity="0"/></linearGradient><linearGradient id="e" x1="591.793" x2="32.793" y1="-90.5" y2="377" gradientUnits="userSpaceOnUse"><stop stop-color="#fff"/><stop offset=".758" stop-color="#fff" stop-opacity="0"/></linearGradient><linearGradient id="g" x1="190" x2="190" y1="21" y2="144" gradientUnits="userSpaceOnUse"><stop stop-color="#6182FE"/><stop offset="1" stop-color="#6182FE" stop-opacity="0"/></linearGradient><linearGradient id="h" x1="190" x2="190" y1="21" y2="144" gradientUnits="userSpaceOnUse"><stop stop-color="#9AAFFE"/><stop offset="1" stop-color="#9AAFFE" stop-opacity="0"/></linearGradient><linearGradient id="k" x1="77.689" x2="77.689" y1="181.819" y2="305" gradientUnits="userSpaceOnUse"><stop stop-color="#00094C"/><stop offset="1" stop-color="#00094C" stop-opacity="0"/></linearGradient><linearGradient id="l" x1="330.842" x2="-64.247" y1="-137.453" y2="495.204" gradientUnits="userSpaceOnUse"><stop stop-color="#fff"/><stop offset=".686" stop-color="#fff" stop-opacity="0"/></linearGradient><linearGradient id="m" x1="77.689" x2="77.689" y1="181.819" y2="305" gradientUnits="userSpaceOnUse"><stop stop-color="#6182FE"/><stop offset="1" stop-color="#6182FE" stop-opacity="0"/></linearGradient><linearGradient id="o" x1="132.938" x2="132.938" y1="126.569" y2="305" gradientUnits="userSpaceOnUse"><stop stop-color="#00094C"/><stop offset="1" stop-color="#00094C" stop-opacity="0"/></linearGradient><linearGradient id="p" x1="386.092" x2="-8.997" y1="-164.625" y2="468.033" gradientUnits="userSpaceOnUse"><stop stop-color="#fff"/><stop offset=".686" stop-color="#fff" stop-opacity="0"/></linearGradient><linearGradient id="q" x1="132.938" x2="132.938" y1="126.569" y2="305" gradientUnits="userSpaceOnUse"><stop stop-color="#6182FE"/><stop offset="1" stop-color="#6182FE" stop-opacity="0"/></linearGradient><linearGradient id="s" x1="190" x2="190" y1="84" y2="305" gradientUnits="userSpaceOnUse"><stop stop-color="#1A4BFF"/><stop offset="1" stop-color="#00094C" stop-opacity="0"/></linearGradient><linearGradient id="t" x1="443.154" x2="48.065" y1="-208.1" y2="424.558" gradientUnits="userSpaceOnUse"><stop stop-color="#fff"/><stop offset=".686" stop-color="#fff" stop-opacity="0"/></linearGradient><linearGradient id="u" x1="190" x2="190" y1="84" y2="305" gradientUnits="userSpaceOnUse"><stop stop-color="#fff"/><stop offset="1" stop-color="#fff" stop-opacity="0"/></linearGradient><linearGradient id="w" x1="247.062" x2="247.062" y1="126.569" y2="305" gradientUnits="userSpaceOnUse"><stop stop-color="#00094C"/><stop offset="1" stop-color="#00094C" stop-opacity="0"/></linearGradient><linearGradient id="x" x1="500.215" x2="105.126" y1="-164.625" y2="468.033" gradientUnits="userSpaceOnUse"><stop stop-color="#fff"/><stop offset=".686" stop-color="#fff" stop-opacity="0"/></linearGradient><linearGradient id="y" x1="247.062" x2="247.062" y1="126.569" y2="305" gradientUnits="userSpaceOnUse"><stop stop-color="#6182FE"/><stop offset="1" stop-color="#6182FE" stop-opacity="0"/></linearGradient><linearGradient id="A" x1="302.312" x2="302.312" y1="181.819" y2="305" gradientUnits="userSpaceOnUse"><stop stop-color="#00094C"/><stop offset="1" stop-color="#00094C" stop-opacity="0"/></linearGradient><linearGradient id="B" x1="555.465" x2="160.376" y1="-137.453" y2="495.204" gradientUnits="userSpaceOnUse"><stop stop-color="#fff"/><stop offset=".686" stop-color="#fff" stop-opacity="0"/></linearGradient><linearGradient id="C" x1="302.312" x2="302.312" y1="181.819" y2="305" gradientUnits="userSpaceOnUse"><stop stop-color="#6182FE"/><stop offset="1" stop-color="#6182FE" stop-opacity="0"/></linearGradient><linearGradient id="E" x1="81.17" x2="158.463" y1="63.088" y2="-18.179" gradientUnits="userSpaceOnUse"><stop stop-color="#6E6EB8"/><stop offset="1" stop-color="#335FFF" stop-opacity="0"/></linearGradient><linearGradient id="F" x1="190" x2="190" y1="216" y2="367" gradientUnits="userSpaceOnUse"><stop stop-color="#000211" stop-opacity="0"/><stop offset="1" stop-color="#000211"/></linearGradient><clipPath id="a"><rect width="380" height="367" fill="#fff" rx="20"/></clipPath><clipPath id="c"><path fill="#fff" d="M0 0h380v367H0z"/></clipPath><clipPath id="j"><rect width="37.135" height="123.18" x="59.121" y="181.819" fill="#fff" rx="6.34"/></clipPath><clipPath id="n"><rect width="37.135" height="178.43" x="114.371" y="126.569" fill="#fff" rx="6.34"/></clipPath><clipPath id="r"><rect width="40.758" height="221" x="169.621" y="84" fill="#fff" rx="7.246"/></clipPath><clipPath id="v"><rect width="37.135" height="178.43" x="228.494" y="126.569" fill="#fff" rx="6.34"/></clipPath><clipPath id="z"><rect width="37.135" height="123.18" x="283.744" y="181.819" fill="#fff" rx="6.34"/></clipPath><filter id="f" width="342" height="131" x="19" y="17" color-interpolation-filters="sRGB" filterUnits="userSpaceOnUse"><feFlood flood-opacity="0" result="BackgroundImageFix"/><feGaussianBlur in="BackgroundImageFix" stdDeviation="2"/><feComposite in2="SourceAlpha" operator="in" result="effect1_backgroundBlur_2133_226422"/><feBlend in="SourceGraphic" in2="effect1_backgroundBlur_2133_226422" result="shape"/></filter><filter id="D" width="617.669" height="583.447" x="-200.869" y="-290.468" color-interpolation-filters="sRGB" filterUnits="userSpaceOnUse"><feFlood flood-opacity="0" result="BackgroundImageFix"/><feBlend in="SourceGraphic" in2="BackgroundImageFix" result="shape"/><feGaussianBlur result="effect1_foregroundBlur_2133_226422" stdDeviation="41.315"/></filter></defs></svg>