<svg xmlns="http://www.w3.org/2000/svg" width="120" height="40" fill="none"><g clip-path="url(#a)"><path fill="#575F75" d="M36.78 14.335c-1.417 0-2.702.54-3.678 1.417a5.487 5.487 0 0 1-8.82.668.066.066 0 0 0-.014.02 5.48 5.48 0 0 0-4.317-2.1 5.503 5.503 0 0 0 0 11.004 5.475 5.475 0 0 0 4.18-1.934c.024.033.047.067.076.1a5.5 5.5 0 0 1 8.488.005 5.485 5.485 0 0 0 4.085 1.829 5.503 5.503 0 0 0 0-11.004v-.005z"/><path fill="#A7ADBE" d="M28.363 14.666a4 4 0 1 0 0-7.999 4 4 0 0 0 0 8z"/><path fill="#6D7792" d="M28.363 33.334a4 4 0 1 0 0-8 4 4 0 0 0 0 8z"/></g><path fill="#575F75" d="M99.77 26.945v-10h1.972v2.435l-.24-.315c.123-.333.287-.636.49-.907.21-.278.46-.506.75-.685.247-.167.519-.297.815-.39.303-.098.611-.157.926-.175.315-.025.62-.013.917.037v2.083a2.865 2.865 0 0 0-1.028-.083 2.35 2.35 0 0 0-1.037.324 2.32 2.32 0 0 0-.759.639c-.192.26-.334.555-.426.889a3.882 3.882 0 0 0-.139 1.065v5.083H99.77zm-7.874.278c-.722 0-1.333-.136-1.833-.408a2.88 2.88 0 0 1-1.139-1.102 3.062 3.062 0 0 1-.38-1.509c0-.482.08-.914.241-1.296.16-.39.408-.723.74-1 .334-.284.766-.516 1.297-.695.401-.13.87-.247 1.408-.352.543-.105 1.13-.2 1.759-.287.636-.092 1.3-.191 1.99-.296l-.796.454c.006-.692-.148-1.2-.463-1.528-.314-.327-.845-.49-1.592-.49-.45 0-.886.104-1.306.314-.42.21-.713.571-.88 1.083l-2.036-.639a3.786 3.786 0 0 1 1.407-2.037c.697-.512 1.636-.768 2.815-.768.889 0 1.67.145 2.342.435.68.29 1.183.766 1.51 1.426.179.352.287.713.324 1.083.037.365.055.763.055 1.195v6.139h-1.953v-2.167l.324.352c-.451.722-.979 1.253-1.584 1.593-.599.333-1.349.5-2.25.5zm.445-1.778c.506 0 .938-.09 1.296-.269a2.53 2.53 0 0 0 .852-.657c.216-.26.361-.503.435-.732a2.78 2.78 0 0 0 .194-.972c.019-.37.028-.67.028-.898l.686.204c-.673.105-1.25.197-1.732.277-.481.08-.895.158-1.24.232a7.91 7.91 0 0 0-.917.231c-.26.093-.479.201-.658.325a1.436 1.436 0 0 0-.416.425 1.11 1.11 0 0 0-.14.565c0 .247.062.466.186.658.123.185.302.333.537.444.24.111.537.167.889.167zm-8.246 1.5V13.334h2.232v13.611h-2.232zm-5.19 0V13.334h2.231v13.611h-2.231zm-6.779.278c-1.013 0-1.901-.22-2.667-.658a4.682 4.682 0 0 1-1.796-1.824c-.426-.778-.64-1.673-.64-2.685 0-1.093.21-2.04.63-2.843a4.598 4.598 0 0 1 1.75-1.88c.747-.444 1.612-.666 2.593-.666 1.037 0 1.917.244 2.639.731.728.482 1.269 1.164 1.62 2.047.352.883.485 1.923.399 3.12H74.44v-.815c-.007-1.086-.198-1.88-.575-2.38-.376-.5-.969-.75-1.777-.75-.914 0-1.593.285-2.037.852-.445.562-.667 1.386-.667 2.473 0 1.012.222 1.796.667 2.352.444.555 1.092.833 1.944.833.55 0 1.022-.12 1.417-.361.401-.247.71-.602.926-1.065l2.203.667a4.47 4.47 0 0 1-1.777 2.102c-.797.5-1.676.75-2.64.75zm-3.445-4.658V20.88h6.88v1.685h-6.88zm-2.745 4.38a9.121 9.121 0 0 1-1.945.157c-.63-.012-1.194-.126-1.694-.342-.5-.223-.88-.571-1.14-1.047a2.983 2.983 0 0 1-.36-1.324 53.63 53.63 0 0 1-.019-1.528v-8.694H63v8.565c0 .401.004.753.01 1.055.012.303.077.55.194.741.222.37.577.577 1.065.62a7.152 7.152 0 0 0 1.667-.074v1.87zm-6.973-8.25v-1.75h6.973v1.75h-6.973zm-6.124 8.528c-.975 0-1.855-.17-2.64-.51a4.984 4.984 0 0 1-1.925-1.453c-.5-.636-.818-1.389-.954-2.26l2.315-.351c.198.79.602 1.401 1.213 1.833.617.433 1.327.649 2.13.649.475 0 .923-.075 1.342-.223a2.45 2.45 0 0 0 1.019-.648c.265-.284.398-.633.398-1.046 0-.185-.03-.355-.093-.51a1.21 1.21 0 0 0-.277-.425 1.719 1.719 0 0 0-.463-.334 3.15 3.15 0 0 0-.649-.268l-3.444-1.019a9.705 9.705 0 0 1-.963-.342 4.151 4.151 0 0 1-.972-.602 3.095 3.095 0 0 1-.75-.982c-.191-.4-.287-.895-.287-1.481 0-.858.216-1.577.648-2.158.438-.586 1.025-1.024 1.76-1.314.74-.29 1.561-.432 2.462-.426.914.006 1.729.163 2.445.472a4.642 4.642 0 0 1 1.796 1.324c.481.58.82 1.28 1.018 2.102l-2.398.416a2.604 2.604 0 0 0-.574-1.194 2.68 2.68 0 0 0-1.028-.76 3.459 3.459 0 0 0-2.527-.073 2.228 2.228 0 0 0-.917.592 1.33 1.33 0 0 0-.343.908c0 .327.1.595.297.805.197.204.441.368.731.491.296.117.596.216.898.296l2.39.667c.326.086.694.204 1.101.352.407.148.8.355 1.176.62.377.266.685.614.926 1.047.247.432.37.981.37 1.648 0 .691-.145 1.3-.435 1.824-.284.518-.67.95-1.157 1.296a5.293 5.293 0 0 1-1.676.778 7.313 7.313 0 0 1-1.963.26z"/><defs><clipPath id="a"><path fill="#fff" d="M14.444 6.667h27.832v26.667H14.444z"/></clipPath></defs></svg>