<svg xmlns="http://www.w3.org/2000/svg" width="102" height="34" fill="none"><g clip-path="url(#a)"><path fill="#575F75" d="M31.262 12.184a4.66 4.66 0 0 0-3.126 1.204 4.664 4.664 0 0 1-7.496.568.054.054 0 0 0-.012.016 4.658 4.658 0 0 0-3.67-1.784 4.678 4.678 0 0 0 0 9.353c1.426 0 2.699-.64 3.553-1.643.02.028.04.056.064.084a4.675 4.675 0 0 1 7.215.004 4.662 4.662 0 0 0 3.472 1.555 4.678 4.678 0 0 0 0-9.353v-.004z"/><path fill="#A7ADBE" d="M24.108 12.466a3.4 3.4 0 1 0 0-6.8 3.4 3.4 0 0 0 0 6.8z"/><path fill="#6D7792" d="M24.108 28.333a3.4 3.4 0 1 0 0-6.8 3.4 3.4 0 0 0 0 6.8z"/></g><path fill="#575F75" d="M84.804 22.901v-8.5h1.676v2.07l-.205-.267a3.03 3.03 0 0 1 .418-.772c.178-.236.39-.43.637-.582.21-.142.44-.252.693-.33.257-.085.52-.134.787-.15a3.2 3.2 0 0 1 .779.031v1.771a2.431 2.431 0 0 0-.874-.07 2 2 0 0 0-.881.275 1.982 1.982 0 0 0-.646.543c-.162.22-.283.472-.362.755a3.34 3.34 0 0 0-.118.905v4.321h-1.904zm-6.692.237c-.614 0-1.134-.115-1.559-.346a2.45 2.45 0 0 1-.968-.937 2.603 2.603 0 0 1-.322-1.282c0-.41.068-.777.204-1.102.137-.33.347-.614.63-.85.283-.242.65-.438 1.102-.59.34-.11.74-.21 1.196-.3.462-.089.96-.17 1.496-.244.54-.078 1.104-.162 1.692-.252l-.677.386c.005-.587-.126-1.02-.394-1.298-.267-.279-.719-.418-1.353-.418-.384 0-.753.09-1.11.268-.357.178-.606.485-.748.92l-1.731-.542a3.217 3.217 0 0 1 1.196-1.732c.593-.435 1.39-.653 2.392-.653.756 0 1.42.123 1.992.37.577.247 1.004.65 1.283 1.212.152.299.244.606.275.92.032.31.047.649.047 1.016v5.218h-1.66v-1.841l.275.299c-.383.613-.832 1.065-1.346 1.353-.509.284-1.146.425-1.912.425zm.378-1.51c.43 0 .797-.077 1.101-.23a2.15 2.15 0 0 0 .725-.558c.183-.22.306-.427.37-.622.1-.241.154-.517.165-.826.015-.315.023-.57.023-.764l.583.174c-.572.089-1.063.168-1.472.236-.41.068-.76.134-1.055.197a6.727 6.727 0 0 0-.779.196 2.41 2.41 0 0 0-.559.276 1.22 1.22 0 0 0-.354.362.944.944 0 0 0-.118.48c0 .21.053.396.157.559.105.157.258.283.457.377.205.095.457.142.756.142zm-7.01 1.273V11.332h1.897v11.57h-1.896zm-4.412 0V11.332h1.897v11.57h-1.897zm-5.762.237c-.86 0-1.616-.186-2.266-.559a3.979 3.979 0 0 1-1.527-1.55c-.362-.661-.543-1.422-.543-2.282 0-.93.178-1.735.535-2.417a3.91 3.91 0 0 1 1.487-1.597c.635-.378 1.37-.567 2.204-.567.882 0 1.63.207 2.243.622.62.409 1.078.989 1.378 1.74.299.75.411 1.634.338 2.651h-1.881v-.692c-.005-.924-.168-1.598-.488-2.023-.32-.425-.824-.637-1.511-.637-.777 0-1.354.241-1.732.724-.377.477-.566 1.178-.566 2.101 0 .86.189 1.527.566 2 .378.471.929.707 1.653.707.467 0 .869-.102 1.204-.306.341-.21.604-.512.787-.905l1.874.566a3.797 3.797 0 0 1-1.512 1.787 4.134 4.134 0 0 1-2.243.637zM58.38 19.18v-1.432h5.847v1.432H58.38zm-2.335 3.722a7.742 7.742 0 0 1-1.653.134 3.787 3.787 0 0 1-1.44-.291 1.996 1.996 0 0 1-.969-.89 2.536 2.536 0 0 1-.306-1.125 45.844 45.844 0 0 1-.016-1.299v-7.39h1.889v7.28c0 .341.002.64.008.897.01.257.065.467.165.63.189.315.49.49.905.527.414.037.887.016 1.417-.063v1.59zm-5.927-7.012v-1.488h5.927v1.488h-5.927zm-5.206 7.248c-.829 0-1.576-.145-2.243-.433a4.238 4.238 0 0 1-1.637-1.236c-.425-.54-.695-1.18-.81-1.92l1.967-.3c.168.672.512 1.192 1.031 1.559.525.367 1.128.55 1.81.55.404 0 .785-.062 1.142-.188.357-.126.645-.31.865-.55.226-.242.339-.539.339-.89 0-.158-.026-.302-.079-.433a1.028 1.028 0 0 0-.236-.362c-.1-.105-.23-.2-.394-.284a2.672 2.672 0 0 0-.55-.228l-2.928-.865a8.24 8.24 0 0 1-.819-.292 3.526 3.526 0 0 1-.826-.511 2.632 2.632 0 0 1-.638-.834c-.162-.341-.244-.761-.244-1.26 0-.73.184-1.34.551-1.834a3.36 3.36 0 0 1 1.496-1.117c.63-.247 1.327-.367 2.093-.362.777.005 1.47.139 2.078.401a3.947 3.947 0 0 1 1.527 1.126c.41.493.698 1.088.866 1.786l-2.039.354A2.214 2.214 0 0 0 46.746 14a2.277 2.277 0 0 0-.873-.645 2.938 2.938 0 0 0-2.149-.063c-.32.115-.58.283-.78.504a1.13 1.13 0 0 0-.29.77c0 .279.084.507.252.685.167.174.375.313.621.418.252.1.507.183.764.252l2.03.566c.278.074.59.173.937.3.346.125.68.3 1 .527.32.225.582.522.786.889.21.367.315.834.315 1.4 0 .588-.123 1.105-.37 1.551a3.245 3.245 0 0 1-.983 1.102c-.415.294-.89.514-1.425.661-.53.147-1.086.22-1.669.22z"/><defs><clipPath id="a"><path fill="#fff" d="M12.277 5.666h23.658v22.667H12.277z"/></clipPath></defs></svg>