<svg xmlns="http://www.w3.org/2000/svg" width="102" height="34" fill="none"><g fill="#575F75" clip-path="url(#a)"><path d="M19.604 28.27c-.043.032-.107-.008-.108-.061-.147-7.59-5.99-14.265-14.48-14.618-.112-.005-.179-.142-.1-.22 2.514-2.515 5.029-5.03 7.537-7.55.143-.143.267-.187.46-.137 6.616 1.705 11.346 5.558 13.78 12.03.304.81.485 1.668.709 2.508a.402.402 0 0 1-.08.324 5109.68 5109.68 0 0 1-7.718 7.724z"/><path d="M4.835 17c.616-.648 1.232-1.314 1.88-1.955.093-.093.33-.087.485-.056 1.394.262 2.713.76 3.958 1.438 3.784 2.085 6.056 5.278 6.946 9.485.05.236.006.398-.168.579-.598.585-1.177 1.195-1.768 1.798-.012.013-.03.02-.074.044-.131-3.08-1.09-5.82-3.324-7.997-2.222-2.166-4.935-3.18-7.935-3.336z"/><path d="M12.658 28.32c-.162-5.122-4.27-7.829-7.935-7.904.1-.105.161-.186.236-.26.51-.499 1.033-.99 1.531-1.507.206-.218.398-.268.679-.187 3.69 1.04 6.155 3.349 7.35 7.014.186.585.15.99-.349 1.395-.535.429-1.002.952-1.512 1.45z"/><path d="M9.248 28.27c-.156-2.608-2.08-4.288-4.513-4.45.069-.081.125-.15.18-.212.536-.523 1.071-1.04 1.6-1.568.137-.143.256-.162.436-.093 2.079.753 3.436 2.215 4.201 4.256.031.075.019.218-.031.268-.629.61-1.257 1.207-1.873 1.799z"/></g><path fill="#575F75" d="M96.828 22.435V17.78c0-.525-.13-.934-.39-1.228-.261-.298-.614-.447-1.059-.447-.274 0-.52.064-.738.192-.217.123-.39.307-.518.553-.128.242-.191.53-.191.866l-.76-.447c-.005-.53.114-.996.355-1.398.246-.407.577-.724.994-.951.416-.227.88-.34 1.39-.34.848 0 1.496.255 1.946.766.454.506.681 1.173.681 2.001v5.09h-1.71zm-9.22 0V14.77h1.511v2.378h.213v5.287h-1.725zm4.62 0v-4.634c0-.535-.13-.952-.39-1.25-.26-.298-.615-.447-1.065-.447-.435 0-.785.15-1.05.447-.26.298-.39.686-.39 1.164l-.767-.51c0-.497.123-.945.369-1.342.246-.398.577-.71.993-.937a2.88 2.88 0 0 1 1.413-.348c.572 0 1.05.123 1.434.37.388.24.676.572.866.993.194.416.29.887.29 1.412v5.082h-1.703zm-10.618.22c-.567 0-1.036-.094-1.405-.284a2.467 2.467 0 0 1-.88-.724 3.154 3.154 0 0 1-.483-.937 5.02 5.02 0 0 1-.206-.937 7.972 7.972 0 0 1-.042-.724v-4.28h1.732v3.691c0 .237.016.504.05.802.032.294.108.578.226.852.123.27.303.492.54.667.241.175.565.263.972.263.218 0 .433-.035.646-.107a1.46 1.46 0 0 0 .575-.361 1.85 1.85 0 0 0 .419-.717c.104-.303.156-.687.156-1.15l1.015.433c0 .653-.128 1.244-.383 1.774-.251.53-.623.954-1.115 1.27-.492.313-1.097.47-1.817.47zm2.506-.22v-2.378h-.206V14.77h1.718v7.665h-1.512zm-11.051.001V14.77h1.512v1.867l-.184-.241a2.71 2.71 0 0 1 .376-.696c.16-.213.352-.388.575-.525.19-.128.397-.227.624-.298a2.81 2.81 0 0 1 .71-.135c.242-.019.476-.01.703.028v1.597a2.192 2.192 0 0 0-.788-.064 1.806 1.806 0 0 0-.795.249c-.237.128-.43.29-.582.49a2.064 2.064 0 0 0-.326.681c-.071.25-.107.523-.107.816v3.897h-1.718zm-1.648 0a6.99 6.99 0 0 1-1.49.12 3.415 3.415 0 0 1-1.3-.262 1.8 1.8 0 0 1-.873-.802 2.288 2.288 0 0 1-.276-1.015c-.01-.346-.015-.736-.015-1.172v-6.664h1.704v6.565c0 .308.002.577.007.81.01.231.06.42.15.567.17.284.442.443.815.476.374.033.8.014 1.278-.057v1.434zm-5.345-6.325V14.77h5.345v1.341h-5.345zm-3.984 6.537c-.79 0-1.465-.175-2.023-.525a3.496 3.496 0 0 1-1.285-1.448c-.293-.61-.442-1.301-.447-2.073.005-.785.159-1.48.461-2.086a3.48 3.48 0 0 1 1.306-1.434c.563-.35 1.233-.525 2.009-.525.87 0 1.606.22 2.208.66.605.435 1 1.031 1.185 1.788l-1.704.462c-.132-.412-.352-.731-.66-.958a1.7 1.7 0 0 0-1.05-.348c-.445 0-.812.106-1.1.32a1.815 1.815 0 0 0-.64.865 3.62 3.62 0 0 0-.205 1.256c0 .73.163 1.318.49 1.768.326.45.811.674 1.455.674.454 0 .811-.104 1.072-.312.265-.209.463-.509.596-.902l1.746.39c-.237.781-.65 1.382-1.242 1.803-.592.417-1.316.625-2.172.625zm-8.383 0c-.776 0-1.458-.168-2.044-.504a3.589 3.589 0 0 1-1.377-1.398c-.327-.596-.49-1.282-.49-2.058 0-.838.16-1.564.483-2.18a3.51 3.51 0 0 1 1.341-1.44c.573-.341 1.235-.511 1.987-.511.795 0 1.47.186 2.023.56.559.37.973.892 1.242 1.569.27.677.372 1.474.306 2.392h-1.697v-.625c-.004-.832-.151-1.44-.44-1.824-.288-.383-.743-.575-1.363-.575-.7 0-1.22.218-1.561.653-.34.43-.511 1.063-.511 1.895 0 .776.17 1.377.51 1.803.342.426.839.639 1.492.639.42 0 .783-.092 1.085-.277.308-.19.545-.461.71-.816l1.69.511a3.424 3.424 0 0 1-1.363 1.611 3.728 3.728 0 0 1-2.023.575zm-2.64-3.57v-1.292h5.273v1.292h-5.273zm-5.909 3.57c-.748 0-1.375-.177-1.881-.532a3.258 3.258 0 0 1-1.143-1.448c-.255-.615-.383-1.304-.383-2.066 0-.77.128-1.462.383-2.072.256-.61.63-1.09 1.122-1.441.497-.355 1.11-.532 1.838-.532.724 0 1.351.177 1.881.532.535.35.949.83 1.242 1.44.293.607.44 1.297.44 2.073 0 .767-.144 1.455-.433 2.066a3.523 3.523 0 0 1-1.22 1.448c-.526.355-1.141.532-1.846.532zm-3.698 3.194V14.77h1.512v5.38h.213v5.692h-1.725zm3.435-4.727c.445 0 .812-.111 1.1-.334.29-.222.502-.522.64-.901a3.68 3.68 0 0 0 .212-1.278c0-.463-.07-.884-.213-1.263a1.943 1.943 0 0 0-.66-.909c-.298-.227-.676-.34-1.135-.34-.436 0-.79.106-1.065.32-.275.207-.478.5-.61.88-.128.373-.192.81-.192 1.312 0 .497.064.935.191 1.314.133.378.339.674.618.887.284.208.655.312 1.114.312zm-8.967 1.533c-.748 0-1.422-.13-2.023-.39a3.82 3.82 0 0 1-1.477-1.114 3.66 3.66 0 0 1-.73-1.732l1.774-.27c.151.606.461 1.074.93 1.405a2.776 2.776 0 0 0 1.632.497 3.07 3.07 0 0 0 1.03-.17 1.88 1.88 0 0 0 .78-.497 1.13 1.13 0 0 0 .305-.802 1.04 1.04 0 0 0-.07-.39.928.928 0 0 0-.214-.327 1.316 1.316 0 0 0-.355-.256 2.417 2.417 0 0 0-.496-.205l-2.64-.781a7.422 7.422 0 0 1-.739-.263 3.18 3.18 0 0 1-.745-.461 2.375 2.375 0 0 1-.575-.752c-.147-.308-.22-.687-.22-1.136 0-.658.165-1.209.497-1.654a3.03 3.03 0 0 1 1.348-1.008 5.039 5.039 0 0 1 1.888-.326c.7.005 1.325.125 1.874.362a3.56 3.56 0 0 1 1.377 1.015c.37.444.63.982.78 1.61l-1.837.32a1.997 1.997 0 0 0-.44-.915 2.054 2.054 0 0 0-.788-.582 2.65 2.65 0 0 0-1.938-.057 1.708 1.708 0 0 0-.703.454 1.02 1.02 0 0 0-.263.696c0 .25.076.456.228.617.151.156.338.282.56.377.227.09.457.165.689.227l1.831.51c.25.067.532.157.845.27.312.114.613.272.901.476.289.203.525.47.71.802.19.331.284.752.284 1.263 0 .53-.111.996-.334 1.399a2.927 2.927 0 0 1-.887.993 4.054 4.054 0 0 1-1.285.596c-.478.133-.98.2-1.504.2z"/><defs><clipPath id="a"><path fill="#fff" d="M4.723 5.666h22.685v22.667H4.723z"/></clipPath></defs></svg>