<svg xmlns="http://www.w3.org/2000/svg" width="102" height="34" fill="none"><g fill="#575F75" clip-path="url(#a)"><path d="M19.516 17.081c.378-.104.82-.129 1.214.034a4.507 4.507 0 0 1 .853.457c.278.184.526.399.769.65a4.956 4.956 0 0 1 1.101 1.869 5.94 5.94 0 0 1 .244 2.478 7.108 7.108 0 0 1-.875 2.68 2.681 2.681 0 0 1-1.283 1.131c-.129.051-.258.09-.384.117-.126.028-.25.044-.373.043a1.41 1.41 0 0 1-.662-.147c-.384-.204-.56-.562-.58-.95-.021-.39.106-.811.364-1.196.32-.481.54-1.011.654-1.544a4.112 4.112 0 0 0 .036-1.559 4.122 4.122 0 0 0-.199-.713 4.241 4.241 0 0 0-.143-.33 3.926 3.926 0 0 0-1.095-1.328c-.295-.235-.487-.484-.555-.7-.075-.221-.026-.416.167-.601.088-.083.194-.16.325-.224a2.12 2.12 0 0 1 .422-.166zm-2.581 4.306c.276.272.52.64.578 1.067.023.16.035.316.04.478a4.582 4.582 0 0 1-.186 1.475 4.917 4.917 0 0 1-1.07 1.889 5.947 5.947 0 0 1-2.02 1.446 6.987 6.987 0 0 1-2.76.588 2.684 2.684 0 0 1-1.627-.549c-.435-.34-.703-.789-.72-1.224-.014-.434.209-.766.534-.977.162-.104.354-.184.56-.231.204-.044.428-.067.66-.049a4.478 4.478 0 0 0 1.665-.204 4.35 4.35 0 0 0 .733-.315c.115-.066.226-.134.33-.206a3.908 3.908 0 0 0 1.036-1.05c.066-.1.128-.196.183-.303.223-.416.36-.86.424-1.305.027-.19.073-.355.13-.492a1.231 1.231 0 0 1 .145-.27.85.85 0 0 1 .055-.072c.156-.168.345-.231.603-.154a1.53 1.53 0 0 1 .353.17c.12.077.242.177.354.286v.002zm-5.012-.082c-.098.374-.297.769-.636 1.034a4.677 4.677 0 0 1-1.767.846 4.966 4.966 0 0 1-2.17.02 5.934 5.934 0 0 1-2.267-1.024 6.986 6.986 0 0 1-1.889-2.104 2.651 2.651 0 0 1-.301-1.882c.015-.065.035-.128.054-.19a2.04 2.04 0 0 1 .15-.345c.12-.21.28-.38.461-.497.365-.23.764-.202 1.112-.027.176.088.336.213.478.367a2 2 0 0 1 .205.253c.061.091.116.19.17.294.255.519.601.977 1.007 1.341a4.12 4.12 0 0 0 1.332.81 3.922 3.922 0 0 0 1.43.227 3.988 3.988 0 0 0 1.342-.287 2.07 2.07 0 0 1 .493-.134 1.72 1.72 0 0 1 .213-.015c.067 0 .126.01.183.02.228.051.378.188.44.45.056.234.04.53-.042.842h.002zm-2.438-4.389c-.377.103-.82.129-1.213-.034a4.517 4.517 0 0 1-.853-.457 4.601 4.601 0 0 1-.769-.65 4.956 4.956 0 0 1-1.102-1.87 5.941 5.941 0 0 1-.243-2.477 7.105 7.105 0 0 1 .875-2.68 2.68 2.68 0 0 1 1.283-1.132c.128-.05.258-.088.384-.116a1.65 1.65 0 0 1 .373-.043c.244 0 .467.045.661.147.385.204.56.562.581.95.021.39-.106.81-.365 1.196a4.497 4.497 0 0 0-.653 1.544 4.111 4.111 0 0 0-.036 1.559 4.09 4.09 0 0 0 .199.713c.043.114.09.223.143.33a3.925 3.925 0 0 0 1.095 1.328c.295.235.487.483.555.7.075.221.025.416-.167.601-.088.083-.194.16-.325.224a2.12 2.12 0 0 1-.423.165v.002zm2.581-4.304c-.276-.273-.52-.641-.578-1.068a4.582 4.582 0 0 1 .147-1.953 4.916 4.916 0 0 1 1.07-1.889 5.945 5.945 0 0 1 2.018-1.446 6.96 6.96 0 0 1 2.76-.59 2.684 2.684 0 0 1 1.628.549c.435.34.703.789.72 1.224.014.434-.209.766-.534.977a1.778 1.778 0 0 1-.56.23 2.287 2.287 0 0 1-.66.05 4.478 4.478 0 0 0-1.665.204 4.26 4.26 0 0 0-.733.315 5.17 5.17 0 0 0-.33.206 3.907 3.907 0 0 0-1.036 1.05c-.066.1-.128.196-.183.303-.223.416-.36.86-.424 1.305-.026.19-.073.355-.13.492a1.24 1.24 0 0 1-.145.27.85.85 0 0 1-.055.072c-.156.168-.347.232-.603.154a1.538 1.538 0 0 1-.353-.17 2.342 2.342 0 0 1-.354-.287v.002zm5.013.082c.098-.375.296-.77.636-1.034a4.676 4.676 0 0 1 1.767-.847 4.966 4.966 0 0 1 2.17-.02 5.933 5.933 0 0 1 2.267 1.024 6.987 6.987 0 0 1 1.888 2.104 2.651 2.651 0 0 1 .302 1.883 2.104 2.104 0 0 1-.056.19 1.92 1.92 0 0 1-.15.344c-.119.21-.28.38-.46.497-.366.23-.764.202-1.113.028a1.68 1.68 0 0 1-.478-.368 1.99 1.99 0 0 1-.204-.253 2.997 2.997 0 0 1-.171-.294 4.417 4.417 0 0 0-1.006-1.34 4.129 4.129 0 0 0-1.333-.81 3.961 3.961 0 0 0-.717-.184 3.7 3.7 0 0 0-.713-.044 3.988 3.988 0 0 0-1.342.288 2.101 2.101 0 0 1-.493.134 1.723 1.723 0 0 1-.212.015.958.958 0 0 1-.184-.021c-.227-.051-.378-.187-.439-.45-.056-.234-.04-.53.042-.841l-.001-.002z"/></g><path fill="#575F75" d="M98.418 22.903V17.74c0-.583-.144-1.037-.433-1.362-.288-.33-.68-.496-1.172-.496-.305 0-.578.07-.82.212a1.45 1.45 0 0 0-.574.614c-.141.268-.212.588-.212.96l-.842-.495c-.006-.588.126-1.105.393-1.55.273-.452.64-.804 1.102-1.056a3.169 3.169 0 0 1 1.543-.377c.94 0 1.658.283 2.157.85.503.561.755 1.301.755 2.22v5.643h-1.897zm-10.225 0v-8.501h1.677v2.637h.236v5.864h-1.913zm5.125 0v-5.14c0-.593-.145-1.055-.433-1.385-.289-.33-.683-.496-1.181-.496-.483 0-.871.165-1.165.496-.289.33-.433.76-.433 1.29l-.85-.566c0-.551.136-1.047.41-1.488.272-.44.64-.787 1.101-1.039.467-.257.99-.385 1.567-.385.635 0 1.165.136 1.59.409.43.267.75.635.96 1.102.215.462.323.984.323 1.566v5.636h-1.89zm-11.775.245c-.63 0-1.15-.105-1.559-.315a2.752 2.752 0 0 1-.976-.803 3.492 3.492 0 0 1-.535-1.04 5.555 5.555 0 0 1-.228-1.038 8.84 8.84 0 0 1-.048-.803v-4.747h1.92v4.094c0 .262.02.558.056.889.037.325.12.64.252.944.136.3.336.546.598.74.268.195.627.292 1.079.292.24 0 .48-.04.716-.118a1.62 1.62 0 0 0 .637-.402c.195-.194.35-.459.465-.795.115-.336.173-.76.173-1.275l1.126.48c0 .724-.142 1.38-.425 1.968a3.347 3.347 0 0 1-1.236 1.409c-.546.346-1.218.52-2.015.52zm2.778-.244v-2.637h-.228v-5.865h1.905v8.502H84.32zm-7.794 0a7.756 7.756 0 0 1-1.653.133 3.788 3.788 0 0 1-1.44-.29 1.997 1.997 0 0 1-.969-.89 2.535 2.535 0 0 1-.307-1.126 47.86 47.86 0 0 1-.016-1.299v-7.391h1.89v7.281c0 .341.002.64.007.897.01.258.066.467.166.63.189.315.49.49.905.527a6.05 6.05 0 0 0 1.417-.063v1.59zM70.6 15.89v-1.488h5.927v1.488H70.6zm-3.03 7.013V18.81a7.97 7.97 0 0 0-.056-.89 3.076 3.076 0 0 0-.26-.936 1.775 1.775 0 0 0-.598-.748c-.262-.194-.619-.291-1.07-.291-.242 0-.48.04-.716.118a1.643 1.643 0 0 0-.646.41c-.189.188-.34.45-.456.787-.116.33-.174.755-.174 1.275l-1.125-.48c0-.725.139-1.38.417-1.968a3.35 3.35 0 0 1 1.244-1.401c.546-.352 1.217-.528 2.015-.528.63 0 1.149.105 1.558.315.41.21.735.478.976.803.242.325.42.672.536 1.039.115.367.189.716.22 1.047.037.325.055.59.055.795v4.746h-1.92zm-5.896 0v-8.5h1.692v2.636h.228v5.864h-1.92zm-6.678.237c-.614 0-1.134-.116-1.559-.347a2.45 2.45 0 0 1-.968-.937 2.603 2.603 0 0 1-.322-1.283c0-.409.068-.776.204-1.102.137-.33.346-.614.63-.85.283-.241.65-.438 1.102-.59.34-.11.74-.21 1.196-.3.462-.088.96-.17 1.496-.243.54-.079 1.105-.163 1.692-.252l-.677.386c.005-.588-.126-1.021-.393-1.3-.268-.277-.72-.416-1.354-.416-.383 0-.753.089-1.11.267-.357.179-.606.486-.748.921l-1.732-.543a3.218 3.218 0 0 1 1.197-1.732c.593-.435 1.39-.653 2.393-.653.755 0 1.42.123 1.991.37.578.247 1.005.65 1.283 1.212.152.3.244.606.276.921.031.31.047.648.047 1.015v5.22h-1.66V21.06l.275.3c-.383.613-.832 1.065-1.346 1.353-.51.284-1.147.425-1.913.425zm.378-1.512c.43 0 .797-.076 1.102-.228a2.15 2.15 0 0 0 .724-.559c.184-.22.307-.428.37-.622.1-.241.155-.517.165-.826.016-.315.024-.57.024-.764l.582.173c-.572.09-1.062.168-1.472.236-.409.069-.76.134-1.054.197a6.704 6.704 0 0 0-.78.197 2.41 2.41 0 0 0-.559.276c-.152.104-.27.225-.354.362a.944.944 0 0 0-.118.48c0 .21.053.396.158.559.105.157.257.283.456.377.205.095.457.142.756.142zm-9.422 1.52c-.63 0-1.15-.105-1.559-.315a2.752 2.752 0 0 1-.976-.803 3.495 3.495 0 0 1-.535-1.04 5.562 5.562 0 0 1-.228-1.038 8.847 8.847 0 0 1-.048-.803v-4.747h1.921v4.094c0 .262.018.558.055.889.037.325.12.64.252.944.136.3.336.546.598.74.268.195.627.292 1.079.292.241 0 .48-.04.716-.118a1.62 1.62 0 0 0 .638-.402c.194-.194.349-.459.464-.795.115-.336.173-.76.173-1.275l1.126.48c0 .724-.142 1.38-.425 1.968a3.348 3.348 0 0 1-1.236 1.409c-.546.346-1.218.52-2.015.52zm2.778-.244v-2.637h-.228v-5.865h1.905v8.502H48.73zm-8.886.236-3.236-3.22 1.189-1.189 3.22 3.22-1.173 1.188zm-4.078 0c-1.133 0-2.104-.248-2.912-.74a4.944 4.944 0 0 1-1.866-2.079c-.43-.887-.645-1.915-.645-3.085s.215-2.2.645-3.086c.436-.887 1.058-1.577 1.866-2.07.808-.499 1.779-.748 2.912-.748 1.134 0 2.105.25 2.913.748a4.826 4.826 0 0 1 1.865 2.07c.436.887.654 1.915.654 3.086 0 1.17-.218 2.198-.654 3.085A4.876 4.876 0 0 1 38.68 22.4c-.809.493-1.78.74-2.913.74zm0-1.788c.761.006 1.393-.162 1.897-.503.51-.341.89-.822 1.142-1.44.257-.62.385-1.344.385-2.173 0-.83-.128-1.549-.386-2.157-.251-.614-.632-1.092-1.14-1.433-.505-.34-1.137-.517-1.898-.527-.76-.005-1.393.162-1.897.504-.504.34-.884.82-1.141 1.44-.252.62-.378 1.344-.378 2.173s.126 1.55.378 2.164c.252.609.63 1.084 1.133 1.425.51.341 1.144.517 1.905.527z"/><defs><clipPath id="a"><path fill="#fff" d="M2.833 5.666h23.335v22.667H2.833z"/></clipPath></defs></svg>