<svg width="200" height="46" viewBox="0 0 200 46" fill="none" xmlns="http://www.w3.org/2000/svg">
<path d="M1.1875 16.9848L19.2116 16.9884L30.1715 16.9902V6.13184L1.1875 16.9848Z" fill="#FF9D28"/>
<path d="M30.1719 6.1322V44.4678L43.8605 1.00488L30.1719 6.1322Z" fill="#68C5ED"/>
<path d="M30.1708 16.9901L19.2109 16.9883L30.1708 44.4674V16.9901Z" fill="#044D80"/>
<path d="M1.1875 16.9844L22.0222 24.0387L19.2116 16.988L1.1875 16.9844Z" fill="#E54747"/>
<path d="M67.585 34.3763C67.4261 34.5353 67.1612 34.7336 66.791 34.9717C66.42 35.2101 65.9374 35.4483 65.3419 35.6867C64.7465 35.9246 64.0182 36.1294 63.1585 36.302C62.2979 36.4737 61.3124 36.5599 60.2008 36.5599C58.0568 36.5599 56.204 36.2156 54.6427 35.5279C53.0807 34.8401 51.7906 33.8799 50.7719 32.6495C49.7529 31.4186 49.0054 29.9632 48.529 28.282C48.0526 26.6014 47.8145 24.7555 47.8145 22.7436C47.8145 20.7326 48.0725 18.8728 48.5886 17.1656C49.1046 15.4584 49.8787 13.9833 50.9109 12.7388C51.9431 11.4951 53.2334 10.5222 54.7818 9.82061C56.33 9.11977 58.1494 8.76855 60.2404 8.76855C61.2727 8.76855 62.2056 8.86149 63.0394 9.04643C63.8731 9.23178 64.6007 9.45032 65.223 9.70153C65.8445 9.95341 66.3607 10.2176 66.7713 10.4956C67.1813 10.7735 67.4922 11.0056 67.7043 11.1903C67.9424 11.4026 68.1472 11.6538 68.3196 11.9446C68.4915 12.2362 68.5776 12.5538 68.5776 12.8976C68.5776 13.4273 68.3791 13.9564 67.9822 14.4856C67.5853 15.0154 67.1485 15.505 66.6719 15.9546C66.3543 15.637 65.9971 15.3133 65.6002 14.9821C65.2031 14.6512 64.7597 14.3604 64.2702 14.1086C63.7802 13.8573 63.2243 13.6457 62.6027 13.4733C61.9806 13.3014 61.2859 13.2152 60.5186 13.2152C59.1687 13.2152 58.0374 13.4869 57.1242 14.0291C56.2111 14.5719 55.4766 15.2797 54.9209 16.1532C54.3651 17.0267 53.9681 18.0259 53.7298 19.1507C53.4917 20.2759 53.3726 21.4205 53.3726 22.585C53.3726 23.8293 53.4917 25.0203 53.7298 26.1579C53.9679 27.2961 54.3779 28.3022 54.9606 29.1753C55.5423 30.0487 56.3035 30.7503 57.2433 31.2794C58.1823 31.8093 59.3535 32.0736 60.7567 32.0736C61.4973 32.0736 62.1791 31.9812 62.8013 31.7958C63.4227 31.6107 63.9723 31.3855 64.4487 31.1205C64.9251 30.8564 65.3421 30.5787 65.6993 30.2872C66.0566 29.996 66.3543 29.7449 66.5926 29.5326C66.7514 29.7183 66.9362 29.9435 67.1483 30.2077C67.3616 30.4748 67.5603 30.7532 67.7438 31.0415C67.9287 31.333 68.0875 31.6239 68.2202 31.9146C68.3523 32.2064 68.4186 32.4707 68.4186 32.7085C68.4186 33.0531 68.3523 33.344 68.2202 33.5822C68.0874 33.8205 67.8758 34.0854 67.585 34.3763ZM88.0441 31.3314C88.0441 33.4351 88.3498 34.9662 88.9626 35.9248C88.4834 36.1108 88.0373 36.2442 87.6246 36.324C87.2115 36.404 86.7791 36.4438 86.3266 36.4438C85.3682 36.4438 84.6423 36.2574 84.1501 35.8847C83.6571 35.5123 83.3443 34.9797 83.2115 34.287C82.6254 34.9001 81.8534 35.4191 80.895 35.8452C79.9364 36.2704 78.7645 36.4841 77.3803 36.4841C76.6614 36.4841 75.9426 36.3843 75.2237 36.1859C74.5046 35.9859 73.852 35.6613 73.2664 35.2107C72.6805 34.759 72.2014 34.1551 71.8287 33.3986C71.4555 32.642 71.2695 31.7198 71.2695 30.6318C71.2695 29.2781 71.5954 28.1762 72.248 27.3272C72.9003 26.4774 73.719 25.8074 74.7045 25.3162C75.6893 24.8255 76.7545 24.4877 77.8997 24.3015C79.0442 24.1154 80.0963 23.9964 81.0547 23.9426C81.3744 23.9164 81.687 23.9026 81.9934 23.9026H82.8521V23.1757C82.8521 22.1521 82.5787 21.425 82.0332 20.9945C81.4871 20.5638 80.6016 20.3479 79.3772 20.3479C78.2322 20.3479 77.2137 20.5345 76.3219 20.907C75.4295 21.2802 74.5577 21.7059 73.7059 22.1852C73.3327 21.7327 73.033 21.2336 72.8073 20.6874C72.5809 20.142 72.4678 19.7358 72.4678 19.4692C72.4678 19.0967 72.6737 18.7372 73.0869 18.3908C73.4994 18.0451 74.0654 17.7318 74.7843 17.4522C75.5034 17.1726 76.3283 16.9467 77.2607 16.7732C78.1923 16.6003 79.1776 16.5136 80.2162 16.5136C81.6539 16.5136 82.8721 16.6603 83.8705 16.953C84.869 17.2463 85.681 17.6987 86.3068 18.3109C86.9322 18.9239 87.3783 19.689 87.6447 20.6075C87.9106 21.5262 88.0442 22.5984 88.0442 23.8228L88.0441 31.3314ZM82.9317 26.6984H82.3727C82.1859 26.6984 81.9994 26.7122 81.8135 26.7385C81.1475 26.7921 80.4884 26.8718 79.8366 26.9778C79.1838 27.0847 78.6046 27.2711 78.0993 27.5372C77.5931 27.8036 77.1806 28.15 76.8611 28.5755C76.5415 29.0018 76.3818 29.548 76.3818 30.2133C76.3818 30.959 76.5946 31.591 77.0207 32.1104C77.4463 32.6297 78.1653 32.8893 79.1775 32.8893C79.683 32.8893 80.1624 32.8232 80.6154 32.6893C81.0678 32.5568 81.4671 32.3836 81.8135 32.1705C82.1593 31.9574 82.4326 31.7246 82.6323 31.4713C82.8319 31.2186 82.9318 30.9858 82.9318 30.7726L82.9317 26.6984ZM97.9883 18.83C98.4127 18.3245 99.0767 17.8115 99.979 17.2922C100.881 16.7729 102.023 16.5133 103.403 16.5133C104.386 16.5133 105.321 16.6799 106.21 17.0126C107.099 17.3458 107.889 17.8851 108.579 18.6302C109.269 19.376 109.82 20.3614 110.232 21.5859C110.643 22.811 110.849 24.3157 110.849 26.0991C110.849 28.176 110.61 29.8873 110.132 31.2317C109.654 32.5768 109.037 33.6419 108.281 34.4272C107.525 35.2127 106.682 35.7652 105.753 36.0846C104.824 36.404 103.895 36.5641 102.966 36.5641C102.196 36.5641 101.526 36.4774 100.955 36.3044C100.384 36.131 99.9 35.9386 99.5019 35.7252C99.1038 35.5124 98.7987 35.2997 98.5866 35.0861C98.3743 34.8733 98.2414 34.7265 98.1884 34.6465V44.465H92.7566V17.0724C92.8902 17.0463 93.0513 17.0195 93.2395 16.9927C93.4007 16.9666 93.5885 16.9464 93.8031 16.9327C94.0177 16.9196 94.2726 16.9128 94.5675 16.9128C95.4524 16.9128 96.2038 17.0595 96.8209 17.3522C97.4378 17.6455 97.8274 18.1378 97.9883 18.83ZM105.178 26.2189C105.178 25.4202 105.111 24.6751 104.979 23.9824C104.847 23.2903 104.628 22.6911 104.324 22.1851C104.019 21.6795 103.608 21.2864 103.092 21.0066C102.576 20.7271 101.947 20.5875 101.206 20.5875C100.095 20.5875 99.3202 20.8009 98.8831 21.2264C98.4464 21.6527 98.228 22.1189 98.228 22.6244V31.0921C98.4395 31.3054 98.8163 31.5579 99.3592 31.8509C99.9023 32.1441 100.531 32.29 101.246 32.29C102.596 32.29 103.589 31.758 104.224 30.6926C104.86 29.6277 105.178 28.1362 105.178 26.2189ZM115.041 33.0891C114.855 32.5568 114.735 31.9973 114.682 31.4114C114.628 30.8259 114.602 30.2403 114.602 29.6537V11.1212C114.788 11.0951 114.988 11.0683 115.201 11.0413C115.387 11.0152 115.587 10.9953 115.8 10.9815C116.013 10.9684 116.226 10.9616 116.439 10.9616C116.865 10.9616 117.291 11.0016 117.717 11.0813C118.143 11.1613 118.529 11.3211 118.876 11.5606C119.221 11.8002 119.501 12.1267 119.714 12.5391C119.927 12.9522 120.034 13.4916 120.034 14.1567V16.9924H125.625V21.0268H120.034V29.5441C120.034 31.4015 120.792 32.33 122.31 32.33C122.683 32.33 123.035 32.2704 123.369 32.1502C123.701 32.0305 124.001 31.8976 124.267 31.751C124.533 31.6046 124.766 31.4515 124.966 31.2917C125.166 31.1318 125.306 31.0122 125.385 30.9323C125.785 31.5185 126.091 32.0258 126.304 32.454C126.517 32.8827 126.624 33.285 126.624 33.6608C126.624 34.0106 126.484 34.3535 126.204 34.6893C125.924 35.025 125.531 35.3347 125.026 35.6167C124.52 35.8987 123.908 36.1271 123.189 36.3019C122.47 36.4767 121.684 36.5642 120.832 36.5642C119.181 36.5642 117.897 36.2444 116.978 35.6056C116.06 34.9662 115.414 34.1274 115.041 33.0891ZM139.382 32.5697C140.05 32.5697 140.638 32.4968 141.146 32.35C141.653 32.2041 142.107 32.0242 142.508 31.8112C142.909 31.5983 143.256 31.3653 143.55 31.1122C143.844 30.8594 144.111 30.6264 144.352 30.413C144.672 30.8122 145.006 31.3253 145.354 31.9505C145.701 32.5768 145.875 33.0891 145.875 33.4883C145.875 34.0743 145.542 34.6069 144.877 35.0861C144.318 35.5124 143.525 35.8786 142.5 36.1843C141.475 36.4903 140.27 36.6437 138.886 36.6437C137.634 36.6437 136.402 36.4841 135.191 36.1644C133.98 35.8451 132.901 35.2857 131.956 34.4868C131.011 33.6883 130.245 32.6167 129.66 31.2718C129.074 29.9272 128.781 28.23 128.781 26.1791C128.781 24.5015 129.041 23.0575 129.56 21.8456C130.079 20.6342 130.771 19.629 131.637 18.8301C132.502 18.0313 133.48 17.4459 134.572 17.0726C135.664 16.7001 136.782 16.5135 137.927 16.5135C139.418 16.5135 140.683 16.7469 141.721 17.2124C142.76 17.6786 143.605 18.3045 144.258 19.0897C144.91 19.8752 145.382 20.7739 145.675 21.7857C145.968 22.7979 146.115 23.8626 146.115 24.981V25.54C146.115 25.7537 146.108 25.9794 146.095 26.219C146.081 26.4589 146.068 26.6922 146.055 26.918C146.041 27.1448 146.021 27.3243 145.995 27.4573H134.213C134.32 28.9219 134.774 30.14 135.575 31.1122C136.376 32.0844 137.645 32.5697 139.382 32.5697ZM141.202 24.4616C141.202 23.1835 140.954 22.1451 140.459 21.3462C139.963 20.5475 139.072 20.1479 137.788 20.1479C136.689 20.1479 135.812 20.5275 135.157 21.2864C134.5 22.0453 134.173 23.1037 134.173 24.4615L141.202 24.4616ZM155.567 18.9309C155.727 18.6933 155.94 18.4293 156.206 18.1383C156.472 17.8477 156.798 17.5835 157.185 17.3459C157.57 17.1082 157.996 16.9096 158.463 16.7512C158.928 16.5927 159.428 16.5135 159.961 16.5135C160.28 16.5135 160.62 16.5403 160.979 16.5927C161.338 16.6457 161.671 16.7449 161.977 16.8898C162.283 17.0352 162.53 17.233 162.716 17.4839C162.902 17.7349 162.996 18.045 162.996 18.4145C162.996 18.9955 162.849 19.6627 162.556 20.4159C162.263 21.1698 161.971 21.8127 161.678 22.345C161.225 21.9723 160.772 21.686 160.32 21.4862C159.867 21.2866 159.334 21.1866 158.722 21.1866C157.897 21.1866 157.205 21.427 156.646 21.9075C156.086 22.388 155.807 22.9622 155.807 23.6298V36.5597H150.375V17.0724C150.508 17.0463 150.668 17.0195 150.854 16.9927C151.014 16.9666 151.2 16.9464 151.413 16.9327C151.626 16.9196 151.879 16.9128 152.172 16.9128C153.024 16.9128 153.763 17.078 154.389 17.4078C155.014 17.7371 155.407 18.2452 155.567 18.9309ZM171.01 18.9309C171.17 18.6933 171.383 18.4293 171.649 18.1383C171.915 17.8477 172.242 17.5835 172.628 17.3459C173.014 17.1082 173.44 16.9096 173.906 16.7512C174.371 16.5927 174.871 16.5135 175.404 16.5135C175.723 16.5135 176.062 16.5403 176.422 16.5927C176.781 16.6457 177.114 16.7449 177.42 16.8898C177.726 17.0352 177.972 17.233 178.16 17.4839C178.345 17.7349 178.439 18.045 178.439 18.4145C178.439 18.9955 178.292 19.6627 178 20.4159C177.706 21.1698 177.414 21.8127 177.121 22.345C176.668 21.9723 176.215 21.686 175.763 21.4862C175.31 21.2866 174.778 21.1866 174.165 21.1866C173.34 21.1866 172.648 21.427 172.089 21.9075C171.529 22.388 171.25 22.9622 171.25 23.6298V36.5597H165.818V17.0724C165.951 17.0463 166.111 17.0195 166.298 16.9927C166.457 16.9666 166.644 16.9464 166.857 16.9327C167.069 16.9196 167.322 16.9128 167.615 16.9128C168.467 16.9128 169.206 17.078 169.832 17.4078C170.457 17.7371 170.85 18.2452 171.01 18.9309ZM196.931 31.3314C196.931 33.4351 197.237 34.9662 197.85 35.9248C197.37 36.1108 196.924 36.2442 196.512 36.324C196.099 36.404 195.666 36.4438 195.214 36.4438C194.255 36.4438 193.529 36.2574 193.037 35.8847C192.544 35.5123 192.231 34.9797 192.098 34.287C191.513 34.9001 190.74 35.4191 189.782 35.8452C188.824 36.2704 187.651 36.4841 186.267 36.4841C185.548 36.4841 184.83 36.3843 184.11 36.1859C183.392 35.9859 182.739 35.6613 182.154 35.2107C181.568 34.759 181.088 34.1551 180.716 33.3986C180.343 32.642 180.157 31.7198 180.157 30.6318C180.157 29.2781 180.482 28.1762 181.135 27.3272C181.787 26.4774 182.606 25.8074 183.592 25.3162C184.576 24.8255 185.641 24.4877 186.787 24.3015C187.931 24.1154 188.983 23.9964 189.942 23.9426C190.261 23.9164 190.574 23.9026 190.881 23.9026H191.739V23.1757C191.739 22.1521 191.466 21.425 190.92 20.9945C190.374 20.5638 189.489 20.3479 188.264 20.3479C187.119 20.3479 186.101 20.5345 185.209 20.907C184.317 21.2802 183.445 21.7059 182.593 22.1852C182.22 21.7327 181.92 21.2336 181.694 20.6874C181.468 20.142 181.355 19.7358 181.355 19.4692C181.355 19.0967 181.561 18.7372 181.974 18.3908C182.386 18.0451 182.952 17.7318 183.671 17.4522C184.39 17.1726 185.215 16.9467 186.147 16.7732C187.079 16.6003 188.065 16.5136 189.103 16.5136C190.541 16.5136 191.759 16.6603 192.758 16.953C193.756 17.2463 194.568 17.6987 195.194 18.3109C195.819 18.9239 196.265 19.689 196.532 20.6075C196.797 21.5262 196.931 22.5984 196.931 23.8228V31.3314ZM191.819 26.6984H191.26C191.073 26.6984 190.886 26.7122 190.701 26.7385C190.035 26.7921 189.376 26.8718 188.724 26.9778C188.071 27.0847 187.492 27.2711 186.986 27.5372C186.48 27.8036 186.068 28.15 185.748 28.5755C185.429 29.0018 185.269 29.548 185.269 30.2133C185.269 30.959 185.482 31.591 185.908 32.1104C186.333 32.6297 187.053 32.8893 188.065 32.8893C188.57 32.8893 189.05 32.8232 189.502 32.6893C189.955 32.5568 190.354 32.3836 190.701 32.1705C191.046 31.9574 191.32 31.7246 191.519 31.4713C191.719 31.2186 191.819 30.9858 191.819 30.7726L191.819 26.6984Z" fill="#044D80"/>
</svg>
