<svg width="180" height="40" viewBox="0 0 180 40" fill="none" xmlns="http://www.w3.org/2000/svg">
<path d="M17.2779 19.1029L0.720703 36.6764C0.721325 36.6801 0.722569 36.6831 0.723191 36.6867C1.23096 38.5949 2.97384 40 5.04238 40C5.86926 40 6.6456 39.7764 7.31137 39.384L7.36425 39.353L26.0015 28.5986L17.2779 19.1029Z" fill="#EA4335"/>
<path d="M34.0293 16.1113L34.0135 16.1004L25.9673 11.436L16.9023 19.5024L25.9989 28.5977L34.0026 23.9796C35.4058 23.222 36.3583 21.7427 36.3583 20.0369C36.3583 18.3433 35.4186 16.8713 34.0293 16.1113Z" fill="#FBBC04"/>
<path d="M0.720207 3.32301C0.620676 3.69003 0.568359 4.07447 0.568359 4.47368V35.5268C0.568359 35.9253 0.620053 36.311 0.720829 36.6768L17.8478 19.5528L0.720207 3.32301Z" fill="#4285F4"/>
<path d="M17.4006 20L25.9705 11.4325L7.35445 0.639294C6.67779 0.234015 5.88808 0.000118256 5.043 0.000118256C2.97446 0.000118256 1.22924 1.40771 0.721325 3.31824C0.720703 3.32011 0.720703 3.32135 0.720703 3.32306L17.4006 20Z" fill="#34A853"/>
<path d="M151.199 33.8857H153.998V15.1333H151.199V33.8857ZM176.41 21.8887L173.201 30.0186H173.105L169.775 21.8887H166.76L171.755 33.2512L168.907 39.5723H171.826L179.522 21.8887H176.41ZM160.535 31.7559C159.62 31.7559 158.341 31.297 158.341 30.1633C158.341 28.716 159.934 28.1611 161.308 28.1611C162.538 28.1611 163.118 28.426 163.865 28.7881C163.648 30.5254 162.152 31.7559 160.535 31.7559ZM160.874 21.4785C158.848 21.4785 156.749 22.3714 155.881 24.3496L158.365 25.3867C158.896 24.3496 159.884 24.0121 160.922 24.0121C162.37 24.0121 163.841 24.8799 163.865 26.4244V26.6172C163.358 26.3277 162.272 25.8936 160.946 25.8936C158.267 25.8936 155.542 27.3648 155.542 30.1152C155.542 32.6242 157.738 34.2408 160.198 34.2408C162.079 34.2408 163.118 33.3964 163.768 32.4069H163.865V33.8553H166.568V26.6652C166.568 23.3359 164.081 21.4785 160.874 21.4785ZM143.576 24.1714H139.595V17.7438H143.576C145.669 17.7438 146.857 19.4758 146.857 20.9575C146.857 22.4107 145.669 24.1714 143.576 24.1714ZM143.504 15.1333H136.798V33.8857H139.595V26.7813H143.504C146.606 26.7813 149.656 24.5359 149.656 20.9575C149.656 17.3799 146.606 15.1333 143.504 15.1333ZM106.932 31.7593C104.999 31.7593 103.38 30.1398 103.38 27.9174C103.38 25.6692 104.999 24.0267 106.932 24.0267C108.841 24.0267 110.339 25.6692 110.339 27.9174C110.339 30.1398 108.841 31.7593 106.932 31.7593ZM110.146 22.9387H110.049C109.421 22.1898 108.212 21.5131 106.691 21.5131C103.5 21.5131 100.577 24.3168 100.577 27.9174C100.577 31.4934 103.5 34.2725 106.691 34.2725C108.212 34.2725 109.421 33.5956 110.049 32.8228H110.146V33.7404C110.146 36.182 108.841 37.4863 106.739 37.4863C105.024 37.4863 103.96 36.2541 103.525 35.2152L101.085 36.2301C101.785 37.9211 103.645 40 106.739 40C110.026 40 112.805 38.0664 112.805 33.3537V21.8998H110.146V22.9387ZM114.739 33.8857H117.541V15.1333H114.739V33.8857ZM121.673 27.6994C121.601 25.2343 123.583 23.9781 125.008 23.9781C126.121 23.9781 127.062 24.5341 127.377 25.3311L121.673 27.6994ZM130.373 25.5724C129.841 24.1474 128.222 21.5131 124.912 21.5131C121.625 21.5131 118.894 24.0988 118.894 27.8928C118.894 31.4694 121.601 34.2725 125.225 34.2725C128.149 34.2725 129.841 32.4847 130.543 31.4452L128.368 29.995C127.642 31.0585 126.652 31.7593 125.225 31.7593C123.8 31.7593 122.785 31.1067 122.133 29.8258L130.663 26.2978L130.373 25.5724ZM62.411 23.4706V26.1771H68.8873C68.6939 27.6994 68.1865 28.8109 67.4131 29.5843C66.4703 30.5265 64.9961 31.566 62.411 31.566C58.4236 31.566 55.3064 28.3521 55.3064 24.3648C55.3064 20.3775 58.4236 17.1631 62.411 17.1631C64.5619 17.1631 66.1322 18.0091 67.2923 19.0966L69.202 17.1871C67.5824 15.6408 65.432 14.4567 62.411 14.4567C56.9488 14.4567 52.3574 18.9033 52.3574 24.3648C52.3574 29.8258 56.9488 34.2725 62.411 34.2725C65.3588 34.2725 67.5824 33.3057 69.3221 31.4934C71.1104 29.7051 71.6665 27.192 71.6665 25.1617C71.6665 24.5341 71.6177 23.9541 71.5211 23.4706H62.411ZM79.0294 31.7593C77.0957 31.7593 75.4282 30.1644 75.4282 27.8928C75.4282 25.597 77.0957 24.0267 79.0294 24.0267C80.9623 24.0267 82.6298 25.597 82.6298 27.8928C82.6298 30.1644 80.9623 31.7593 79.0294 31.7593ZM79.0294 21.5131C75.5002 21.5131 72.625 24.1954 72.625 27.8928C72.625 31.566 75.5002 34.2725 79.0294 34.2725C82.5572 34.2725 85.433 31.566 85.433 27.8928C85.433 24.1954 82.5572 21.5131 79.0294 21.5131ZM92.9986 31.7593C91.0663 31.7593 89.3981 30.1644 89.3981 27.8928C89.3981 25.597 91.0663 24.0267 92.9986 24.0267C94.9322 24.0267 96.5992 25.597 96.5992 27.8928C96.5992 30.1644 94.9322 31.7593 92.9986 31.7593ZM92.9986 21.5131C89.4707 21.5131 86.5955 24.1954 86.5955 27.8928C86.5955 31.566 89.4707 34.2725 92.9986 34.2725C96.5278 34.2725 99.403 31.566 99.403 27.8928C99.403 24.1954 96.5278 21.5131 92.9986 21.5131Z" fill="#0F0F0F"/>
</svg>
