<svg width="170" height="40" viewBox="0 0 170 40" fill="none" xmlns="http://www.w3.org/2000/svg">
<g clip-path="url(#clip0_5125_380)">
<g filter="url(#filter0_d_5125_380)">
<path d="M31.8828 0H9.0703C4.32412 0 0.476562 3.84755 0.476562 8.59373V31.4063C0.476562 36.1525 4.32412 40 9.0703 40H31.8828C36.629 40 40.4766 36.1525 40.4766 31.4063V8.59373C40.4766 3.84755 36.629 0 31.8828 0Z" fill="url(#paint0_linear_5125_380)"/>
</g>
<path d="M33.0938 22.5H28.0156C26.8722 22.5 25.9453 23.4269 25.9453 24.5703C25.9453 25.7137 26.8722 26.6406 28.0156 26.6406H33.0938C34.2372 26.6406 35.164 25.7137 35.164 24.5703C35.164 23.4269 34.2372 22.5 33.0938 22.5Z" fill="white"/>
<path d="M19.6293 7.26208L22.1255 11.5857C22.6972 12.5759 22.3579 13.8421 21.3677 14.4139C20.3775 14.9855 19.1113 14.6463 18.5397 13.6561L16.0433 9.33235C15.4717 8.34215 15.8109 7.07595 16.8011 6.50428C17.7913 5.93257 19.0575 6.27185 19.6293 7.26208Z" fill="white"/>
<path d="M31.5275 32.0112C32.5158 31.4407 32.8505 30.1746 32.2735 29.1902L23.2278 13.7598C23.1891 13.6938 23.1181 13.6535 23.0416 13.6543C22.9309 13.6555 22.8284 13.7128 22.7694 13.8063L21.6486 15.5862C21.0794 16.5926 21.0807 17.8242 21.6522 18.8293L28.7113 31.2466C29.2753 32.2387 30.5393 32.5819 31.5275 32.0112Z" fill="white"/>
<path d="M21.1203 7.26205L11.8441 23.3289C11.2724 24.3192 11.6117 25.5853 12.6019 26.157C13.5921 26.7287 14.8583 26.3895 15.43 25.3993L24.7062 9.33238C25.2779 8.34218 24.9386 7.07598 23.9484 6.50428C22.9582 5.93258 21.692 6.27185 21.1203 7.26205Z" fill="white"/>
<path d="M9.20831 32.0028C8.22838 31.437 7.89731 30.181 8.47111 29.2057L9.51591 27.4299C9.67545 27.1587 9.96658 26.9922 10.2812 26.9922H12.269C12.4768 26.9922 12.6811 27.0454 12.8625 27.1468C13.445 27.4723 13.6566 28.206 13.337 28.7917L12.0151 31.2145C11.467 32.2189 10.1993 32.575 9.20831 32.0028Z" fill="white"/>
<path d="M5.71094 24.5703C5.71094 23.4269 6.63785 22.5 7.78123 22.5H22.4021C22.9714 22.5 23.4937 22.816 23.7578 23.3203L24.4219 24.6485C24.9273 25.5372 24.2853 26.6406 23.263 26.6406H7.78123C6.63785 26.6406 5.71094 25.7137 5.71094 24.5703Z" fill="white"/>
</g>
<path d="M127.087 18.5593V21.9959H124.933V24.2495H127.087V31.907C127.087 34.5217 128.27 35.5676 131.246 35.5676C131.769 35.5676 132.267 35.5054 132.702 35.4307V33.2019C132.329 33.2393 132.092 33.2642 131.681 33.2642C130.349 33.2642 129.764 32.6416 129.764 31.2222V24.2495H132.702V21.9959H129.764V18.5593H127.087Z" fill="#0F0F0F"/>
<path d="M140.283 35.7544C144.243 35.7544 146.671 33.1023 146.671 28.7071C146.671 24.3367 144.23 21.6721 140.283 21.6721C136.324 21.6721 133.883 24.3367 133.883 28.7071C133.883 33.1023 136.311 35.7544 140.283 35.7544ZM140.283 33.3762C137.955 33.3762 136.647 31.6704 136.647 28.7071C136.647 25.7686 137.955 24.0503 140.283 24.0503C142.599 24.0503 143.919 25.7686 143.919 28.7071C143.919 31.658 142.599 33.3762 140.283 33.3762Z" fill="#0F0F0F"/>
<path d="M148.748 35.4929H151.425V27.4868C151.425 25.5818 152.857 24.2993 154.886 24.2993C155.359 24.2993 156.156 24.3865 156.38 24.4612V21.8216C156.094 21.7468 155.584 21.7095 155.185 21.7095C153.417 21.7095 151.911 22.6807 151.525 24.013H151.325V21.9336H148.748V35.4929Z" fill="#0F0F0F"/>
<path d="M163.027 23.9507C165.007 23.9507 166.302 25.3328 166.364 27.4619H159.516C159.666 25.3452 161.048 23.9507 163.027 23.9507ZM166.352 31.8323C165.854 32.8906 164.746 33.4759 163.127 33.4759C160.985 33.4759 159.603 31.9693 159.516 29.5911V29.4417H169.091V28.5078C169.091 24.2495 166.813 21.6721 163.04 21.6721C159.217 21.6721 156.789 24.4238 156.789 28.7569C156.789 33.0899 159.168 35.7544 163.052 35.7544C166.153 35.7544 168.319 34.2603 168.929 31.8323H166.352Z" fill="#0F0F0F"/>
<path d="M109.531 30.4857C109.738 33.8153 112.513 35.9446 116.642 35.9446C121.056 35.9446 123.818 33.712 123.818 30.1502C123.818 27.3497 122.243 25.8011 118.423 24.9106L116.371 24.4073C113.945 23.8395 112.964 23.0781 112.964 21.7488C112.964 20.0711 114.487 18.9742 116.771 18.9742C118.939 18.9742 120.436 20.0453 120.707 21.7617H123.521C123.353 18.6257 120.591 16.4189 116.81 16.4189C112.745 16.4189 110.035 18.6257 110.035 21.9424C110.035 24.6783 111.571 26.3044 114.939 27.0916L117.339 27.6723C119.804 28.2531 120.888 29.1048 120.888 30.5244C120.888 32.1763 119.185 33.3765 116.862 33.3765C114.371 33.3765 112.642 32.2537 112.396 30.4857H109.531Z" fill="#0F0F0F"/>
<path d="M81.8005 21.7095C79.9577 21.7095 78.364 22.6309 77.5422 24.1748H77.343V21.9336H74.7656V40.0003H77.4426V33.4385H77.6542C78.364 34.8704 79.8955 35.7171 81.8254 35.7171C85.2495 35.7171 87.4284 33.0152 87.4284 28.7071C87.4284 24.3989 85.2495 21.7095 81.8005 21.7095ZM81.041 33.314C78.7998 33.314 77.3928 31.5459 77.3928 28.7195C77.3928 25.8806 78.7998 24.1126 81.0534 24.1126C83.3195 24.1126 84.6767 25.8433 84.6767 28.7071C84.6767 31.5833 83.3195 33.314 81.041 33.314Z" fill="#0F0F0F"/>
<path d="M96.7957 21.7095C94.9529 21.7095 93.3592 22.6309 92.5374 24.1748H92.3382V21.9336H89.7608V40.0003H92.4378V33.4385H92.6494C93.3592 34.8704 94.8907 35.7171 96.8206 35.7171C100.245 35.7171 102.424 33.0152 102.424 28.7071C102.424 24.3989 100.245 21.7095 96.7957 21.7095ZM96.0362 33.314C93.795 33.314 92.388 31.5459 92.388 28.7195C92.388 25.8806 93.795 24.1126 96.0486 24.1126C98.3147 24.1126 99.6719 25.8433 99.6719 28.7071C99.6719 31.5833 98.3147 33.314 96.0362 33.314Z" fill="#0F0F0F"/>
<path d="M69.9626 35.4929H73.034L66.3104 16.8706H63.2002L56.4766 35.4929H59.4448L61.1612 30.5502H68.2591L69.9626 35.4929ZM64.6069 20.2518H64.8263L67.5235 28.124H61.8968L64.6069 20.2518Z" fill="#0F0F0F"/>
<defs>
<filter id="filter0_d_5125_380" x="-5.52344" y="-2" width="52" height="52" filterUnits="userSpaceOnUse" color-interpolation-filters="sRGB">
<feFlood flood-opacity="0" result="BackgroundImageFix"/>
<feColorMatrix in="SourceAlpha" type="matrix" values="0 0 0 0 0 0 0 0 0 0 0 0 0 0 0 0 0 0 127 0" result="hardAlpha"/>
<feOffset dy="4"/>
<feGaussianBlur stdDeviation="3"/>
<feColorMatrix type="matrix" values="0 0 0 0 0 0 0 0 0 0 0 0 0 0 0 0 0 0 0.09 0"/>
<feBlend mode="normal" in2="BackgroundImageFix" result="effect1_dropShadow_5125_380"/>
<feBlend mode="normal" in="SourceGraphic" in2="effect1_dropShadow_5125_380" result="shape"/>
</filter>
<linearGradient id="paint0_linear_5125_380" x1="20.4766" y1="0" x2="20.4766" y2="40" gradientUnits="userSpaceOnUse">
<stop stop-color="#1EC4F8"/>
<stop offset="1" stop-color="#1D72F3"/>
</linearGradient>
<clipPath id="clip0_5125_380">
<rect width="40" height="40" fill="white" transform="translate(0.476562)"/>
</clipPath>
</defs>
</svg>
