<svg width="132" height="54" viewBox="0 0 132 54" fill="none" xmlns="http://www.w3.org/2000/svg">
<path d="M65.9994 52.286C80.2011 52.286 91.7137 40.7733 91.7137 26.5717C91.7137 12.3701 80.2011 0.857422 65.9994 0.857422C51.7978 0.857422 40.2852 12.3701 40.2852 26.5717C40.2852 40.7733 51.7978 52.286 65.9994 52.286Z" fill="#FF492C" stroke="#FF492C"/>
<path d="M77.1291 20.5548H72.7371C72.8553 19.8657 73.2822 19.48 74.1462 19.0428L74.9536 18.6314C76.3988 17.8908 77.1702 17.0526 77.1702 15.6846C77.1702 14.8257 76.8359 14.1468 76.1725 13.6583C75.5091 13.1697 74.7273 12.928 73.8119 12.928C73.1037 12.9197 72.4085 13.118 71.8113 13.4988C71.2096 13.8691 70.7622 14.3474 70.4845 14.944L71.7548 16.2194C72.2485 15.2217 72.9633 14.7331 73.9045 14.7331C74.7016 14.7331 75.1902 15.1446 75.1902 15.7154C75.1902 16.1937 74.9536 16.5897 74.0382 17.0526L73.5188 17.3046C72.3925 17.8754 71.6108 18.5286 71.1582 19.2691C70.7056 20.0097 70.4845 20.9406 70.4845 22.0668V22.3754H77.1291V20.5548ZM76.5428 24.4737H69.2708L65.6348 30.7686H72.9068L76.5428 37.0686L80.1788 30.7686L76.5428 24.4737Z" fill="#FEFEFE" stroke="#FF492C"/>
<path d="M66.2615 34.9694C61.6329 34.9694 57.8632 31.1996 57.8632 26.5711C57.8632 21.9425 61.6329 18.1728 66.2615 18.1728L69.1364 12.1608C68.1897 11.9725 67.2267 11.8778 66.2615 11.8779C58.1461 11.8779 51.5684 18.4556 51.5684 26.5711C51.5684 34.6865 58.1461 41.2642 66.2615 41.2642C69.3715 41.27 72.4021 40.2827 74.9118 38.4459L71.7335 32.9328C70.213 34.2462 68.2708 34.9691 66.2615 34.9694Z" fill="#FEFEFE" stroke="#FF492C"/>
</svg>
